<svg width="15" height="15" viewBox="0 0 15 15" fill="none" xmlns="http://www.w3.org/2000/svg">
<path d="M10.2308 12.9096L10.2309 12.9097L10.2358 12.9048L13.1583 9.98233C13.4055 9.73506 13.4055 9.32843 13.1583 9.08116C12.911 8.83389 12.5043 8.83389 12.2571 9.08116L9.33457 12.0037C9.0873 12.2509 9.0873 12.6576 9.33457 12.9048C9.46156 13.0318 9.62415 13.0917 9.78516 13.0917C9.95206 13.0917 10.1104 13.022 10.2308 12.9096Z" fill="#626262" stroke="#626262" stroke-width="0.4"/>
<path d="M2.79089 10.1639H12.7076C13.0572 10.1639 13.3451 9.87599 13.3451 9.52637C13.3451 9.17674 13.0572 8.88887 12.7076 8.88887H2.79089C2.44127 8.88887 2.15339 9.17674 2.15339 9.52637C2.15339 9.87599 2.44127 10.1639 2.79089 10.1639Z" fill="#626262" stroke="#626262" stroke-width="0.4"/>
<path d="M2.34031 6.48882C2.4673 6.6158 2.62989 6.67573 2.7909 6.67573C2.95397 6.67573 3.12175 6.60856 3.24149 6.48882L6.16399 3.56632C6.41126 3.31905 6.41126 2.91241 6.16399 2.66514C5.91672 2.41787 5.51008 2.41787 5.26281 2.66514L2.34031 5.58764C2.09304 5.83491 2.09304 6.24155 2.34031 6.48882Z" fill="#626262" stroke="#626262" stroke-width="0.4"/>
<path d="M2.79089 6.67559H12.7076C13.0572 6.67559 13.3451 6.38771 13.3451 6.03809C13.3451 5.68846 13.0572 5.40059 12.7076 5.40059H2.79089C2.44127 5.40059 2.15339 5.68846 2.15339 6.03809C2.15339 6.38771 2.44127 6.67559 2.79089 6.67559Z" fill="#626262" stroke="#626262" stroke-width="0.4"/>
</svg>
