<svg width="14" height="15" viewBox="0 0 14 15" fill="none" xmlns="http://www.w3.org/2000/svg">
<path d="M9.48153 12.6279L9.48161 12.628L9.48648 12.6231L12.409 9.70059C12.6563 9.45332 12.6563 9.04669 12.409 8.79942C12.1617 8.55215 11.7551 8.55215 11.5078 8.79942L8.58531 11.7219C8.33804 11.9692 8.33804 12.3758 8.58531 12.6231C8.71229 12.7501 8.87488 12.81 9.0359 12.81C9.20279 12.81 9.36114 12.7402 9.48153 12.6279Z" fill="white" stroke="white" stroke-width="0.4"/>
<path d="M2.04175 9.88164H11.9584C12.308 9.88164 12.5959 9.59376 12.5959 9.24414C12.5959 8.89452 12.308 8.60664 11.9584 8.60664H2.04175C1.69212 8.60664 1.40425 8.89452 1.40425 9.24414C1.40425 9.59376 1.69212 9.88164 2.04175 9.88164Z" fill="white" stroke="white" stroke-width="0.4"/>
<path d="M1.59117 6.20659C1.71815 6.33357 1.88074 6.3935 2.04175 6.3935C2.20483 6.3935 2.3726 6.32633 2.49234 6.20659L5.41484 3.28409C5.66211 3.03682 5.66211 2.63019 5.41484 2.38291C5.16757 2.13564 4.76094 2.13564 4.51367 2.38291L1.59117 5.30541C1.3439 5.55269 1.3439 5.95932 1.59117 6.20659Z" fill="white" stroke="white" stroke-width="0.4"/>
<path d="M2.04175 6.39336H11.9584C12.308 6.39336 12.5959 6.10548 12.5959 5.75586C12.5959 5.40624 12.308 5.11836 11.9584 5.11836H2.04175C1.69212 5.11836 1.40425 5.40624 1.40425 5.75586C1.40425 6.10548 1.69212 6.39336 2.04175 6.39336Z" fill="white" stroke="white" stroke-width="0.4"/>
</svg>
