<svg width="24" height="25" viewBox="0 0 24 25" fill="none" xmlns="http://www.w3.org/2000/svg">
<rect x="4" y="10.8667" width="5" height="8" stroke="#6200EE" stroke-width="1.5"/>
<rect x="15" y="10.8667" width="5" height="8" stroke="#6200EE" stroke-width="1.5"/>
<path d="M3.03293 10.8667L20.9671 10.8667C21.9872 10.8667 22.3878 9.51528 21.539 8.93729L13.1438 3.22045C12.4512 2.74878 11.5488 2.74878 10.8562 3.22045L2.46102 8.93729C1.61224 9.51528 2.01282 10.8667 3.03293 10.8667Z" stroke="#141414" stroke-width="1.5"/>
<path d="M19.382 18.8667C19.7607 18.8667 20.107 19.0807 20.2764 19.4195L21.2764 21.4195C21.6088 22.0844 21.1253 22.8667 20.382 22.8667L3.61803 22.8667C2.87465 22.8667 2.39116 22.0844 2.72361 21.4195L3.72361 19.4195C3.893 19.0807 4.23926 18.8667 4.61803 18.8667L19.382 18.8667Z" stroke="#141414" stroke-width="1.5"/>
</svg>
