<svg width="81" height="81" viewBox="0 0 81 81" fill="none" xmlns="http://www.w3.org/2000/svg">
<g clip-path="url(#clip0_138_1286)">
<path d="M40.5 0.000976562C46.4832 0.000976562 52.392 1.32662 57.8016 3.88262C63.2112 6.43861 67.9875 10.1614 71.7868 14.7835C75.586 19.4056 78.314 24.812 79.7747 30.6139C81.2352 36.4161 81.3922 42.4698 80.2342 48.3398L73.0821 46.9287C74.0316 42.1154 73.9029 37.1513 72.7053 32.3937C71.5075 27.636 69.2705 23.2026 66.1551 19.4126C63.0398 15.6226 59.1232 12.5698 54.6873 10.4739C50.2514 8.378 45.4062 7.29098 40.5 7.29098V0.000976562Z" fill="#A81DA6"/>
<path d="M40.5 0C32.8221 0 25.3022 2.18251 18.8173 6.29311C12.3324 10.4037 7.14957 16.273 3.873 23.2168C0.596457 30.1605 -0.638791 37.8925 0.311278 45.5115C1.26135 53.1304 4.35759 60.3224 9.23904 66.2487C14.1205 72.1752 20.586 76.5919 27.8817 78.9841C35.1776 81.3763 43.0031 81.6453 50.446 79.7597C57.8887 77.8742 64.6423 73.9118 69.9192 68.3346C75.196 62.7573 78.7788 55.795 80.2498 48.2593L73.0948 46.8626C71.8887 53.0418 68.9508 58.751 64.6237 63.3245C60.2968 67.8978 54.7587 71.1469 48.6557 72.6929C42.5525 74.2392 36.1356 74.0187 30.1531 72.0569C24.1706 70.0954 18.8688 66.4737 14.866 61.614C10.8632 56.7543 8.32431 50.8569 7.54526 44.6094C6.76619 38.3618 7.7791 32.0215 10.4659 26.3277C13.1527 20.6339 17.4025 15.821 22.7202 12.4503C28.0378 9.07966 34.2041 7.29 40.5 7.29V0Z" fill="#E8E8E8"/>
<path d="M30.72 39.5H27.94V28.38H25.38V25.98H30.72V39.5ZM38.3275 39.7C37.3675 39.7 36.5008 39.5133 35.7275 39.14C34.9675 38.7667 34.3608 38.26 33.9075 37.62C33.4542 36.9667 33.2142 36.22 33.1875 35.38H35.9675C36.0475 35.9667 36.2942 36.42 36.7075 36.74C37.1342 37.06 37.6675 37.22 38.3075 37.22C38.8542 37.22 39.2942 37.12 39.6275 36.92C39.9608 36.7067 40.2008 36.44 40.3475 36.12C40.4942 35.7867 40.5675 35.44 40.5675 35.08C40.5675 34.72 40.4875 34.38 40.3275 34.06C40.1675 33.74 39.9142 33.4733 39.5675 33.26C39.2208 33.0467 38.7742 32.94 38.2275 32.94C37.6942 32.94 37.2275 33.0533 36.8275 33.28C36.4275 33.5067 36.1275 33.8467 35.9275 34.3L33.6475 33.56L34.8275 25.98H42.6475V28.46H36.8475L36.4275 31.22C36.7608 30.9933 37.1208 30.8333 37.5075 30.74C37.8942 30.6333 38.2875 30.58 38.6875 30.58C39.7675 30.58 40.6542 30.7933 41.3475 31.22C42.0542 31.6467 42.5808 32.2067 42.9275 32.9C43.2742 33.5933 43.4475 34.32 43.4475 35.08C43.4475 35.6533 43.3408 36.22 43.1275 36.78C42.9142 37.3267 42.5875 37.82 42.1475 38.26C41.7208 38.7 41.1875 39.0533 40.5475 39.32C39.9208 39.5733 39.1808 39.7 38.3275 39.7ZM50.1533 39.7C49.1933 39.7 48.3266 39.5133 47.5533 39.14C46.7933 38.7667 46.1866 38.26 45.7333 37.62C45.2799 36.9667 45.0399 36.22 45.0133 35.38H47.7933C47.8733 35.9667 48.1199 36.42 48.5333 36.74C48.9599 37.06 49.4933 37.22 50.1333 37.22C50.6799 37.22 51.1199 37.12 51.4533 36.92C51.7866 36.7067 52.0266 36.44 52.1733 36.12C52.3199 35.7867 52.3933 35.44 52.3933 35.08C52.3933 34.72 52.3133 34.38 52.1533 34.06C51.9933 33.74 51.7399 33.4733 51.3933 33.26C51.0466 33.0467 50.5999 32.94 50.0533 32.94C49.5199 32.94 49.0533 33.0533 48.6533 33.28C48.2533 33.5067 47.9533 33.8467 47.7533 34.3L45.4733 33.56L46.6533 25.98H54.4733V28.46H48.6733L48.2533 31.22C48.5866 30.9933 48.9466 30.8333 49.3333 30.74C49.7199 30.6333 50.1133 30.58 50.5133 30.58C51.5933 30.58 52.4799 30.7933 53.1733 31.22C53.8799 31.6467 54.4066 32.2067 54.7533 32.9C55.0999 33.5933 55.2733 34.32 55.2733 35.08C55.2733 35.6533 55.1666 36.22 54.9533 36.78C54.7399 37.3267 54.4133 37.82 53.9733 38.26C53.5466 38.7 53.0133 39.0533 52.3733 39.32C51.7466 39.5733 51.0066 39.7 50.1533 39.7Z" fill="#141414"/>
<path d="M20.92 58.6C20.5467 58.6 20.2 58.5333 19.88 58.4C19.5667 58.26 19.2933 58.0667 19.06 57.82C18.8267 57.5667 18.6433 57.2733 18.51 56.94C18.3833 56.6067 18.32 56.2433 18.32 55.85C18.32 55.4567 18.3833 55.0933 18.51 54.76C18.6433 54.4267 18.8267 54.1367 19.06 53.89C19.2933 53.6367 19.5667 53.4433 19.88 53.31C20.2 53.17 20.5467 53.1 20.92 53.1C21.3 53.1 21.6467 53.17 21.96 53.31C22.28 53.4433 22.5533 53.6367 22.78 53.89C23.0133 54.1367 23.1933 54.4267 23.32 54.76C23.4533 55.0933 23.52 55.4567 23.52 55.85C23.52 56.2433 23.4533 56.6067 23.32 56.94C23.1933 57.2733 23.0133 57.5667 22.78 57.82C22.5533 58.0667 22.28 58.26 21.96 58.4C21.6467 58.5333 21.3 58.6 20.92 58.6ZM20.92 57.71C21.2133 57.71 21.4767 57.6367 21.71 57.49C21.95 57.3367 22.1367 57.12 22.27 56.84C22.41 56.56 22.48 56.23 22.48 55.85C22.48 55.4633 22.41 55.1333 22.27 54.86C22.1367 54.58 21.95 54.3667 21.71 54.22C21.4767 54.0733 21.2133 54 20.92 54C20.6333 54 20.37 54.0733 20.13 54.22C19.8967 54.3667 19.71 54.58 19.57 54.86C19.4367 55.1333 19.37 55.4633 19.37 55.85C19.37 56.23 19.4367 56.56 19.57 56.84C19.71 57.12 19.8967 57.3367 20.13 57.49C20.37 57.6367 20.6333 57.71 20.92 57.71ZM25.6931 58.5H24.6831V54.06H23.5131V53.2H24.6831V52.81C24.6831 52.2967 24.8165 51.9067 25.0831 51.64C25.3498 51.3667 25.7331 51.23 26.2331 51.23C26.3798 51.23 26.5131 51.2433 26.6331 51.27C26.7598 51.29 26.8731 51.32 26.9731 51.36V52.18C26.8931 52.1467 26.8098 52.1233 26.7231 52.11C26.6365 52.0967 26.5465 52.09 26.4531 52.09C26.2198 52.09 26.0331 52.15 25.8931 52.27C25.7598 52.3833 25.6931 52.5667 25.6931 52.82V53.2H27.1731V54.06H25.6931V58.5ZM31.6932 58.6C31.2532 58.6 30.8565 58.5133 30.5032 58.34C30.1499 58.16 29.8665 57.9167 29.6532 57.61C29.4465 57.2967 29.3332 56.94 29.3132 56.54H30.3232C30.3632 56.9 30.5065 57.1833 30.7532 57.39C30.9999 57.59 31.3132 57.69 31.6932 57.69C31.9999 57.69 32.2565 57.6333 32.4632 57.52C32.6699 57.4 32.8232 57.24 32.9232 57.04C33.0299 56.8333 33.0832 56.6 33.0832 56.34C33.0832 56.1067 33.0265 55.89 32.9132 55.69C32.8065 55.49 32.6499 55.33 32.4432 55.21C32.2365 55.09 31.9832 55.03 31.6832 55.03C31.3832 55.03 31.1199 55.0933 30.8932 55.22C30.6732 55.34 30.4932 55.5233 30.3532 55.77L29.5332 55.51L30.1332 51.74H33.7432V52.64H30.8632L30.5632 54.59C30.7565 54.4433 30.9599 54.3333 31.1732 54.26C31.3865 54.1867 31.6065 54.15 31.8332 54.15C32.3332 54.15 32.7532 54.2533 33.0932 54.46C33.4332 54.66 33.6899 54.9267 33.8632 55.26C34.0432 55.5933 34.1332 55.9533 34.1332 56.34C34.1332 56.64 34.0799 56.9267 33.9732 57.2C33.8665 57.4733 33.7065 57.7167 33.4932 57.93C33.2865 58.1367 33.0332 58.3 32.7332 58.42C32.4332 58.54 32.0865 58.6 31.6932 58.6ZM34.7701 55.13C34.7701 54.01 34.9834 53.15 35.4101 52.55C35.8434 51.9433 36.4601 51.64 37.2601 51.64C38.0601 51.64 38.6767 51.9433 39.1101 52.55C39.5434 53.15 39.7601 54.01 39.7601 55.13C39.7601 56.25 39.5434 57.11 39.1101 57.71C38.6834 58.3033 38.0667 58.6 37.2601 58.6C36.4534 58.6 35.8367 58.3033 35.4101 57.71C34.9834 57.11 34.7701 56.25 34.7701 55.13ZM35.8101 55.13C35.8101 55.9633 35.9334 56.6 36.1801 57.04C36.4267 57.4733 36.7867 57.69 37.2601 57.69C37.7334 57.69 38.0934 57.4733 38.3401 57.04C38.5934 56.6067 38.7201 55.97 38.7201 55.13C38.7201 54.2833 38.5934 53.6433 38.3401 53.21C38.0934 52.77 37.7334 52.55 37.2601 52.55C36.7934 52.55 36.4334 52.77 36.1801 53.21C35.9334 53.6433 35.8101 54.2833 35.8101 55.13ZM40.5369 55.13C40.5369 54.01 40.7502 53.15 41.1769 52.55C41.6102 51.9433 42.2269 51.64 43.0269 51.64C43.8269 51.64 44.4435 51.9433 44.8769 52.55C45.3102 53.15 45.5269 54.01 45.5269 55.13C45.5269 56.25 45.3102 57.11 44.8769 57.71C44.4502 58.3033 43.8335 58.6 43.0269 58.6C42.2202 58.6 41.6035 58.3033 41.1769 57.71C40.7502 57.11 40.5369 56.25 40.5369 55.13ZM41.5769 55.13C41.5769 55.9633 41.7002 56.6 41.9469 57.04C42.1935 57.4733 42.5535 57.69 43.0269 57.69C43.5002 57.69 43.8602 57.4733 44.1069 57.04C44.3602 56.6067 44.4869 55.97 44.4869 55.13C44.4869 54.2833 44.3602 53.6433 44.1069 53.21C43.8602 52.77 43.5002 52.55 43.0269 52.55C42.5602 52.55 42.2002 52.77 41.9469 53.21C41.7002 53.6433 41.5769 54.2833 41.5769 55.13ZM53.4635 55.85C53.4635 56.3833 53.3668 56.8567 53.1735 57.27C52.9802 57.6833 52.7068 58.01 52.3535 58.25C52.0068 58.4833 51.5968 58.6 51.1235 58.6C50.7635 58.6 50.4368 58.5133 50.1435 58.34C49.8502 58.1667 49.6068 57.92 49.4135 57.6V60.43H48.4035V53.2H49.3435V54.17C49.5302 53.83 49.7802 53.5667 50.0935 53.38C50.4068 53.1933 50.7502 53.1 51.1235 53.1C51.5968 53.1 52.0068 53.22 52.3535 53.46C52.7068 53.6933 52.9802 54.0167 53.1735 54.43C53.3668 54.8433 53.4635 55.3167 53.4635 55.85ZM52.4135 55.85C52.4135 55.2567 52.2702 54.8 51.9835 54.48C51.7035 54.1533 51.3468 53.99 50.9135 53.99C50.6335 53.99 50.3802 54.0633 50.1535 54.21C49.9268 54.3567 49.7468 54.5667 49.6135 54.84C49.4802 55.1133 49.4135 55.45 49.4135 55.85C49.4135 56.2367 49.4802 56.57 49.6135 56.85C49.7468 57.1233 49.9268 57.3333 50.1535 57.48C50.3802 57.6267 50.6335 57.7 50.9135 57.7C51.3468 57.7 51.7035 57.54 51.9835 57.22C52.2702 56.9 52.4135 56.4433 52.4135 55.85ZM57.1994 57.52V58.41C57.046 58.4833 56.896 58.5333 56.7494 58.56C56.6094 58.5867 56.4594 58.6 56.2994 58.6C55.9727 58.6 55.6827 58.54 55.4294 58.42C55.1827 58.3 54.9894 58.1133 54.8494 57.86C54.7094 57.6067 54.6394 57.2867 54.6394 56.9V54.06H53.4694V53.2H54.6394V51.63H55.6494V53.2H57.2494V54.06H55.6494V56.67C55.6494 57.0367 55.7294 57.2933 55.8894 57.44C56.056 57.5867 56.2727 57.66 56.5394 57.66C56.6594 57.66 56.7727 57.65 56.8794 57.63C56.9927 57.6033 57.0994 57.5667 57.1994 57.52ZM62.1938 56.92C62.1938 57.44 62.0004 57.85 61.6138 58.15C61.2271 58.45 60.6804 58.6 59.9738 58.6C59.2804 58.6 58.7304 58.4367 58.3238 58.11C57.9238 57.7833 57.6971 57.3367 57.6438 56.77H58.6138C58.6271 57.1033 58.7571 57.3667 59.0038 57.56C59.2571 57.7467 59.5871 57.84 59.9938 57.84C60.3471 57.84 60.6304 57.7767 60.8438 57.65C61.0638 57.5233 61.1738 57.3367 61.1738 57.09C61.1738 56.87 61.1004 56.7033 60.9538 56.59C60.8138 56.4767 60.5771 56.39 60.2438 56.33L59.3838 56.17C58.8971 56.0767 58.5204 55.9067 58.2538 55.66C57.9871 55.4067 57.8538 55.08 57.8538 54.68C57.8538 54.3667 57.9371 54.0933 58.1038 53.86C58.2771 53.62 58.5171 53.4333 58.8238 53.3C59.1304 53.1667 59.4871 53.1 59.8938 53.1C60.3204 53.1 60.6938 53.1733 61.0138 53.32C61.3338 53.46 61.5904 53.6633 61.7838 53.93C61.9771 54.19 62.0871 54.5033 62.1138 54.87H61.1438C61.1104 54.5567 60.9838 54.31 60.7638 54.13C60.5438 53.95 60.2571 53.86 59.9038 53.86C59.5838 53.86 59.3238 53.9267 59.1238 54.06C58.9304 54.1867 58.8338 54.3633 58.8338 54.59C58.8338 54.8033 58.9038 54.9667 59.0438 55.08C59.1904 55.1867 59.4238 55.2733 59.7438 55.34L60.6438 55.51C61.1704 55.6033 61.5604 55.7667 61.8138 56C62.0671 56.2333 62.1938 56.54 62.1938 56.92Z" fill="#434343"/>
</g>
<defs>
<clipPath id="clip0_138_1286">
<rect width="81" height="81" fill="white"/>
</clipPath>
</defs>
</svg>
