<svg width="24" height="25" viewBox="0 0 24 25" fill="none" xmlns="http://www.w3.org/2000/svg">
<path d="M21.97 19.1972C21.97 19.5572 21.89 19.9272 21.72 20.2872C21.55 20.6472 21.33 20.9872 21.04 21.3072C20.55 21.8472 20.01 22.2372 19.4 22.4872C18.8 22.7372 18.15 22.8672 17.45 22.8672C16.43 22.8672 15.34 22.6272 14.19 22.1372C13.04 21.6472 11.89 20.9872 10.75 20.1572C9.6 19.3172 8.51 18.3872 7.47 17.3572C6.44 16.3172 5.51 15.2272 4.68 14.0872C3.86 12.9472 3.2 11.8072 2.72 10.6772C2.24 9.53719 2 8.44719 2 7.40719C2 6.72719 2.12 6.07719 2.36 5.47719C2.6 4.86719 2.98 4.30719 3.51 3.80719C4.15 3.17719 4.85 2.86719 5.59 2.86719C5.87 2.86719 6.15 2.92719 6.4 3.04719C6.66 3.16719 6.89 3.34719 7.07 3.60719L9.39 6.87719C9.57 7.12719 9.7 7.35719 9.79 7.57719C9.88 7.78719 9.93 7.99719 9.93 8.18719C9.93 8.42719 9.86 8.66719 9.72 8.89719C9.59 9.12719 9.4 9.36719 9.16 9.60719L8.4 10.3972C8.29 10.5072 8.24 10.6372 8.24 10.7972C8.24 10.8772 8.25 10.9472 8.27 11.0272C8.3 11.1072 8.33 11.1672 8.35 11.2272C8.53 11.5572 8.84 11.9872 9.28 12.5072C9.73 13.0272 10.21 13.5572 10.73 14.0872C11.27 14.6172 11.79 15.1072 12.32 15.5572C12.84 15.9972 13.27 16.2972 13.61 16.4772C13.66 16.4972 13.72 16.5272 13.79 16.5572C13.87 16.5872 13.95 16.5972 14.04 16.5972C14.21 16.5972 14.34 16.5372 14.45 16.4272L15.21 15.6772C15.46 15.4272 15.7 15.2372 15.93 15.1172C16.16 14.9772 16.39 14.9072 16.64 14.9072C16.83 14.9072 17.03 14.9472 17.25 15.0372C17.47 15.1272 17.7 15.2572 17.95 15.4272L21.26 17.7772C21.52 17.9572 21.7 18.1672 21.81 18.4172C21.91 18.6672 21.97 18.9172 21.97 19.1972Z" stroke="#080808" stroke-width="1.5" stroke-miterlimit="10"/>
<path d="M15.5 6.86719H20.5" stroke="#4B199C" stroke-width="1.5" stroke-linecap="round" stroke-linejoin="round"/>
<path d="M18 9.36719V4.36719" stroke="#4B199C" stroke-width="1.5" stroke-linecap="round" stroke-linejoin="round"/>
</svg>
