<svg width="24" height="25" viewBox="0 0 24 25" fill="none" xmlns="http://www.w3.org/2000/svg">
<path d="M12.1499 17.3667V19.4667" stroke="#6200EE" stroke-width="1.5" stroke-linecap="round" stroke-linejoin="round"/>
<path d="M7.1499 22.8667H17.1499V21.8667C17.1499 20.7667 16.2499 19.8667 15.1499 19.8667H9.1499C8.0499 19.8667 7.1499 20.7667 7.1499 21.8667V22.8667V22.8667Z" stroke="#141414" stroke-width="1.5" stroke-miterlimit="10"/>
<path d="M6.1499 22.8667H18.1499" stroke="#141414" stroke-width="1.5" stroke-linecap="round" stroke-linejoin="round"/>
<path d="M5.47004 12.5168C4.72004 12.2768 4.06004 11.8368 3.54004 11.3168C2.64004 10.3168 2.04004 9.1168 2.04004 7.7168C2.04004 6.3168 3.14004 5.2168 4.54004 5.2168H5.19004C4.99004 5.6768 4.89004 6.1868 4.89004 6.7168V9.7168C4.89004 10.7168 5.10004 11.6568 5.47004 12.5168Z" stroke="#6200EE" stroke-width="1.5" stroke-linecap="round" stroke-linejoin="round"/>
<path d="M18.5298 12.5168C19.2798 12.2768 19.9398 11.8368 20.4598 11.3168C21.3598 10.3168 21.9598 9.1168 21.9598 7.7168C21.9598 6.3168 20.8598 5.2168 19.4598 5.2168H18.8098C19.0098 5.6768 19.1098 6.1868 19.1098 6.7168V9.7168C19.1098 10.7168 18.8998 11.6568 18.5298 12.5168Z" stroke="#6200EE" stroke-width="1.5" stroke-linecap="round" stroke-linejoin="round"/>
<path d="M12 16.8667C8.13 16.8667 5 13.7367 5 9.8667V6.8667C5 4.6567 6.79 2.8667 9 2.8667H15C17.21 2.8667 19 4.6567 19 6.8667V9.8667C19 13.7367 15.87 16.8667 12 16.8667Z" stroke="#141414" stroke-width="1.5" stroke-linecap="round" stroke-linejoin="round"/>
</svg>
