<svg width="25" height="25" viewBox="0 0 25 25" fill="none" xmlns="http://www.w3.org/2000/svg">
<path d="M23.0769 18.1758C21.1851 19.5891 19.3511 20.4454 17.5466 21.0059C17.0998 20.3954 16.7054 19.7433 16.3636 19.0596C17.0118 18.8135 17.6364 18.51 18.2303 18.1519C18.0765 18.036 17.9233 17.9149 17.7737 17.7913C14.2228 19.4691 10.3188 19.4691 6.72538 17.7913C6.57609 17.9156 6.42364 18.036 6.26766 18.1519C6.85742 18.5057 7.48132 18.8107 8.13234 19.0575C7.79046 19.7433 7.39295 20.3933 6.94826 21.0049C5.1459 20.4433 3.31326 19.587 1.42252 18.1758C1.03592 14.0402 1.80947 9.84357 4.66036 5.53889C6.07472 4.87696 7.58765 4.39529 9.17031 4.12207C9.36572 4.4717 9.5974 4.9435 9.75373 5.31813C11.4029 5.06568 13.0676 5.06568 14.7478 5.31813C14.9041 4.9435 15.1312 4.4717 15.3245 4.12207C16.9051 4.39529 18.417 4.87449 19.8303 5.53537C22.3019 9.22283 23.5307 13.3814 23.0776 18.1762L23.0769 18.1758ZM10.5843 13.4015C10.604 12.1748 9.71922 11.1688 8.6214 11.1688C7.52357 11.1688 6.65743 12.1758 6.65743 13.4015C6.65743 14.6271 7.54223 15.632 8.6214 15.632C9.70056 15.632 10.5864 14.626 10.5843 13.4015ZM17.8402 13.4015C17.8599 12.1748 16.9751 11.1688 15.8773 11.1688C14.7795 11.1688 13.9133 12.1758 13.9133 13.4015C13.9133 14.6271 14.7982 15.632 15.8773 15.632C16.9565 15.632 17.8402 14.626 17.8402 13.4015Z" fill="#5865F2"/>
</svg>
