<svg width="73" height="17" viewBox="0 0 73 17" fill="none" xmlns="http://www.w3.org/2000/svg">
<rect width="73" height="17" rx="6" fill="white"/>
<path d="M6.04203 3.04524C6.21691 2.64612 6.78309 2.64612 6.95797 3.04524L8.15914 5.78671C8.23168 5.95226 8.38792 6.06578 8.56779 6.08361L11.5463 6.37883C11.9799 6.42181 12.1549 6.96029 11.8293 7.24994L9.5932 9.23948C9.45816 9.35963 9.39848 9.54331 9.43711 9.71988L10.0767 12.6438C10.1699 13.0695 9.7118 13.4023 9.33572 13.1822L6.75256 11.6703C6.59656 11.579 6.40344 11.579 6.24744 11.6703L3.66428 13.1822C3.2882 13.4023 2.83014 13.0695 2.92327 12.6438L3.56289 9.71988C3.60152 9.54331 3.54184 9.35963 3.4068 9.23948L1.17069 7.24994C0.845144 6.96029 1.02011 6.42181 1.45373 6.37883L4.43221 6.08361C4.61208 6.06578 4.76832 5.95226 4.84086 5.78671L6.04203 3.04524Z" fill="#E8E8E8"/>
<path d="M21.042 3.04524C21.2169 2.64612 21.7831 2.64612 21.958 3.04524L23.1591 5.78671C23.2317 5.95226 23.3879 6.06578 23.5678 6.08361L26.5463 6.37883C26.9799 6.42181 27.1549 6.96029 26.8293 7.24994L24.5932 9.23948C24.4582 9.35963 24.3985 9.54331 24.4371 9.71988L25.0767 12.6438C25.1699 13.0695 24.7118 13.4023 24.3357 13.1822L21.7526 11.6703C21.5966 11.579 21.4034 11.579 21.2474 11.6703L18.6643 13.1822C18.2882 13.4023 17.8301 13.0695 17.9233 12.6438L18.5629 9.71988C18.6015 9.54331 18.5418 9.35963 18.4068 9.23948L16.1707 7.24994C15.8451 6.96029 16.0201 6.42181 16.4537 6.37883L19.4322 6.08361C19.6121 6.06578 19.7683 5.95226 19.8409 5.78671L21.042 3.04524Z" fill="#E8E8E8"/>
<path d="M36.042 3.04524C36.2169 2.64612 36.7831 2.64612 36.958 3.04524L38.1591 5.78671C38.2317 5.95226 38.3879 6.06578 38.5678 6.08361L41.5463 6.37883C41.9799 6.42181 42.1549 6.96029 41.8293 7.24994L39.5932 9.23948C39.4582 9.35963 39.3985 9.54331 39.4371 9.71988L40.0767 12.6438C40.1699 13.0695 39.7118 13.4023 39.3357 13.1822L36.7526 11.6703C36.5966 11.579 36.4034 11.579 36.2474 11.6703L33.6643 13.1822C33.2882 13.4023 32.8301 13.0695 32.9233 12.6438L33.5629 9.71988C33.6015 9.54331 33.5418 9.35963 33.4068 9.23948L31.1707 7.24994C30.8451 6.96029 31.0201 6.42181 31.4537 6.37883L34.4322 6.08361C34.6121 6.06578 34.7683 5.95226 34.8409 5.78671L36.042 3.04524Z" fill="#E8E8E8"/>
<path d="M51.042 3.04524C51.2169 2.64612 51.7831 2.64612 51.958 3.04524L53.1591 5.78671C53.2317 5.95226 53.3879 6.06578 53.5678 6.08361L56.5463 6.37883C56.9799 6.42181 57.1549 6.96029 56.8293 7.24994L54.5932 9.23948C54.4582 9.35963 54.3985 9.54331 54.4371 9.71988L55.0767 12.6438C55.1699 13.0695 54.7118 13.4023 54.3357 13.1822L51.7526 11.6703C51.5966 11.579 51.4034 11.579 51.2474 11.6703L48.6643 13.1822C48.2882 13.4023 47.8301 13.0695 47.9233 12.6438L48.5629 9.71988C48.6015 9.54331 48.5418 9.35963 48.4068 9.23948L46.1707 7.24994C45.8451 6.96029 46.0201 6.42181 46.4537 6.37883L49.4322 6.08361C49.6121 6.06578 49.7683 5.95226 49.8409 5.78671L51.042 3.04524Z" fill="#E8E8E8"/>
<path d="M66.042 3.04524C66.2169 2.64612 66.7831 2.64612 66.958 3.04524L68.1591 5.78671C68.2317 5.95226 68.3879 6.06578 68.5678 6.08361L71.5463 6.37883C71.9799 6.42181 72.1549 6.96029 71.8293 7.24994L69.5932 9.23948C69.4582 9.35963 69.3985 9.54331 69.4371 9.71988L70.0767 12.6438C70.1699 13.0695 69.7118 13.4023 69.3357 13.1822L66.7526 11.6703C66.5966 11.579 66.4034 11.579 66.2474 11.6703L63.6643 13.1822C63.2882 13.4023 62.8301 13.0695 62.9233 12.6438L63.5629 9.71988C63.6015 9.54331 63.5418 9.35963 63.4068 9.23948L61.1707 7.24994C60.8451 6.96029 61.0201 6.42181 61.4537 6.37883L64.4322 6.08361C64.6121 6.06578 64.7683 5.95226 64.8409 5.78671L66.042 3.04524Z" fill="#E8E8E8"/>
</svg>
