<svg width="24" height="25" viewBox="0 0 24 25" fill="none" xmlns="http://www.w3.org/2000/svg">
<path d="M2.5 13.2765V8.70656C2.5 7.51656 3.23 6.45652 4.34 6.03652L12.28 3.03652C13.52 2.56652 14.85 3.48654 14.85 4.81654V8.61653" stroke="#6200EE" stroke-width="1.5" stroke-linecap="round" stroke-linejoin="round"/>
<path d="M22.5598 14.8369V16.8969C22.5598 17.4469 22.1198 17.8969 21.5598 17.9169H19.5998C18.5198 17.9169 17.5298 17.1269 17.4398 16.0469C17.3798 15.4169 17.6198 14.8269 18.0398 14.4169C18.4098 14.0369 18.9198 13.8169 19.4798 13.8169H21.5598C22.1198 13.8369 22.5598 14.2869 22.5598 14.8369Z" stroke="#141414" stroke-width="1.5" stroke-linecap="round" stroke-linejoin="round"/>
<path d="M7 12.8667H14" stroke="#6200EE" stroke-width="1.5" stroke-linecap="round" stroke-linejoin="round"/>
<path d="M18.04 14.4167C17.62 14.8267 17.38 15.4167 17.44 16.0467C17.53 17.1267 18.52 17.9167 19.6 17.9167H21.5V19.1067C21.5 21.1767 19.81 22.8667 17.74 22.8667H6.26C4.19 22.8667 2.5 21.1767 2.5 19.1067V12.3767C2.5 10.3067 4.19 8.6167 6.26 8.6167H17.74C19.81 8.6167 21.5 10.3067 21.5 12.3767V13.8167H19.48C18.92 13.8167 18.41 14.0367 18.04 14.4167Z" stroke="#141414" stroke-width="1.5" stroke-linecap="round" stroke-linejoin="round"/>
</svg>
