<svg width="17" height="22" viewBox="0 0 17 22" fill="none" xmlns="http://www.w3.org/2000/svg">
<path d="M6.5449 14.7459L6.11475 16.612L6.5449 19.672L12.5915 11.1792L6.5449 14.7459Z" fill="white"/>
<path d="M6.5449 7.28516L6.11475 10.5718L6.5449 13.6073L12.5915 10.0314L9.11204 8.01994L6.5449 7.28516Z" fill="white"/>
<path d="M6.5449 0L6.11475 4.18672L6.5449 7.28504L12.5915 10.0313L6.5449 0Z" fill="white"/>
<path d="M6.54663 14.7459V19.672L0.5 11.1792L6.54663 14.7459Z" fill="white"/>
<path d="M6.54663 7.28516V13.6073L0.5 10.0314L4.15247 7.94034L6.54663 7.28516Z" fill="white"/>
<path d="M6.54663 0V7.28504L0.5 10.0313L6.54663 0Z" fill="white"/>
<path d="M11.2225 12.8362C11.6227 12.3418 12.3768 12.3418 12.777 12.8362L12.9541 13.0549C13.1672 13.3183 13.4992 13.4558 13.8361 13.4203L14.1159 13.3908C14.7486 13.3242 15.2818 13.8574 15.2152 14.49L15.1857 14.7699C15.1502 15.1068 15.2877 15.4388 15.551 15.6519L15.7698 15.8289C16.2642 16.2292 16.2642 16.9833 15.7698 17.3835L15.551 17.5605C15.2877 17.7737 15.1502 18.1056 15.1857 18.4425L15.2152 18.7224C15.2818 19.355 14.7486 19.8882 14.1159 19.8216L13.8361 19.7921C13.4992 19.7567 13.1672 19.8942 12.9541 20.1575L12.777 20.3762C12.3768 20.8707 11.6227 20.8707 11.2225 20.3762L11.0455 20.1575C10.8323 19.8942 10.5004 19.7567 10.1635 19.7921L9.8836 19.8216C9.25096 19.8882 8.71775 19.355 8.78437 18.7224L8.81384 18.4425C8.84932 18.1056 8.71181 17.7737 8.4485 17.5605L8.22978 17.3835C7.73533 16.9833 7.73533 16.2292 8.22978 15.8289L8.4485 15.6519C8.71182 15.4388 8.84932 15.1068 8.81384 14.7699L8.78437 14.49C8.71775 13.8574 9.25096 13.3242 9.8836 13.3908L10.1635 13.4203C10.5004 13.4558 10.8323 13.3183 11.0455 13.0549L11.2225 12.8362Z" fill="#2EAE4E"/>
<path fill-rule="evenodd" clip-rule="evenodd" d="M13.6131 15.1995C13.6923 15.2599 13.7076 15.3731 13.6472 15.4524L11.7225 17.9786C11.691 18.02 11.6431 18.0457 11.5911 18.0492C11.5392 18.0527 11.4882 18.0336 11.4514 17.9968L10.3688 16.9142C10.2983 16.8437 10.2983 16.7294 10.3688 16.659C10.4392 16.5885 10.5535 16.5885 10.6239 16.659L11.5606 17.5956L13.3602 15.2337C13.4206 15.1544 13.5338 15.1391 13.6131 15.1995Z" fill="white" stroke="white" stroke-width="0.5" stroke-linecap="round" stroke-linejoin="round"/>
</svg>
