<svg width="24" height="25" viewBox="0 0 24 25" fill="none" xmlns="http://www.w3.org/2000/svg">
<path d="M12 6.92056V21.1697M3.99433 3.87846C6.21271 4.12913 9.19313 4.80351 11.3168 6.29163C11.725 6.57764 12.275 6.57764 12.6832 6.29163C14.8069 4.80351 17.7873 4.12913 20.0057 3.87846C21.1036 3.7544 22 4.67121 22 5.80237V17.0671C22 18.1983 21.1036 19.1154 20.0057 19.2395C17.7873 19.4902 14.8069 20.1646 12.6832 21.6527C12.275 21.9387 11.725 21.9387 11.3168 21.6527C9.19313 20.1646 6.21271 19.4902 3.99433 19.2395C2.89642 19.1154 2 18.1983 2 17.0671V5.80237C2 4.67121 2.89642 3.7544 3.99433 3.87846Z" stroke="#080808" stroke-width="1.5" stroke-linecap="round"/>
<path d="M5.04688 8.46387C6.31265 8.6599 9.04688 9.4971 9.04688 9.4971M5.04688 12.4639L7.04688 12.8676" stroke="#4B199C" stroke-width="1.5" stroke-linecap="round"/>
</svg>
