<svg width="28" height="28" viewBox="0 0 28 28" fill="none" xmlns="http://www.w3.org/2000/svg">
<path d="M13.8977 11.7129C14.7404 11.7129 15.4234 11.0298 15.4234 10.1873C15.4234 9.34475 14.7403 8.66162 13.8977 8.66162C13.0552 8.66162 12.3721 9.34475 12.3721 10.1873C12.3721 11.0298 13.0552 11.7129 13.8977 11.7129Z" fill="#FF8C05"/>
<path d="M15.1958 12.9974V12.5648V12.1321H11.4448V12.9974H12.5998V18.3423H12.5751H11.4448V19.2076H12.5751H15.1958H16.3261V18.3423H15.1958V12.9974Z" fill="#FF8C05"/>
<path d="M20.6265 20.6755C24.3495 16.9525 24.3495 10.9162 20.6265 7.19311C16.9034 3.47005 10.8671 3.47005 7.14404 7.19312C3.42097 10.9162 3.42097 16.9525 7.14404 20.6755C10.8671 24.3986 16.9034 24.3986 20.6265 20.6755Z" stroke="#FF8C05" stroke-width="2" stroke-linecap="round" stroke-linejoin="round"/>
</svg>
