<svg width="25" height="25" viewBox="0 0 25 25" fill="none" xmlns="http://www.w3.org/2000/svg">
<path d="M12.2509 2.56445C9.53506 2.56445 9.19423 2.57633 8.12755 2.62487C7.06296 2.67362 6.33629 2.84217 5.70045 3.08947C5.04273 3.3449 4.48481 3.68658 3.92897 4.24264C3.37272 4.7985 3.03105 5.35644 2.7748 6.01396C2.52688 6.65003 2.35813 7.37693 2.31021 8.44114C2.2625 9.50785 2.25 9.8489 2.25 12.5648C2.25 15.2808 2.26208 15.6206 2.31042 16.6873C2.35938 17.7519 2.52792 18.4786 2.775 19.1145C3.03063 19.7722 3.3723 20.3301 3.92835 20.886C4.48398 21.4423 5.0419 21.7848 5.6992 22.0402C6.33545 22.2875 7.06233 22.4561 8.12672 22.5048C9.19339 22.5534 9.53402 22.5652 12.2497 22.5652C14.9657 22.5652 15.3055 22.5534 16.3722 22.5048C17.4368 22.4561 18.1643 22.2875 18.8006 22.0402C19.4581 21.7848 20.0152 21.4423 20.5708 20.886C21.127 20.3301 21.4687 19.7722 21.725 19.1147C21.9708 18.4786 22.1395 17.7517 22.1895 16.6875C22.2375 15.6208 22.25 15.2808 22.25 12.5648C22.25 9.8489 22.2375 9.50806 22.1895 8.44135C22.1395 7.37672 21.9708 6.65003 21.725 6.01417C21.4687 5.35644 21.127 4.7985 20.5708 4.24264C20.0145 3.68637 19.4583 3.34469 18.7999 3.08947C18.1624 2.84217 17.4353 2.67362 16.3707 2.62487C15.3041 2.57633 14.9645 2.56445 12.2478 2.56445H12.2509ZM11.3538 4.36661C11.6201 4.36619 11.9172 4.36661 12.2509 4.36661C14.9209 4.36661 15.2374 4.37619 16.2918 4.42411C17.2668 4.46869 17.796 4.63162 18.1485 4.7685C18.6151 4.94975 18.9479 5.16643 19.2976 5.51644C19.6477 5.86646 19.8643 6.1998 20.046 6.66649C20.1829 7.01858 20.346 7.54777 20.3904 8.52281C20.4383 9.57702 20.4487 9.8937 20.4487 12.5625C20.4487 15.2314 20.4383 15.5481 20.3904 16.6023C20.3458 17.5773 20.1829 18.1065 20.046 18.4586C19.8647 18.9253 19.6477 19.2576 19.2976 19.6074C18.9476 19.9574 18.6154 20.1741 18.1485 20.3554C17.7964 20.4929 17.2668 20.6554 16.2918 20.6999C15.2376 20.7479 14.9209 20.7583 12.2509 20.7583C9.58069 20.7583 9.26423 20.7479 8.21005 20.6999C7.23504 20.6549 6.70587 20.492 6.35316 20.3551C5.88649 20.1739 5.55315 19.9572 5.20315 19.6072C4.85315 19.2572 4.63648 18.9247 4.45481 18.4578C4.31793 18.1057 4.15481 17.5765 4.11043 16.6015C4.06252 15.5472 4.05293 15.2306 4.05293 12.5601C4.05293 9.88953 4.06252 9.57452 4.11043 8.52031C4.15502 7.54527 4.31793 7.01608 4.45481 6.66357C4.63606 6.19689 4.85315 5.86354 5.20315 5.51353C5.55315 5.16351 5.88649 4.94684 6.35316 4.76516C6.70566 4.62766 7.23504 4.46515 8.21005 4.42036C9.13256 4.37869 9.49006 4.36619 11.3538 4.36411V4.36661ZM17.5889 6.02709C16.9264 6.02709 16.3889 6.56398 16.3889 7.22672C16.3889 7.88924 16.9264 8.42676 17.5889 8.42676C18.2514 8.42676 18.7889 7.88924 18.7889 7.22672C18.7889 6.56419 18.2514 6.02667 17.5889 6.02667V6.02709ZM12.2509 7.42923C9.41485 7.42923 7.11546 9.72869 7.11546 12.5648C7.11546 15.401 9.41485 17.6994 12.2509 17.6994C15.087 17.6994 17.3855 15.401 17.3855 12.5648C17.3855 9.72869 15.0868 7.42923 12.2507 7.42923H12.2509ZM12.2509 9.23138C14.0918 9.23138 15.5843 10.7237 15.5843 12.5648C15.5843 14.4057 14.0918 15.8983 12.2509 15.8983C10.4099 15.8983 8.91756 14.4057 8.91756 12.5648C8.91756 10.7237 10.4099 9.23138 12.2509 9.23138Z" fill="url(#paint0_radial_1615_64529)"/>
<path d="M12.251 2.56445C9.53512 2.56445 9.19429 2.57633 8.12761 2.62487C7.06302 2.67362 6.33635 2.84217 5.70051 3.08947C5.04279 3.3449 4.48487 3.68658 3.92903 4.24264C3.37278 4.7985 3.03111 5.35644 2.77486 6.01396C2.52694 6.65003 2.35819 7.37693 2.31027 8.44114C2.26256 9.50785 2.25006 9.8489 2.25006 12.5648C2.25006 15.2808 2.26214 15.6206 2.31048 16.6873C2.35944 17.7519 2.52798 18.4786 2.77507 19.1145C3.03069 19.7722 3.37236 20.3301 3.92841 20.886C4.48404 21.4423 5.04196 21.7848 5.69926 22.0402C6.33551 22.2875 7.06239 22.4561 8.12678 22.5048C9.19345 22.5534 9.53408 22.5652 12.2497 22.5652C14.9658 22.5652 15.3056 22.5534 16.3723 22.5048C17.4369 22.4561 18.1644 22.2875 18.8006 22.0402C19.4581 21.7848 20.0152 21.4423 20.5708 20.886C21.1271 20.3301 21.4688 19.7722 21.725 19.1147C21.9709 18.4786 22.1396 17.7517 22.1896 16.6875C22.2375 15.6208 22.25 15.2808 22.25 12.5648C22.25 9.8489 22.2375 9.50806 22.1896 8.44135C22.1396 7.37672 21.9709 6.65003 21.725 6.01417C21.4688 5.35644 21.1271 4.7985 20.5708 4.24264C20.0146 3.68637 19.4583 3.34469 18.8 3.08947C18.1625 2.84217 17.4354 2.67362 16.3708 2.62487C15.3041 2.57633 14.9645 2.56445 12.2479 2.56445H12.251ZM11.3539 4.36661C11.6201 4.36619 11.9172 4.36661 12.251 4.36661C14.921 4.36661 15.2375 4.37619 16.2919 4.42411C17.2669 4.46869 17.796 4.63162 18.1485 4.7685C18.6152 4.94975 18.9479 5.16643 19.2977 5.51644C19.6477 5.86646 19.8644 6.1998 20.046 6.66649C20.1829 7.01858 20.3461 7.54777 20.3904 8.52281C20.4383 9.57702 20.4488 9.8937 20.4488 12.5625C20.4488 15.2314 20.4383 15.5481 20.3904 16.6023C20.3458 17.5773 20.1829 18.1065 20.046 18.4586C19.8648 18.9253 19.6477 19.2576 19.2977 19.6074C18.9477 19.9574 18.6154 20.1741 18.1485 20.3554C17.7964 20.4929 17.2669 20.6554 16.2919 20.6999C15.2377 20.7479 14.921 20.7583 12.251 20.7583C9.58075 20.7583 9.26429 20.7479 8.21011 20.6999C7.23511 20.6549 6.70593 20.492 6.35322 20.3551C5.88655 20.1739 5.55321 19.9572 5.20321 19.6072C4.85321 19.2572 4.63654 18.9247 4.45487 18.4578C4.318 18.1057 4.15487 17.5765 4.11049 16.6015C4.06258 15.5472 4.05299 15.2306 4.05299 12.5601C4.05299 9.88953 4.06258 9.57452 4.11049 8.52031C4.15508 7.54527 4.318 7.01608 4.45487 6.66357C4.63612 6.19689 4.85321 5.86354 5.20321 5.51353C5.55321 5.16351 5.88655 4.94684 6.35322 4.76516C6.70572 4.62766 7.23511 4.46515 8.21011 4.42036C9.13262 4.37869 9.49012 4.36619 11.3539 4.36411V4.36661ZM17.5889 6.02709C16.9264 6.02709 16.3889 6.56398 16.3889 7.22672C16.3889 7.88924 16.9264 8.42676 17.5889 8.42676C18.2514 8.42676 18.789 7.88924 18.789 7.22672C18.789 6.56419 18.2514 6.02667 17.5889 6.02667V6.02709ZM12.251 7.42923C9.41491 7.42923 7.11552 9.72869 7.11552 12.5648C7.11552 15.401 9.41491 17.6994 12.251 17.6994C15.087 17.6994 17.3856 15.401 17.3856 12.5648C17.3856 9.72869 15.0868 7.42923 12.2508 7.42923H12.251ZM12.251 9.23138C14.0918 9.23138 15.5843 10.7237 15.5843 12.5648C15.5843 14.4057 14.0918 15.8983 12.251 15.8983C10.4099 15.8983 8.91762 14.4057 8.91762 12.5648C8.91762 10.7237 10.4099 9.23138 12.251 9.23138Z" fill="url(#paint1_radial_1615_64529)"/>
<defs>
<radialGradient id="paint0_radial_1615_64529" cx="0" cy="0" r="1" gradientUnits="userSpaceOnUse" gradientTransform="translate(7.56252 24.1057) rotate(-90) scale(19.8222 18.4355)">
<stop stop-color="#FFDD55"/>
<stop offset="0.1" stop-color="#FFDD55"/>
<stop offset="0.5" stop-color="#FF543E"/>
<stop offset="1" stop-color="#C837AB"/>
</radialGradient>
<radialGradient id="paint1_radial_1615_64529" cx="0" cy="0" r="1" gradientUnits="userSpaceOnUse" gradientTransform="translate(-1.10004 4.00528) rotate(78.6811) scale(8.86061 36.5225)">
<stop stop-color="#3771C8"/>
<stop offset="0.128" stop-color="#3771C8"/>
<stop offset="1" stop-color="#6600FF" stop-opacity="0"/>
</radialGradient>
</defs>
</svg>
