<svg width="24" height="25" viewBox="0 0 24 25" fill="none" xmlns="http://www.w3.org/2000/svg">
<path d="M6.89014 18.3569L9.19014 20.6569" stroke="#6200EE" stroke-width="1.5" stroke-miterlimit="10" stroke-linecap="round" stroke-linejoin="round"/>
<path d="M14.5 11.8667C15.3284 11.8667 16 11.1951 16 10.3667C16 9.53827 15.3284 8.8667 14.5 8.8667C13.6716 8.8667 13 9.53827 13 10.3667C13 11.1951 13.6716 11.8667 14.5 11.8667Z" stroke="#6200EE" stroke-width="1.5" stroke-linecap="round" stroke-linejoin="round"/>
<path d="M19.7901 15.7965C17.7301 17.8465 14.7801 18.4765 12.1901 17.6665L7.48015 22.3665C7.14015 22.7165 6.47015 22.9265 5.99015 22.8565L3.81015 22.5565C3.09015 22.4565 2.42015 21.7765 2.31015 21.0565L2.01015 18.8765C1.94015 18.3965 2.17015 17.7265 2.50015 17.3865L7.20015 12.6865C6.40015 10.0865 7.02015 7.13652 9.08015 5.08652C12.0301 2.13652 16.8201 2.13652 19.7801 5.08652C22.7401 8.03652 22.7401 12.8465 19.7901 15.7965Z" stroke="#141414" stroke-width="1.5" stroke-miterlimit="10" stroke-linecap="round" stroke-linejoin="round"/>
</svg>
