<svg width="24" height="25" viewBox="0 0 24 25" fill="none" xmlns="http://www.w3.org/2000/svg">
<path d="M15 10.8672L13.7071 12.1601C13.3166 12.5506 13.3166 13.1838 13.7071 13.5743L15 14.8672M14 12.8672L22 12.8672M6 20.8672C3.79086 20.8672 2 19.0763 2 16.8672V8.86719C2 6.65805 3.79086 4.86719 6 4.86719M6 20.8672C8.20914 20.8672 10 19.0763 10 16.8672V8.86719C10 6.65805 8.20914 4.86719 6 4.86719M6 20.8672H14C16.2091 20.8672 18 19.0763 18 16.8672M6 4.86719H14C16.2091 4.86719 18 6.65805 18 8.86719" stroke="#FF170A" stroke-width="1.5" stroke-linecap="round"/>
</svg>
