<svg width="19" height="18" viewBox="0 0 19 18" fill="none" xmlns="http://www.w3.org/2000/svg">
<path d="M13.1514 1.82227H5.65137C3.40137 1.82227 1.90137 3.32227 1.90137 5.57227V10.0723C1.90137 12.3223 3.40137 13.8223 5.65137 13.8223V15.4198C5.65137 16.0198 6.31887 16.3798 6.81387 16.0423L10.1514 13.8223H13.1514C15.4014 13.8223 16.9014 12.3223 16.9014 10.0723V5.57227C16.9014 3.32227 15.4014 1.82227 13.1514 1.82227ZM9.40137 10.9498C9.08637 10.9498 8.83887 10.6948 8.83887 10.3873C8.83887 10.0798 9.08637 9.82477 9.40137 9.82477C9.71637 9.82477 9.96387 10.0798 9.96387 10.3873C9.96387 10.6948 9.71637 10.9498 9.40137 10.9498ZM10.3464 7.83727C10.0539 8.03227 9.96387 8.15977 9.96387 8.36977V8.52727C9.96387 8.83477 9.70887 9.08977 9.40137 9.08977C9.09387 9.08977 8.83887 8.83477 8.83887 8.52727V8.36977C8.83887 7.49977 9.47637 7.07227 9.71637 6.90727C9.99387 6.71977 10.0839 6.59227 10.0839 6.39727C10.0839 6.02227 9.77637 5.71477 9.40137 5.71477C9.02637 5.71477 8.71887 6.02227 8.71887 6.39727C8.71887 6.70477 8.46387 6.95977 8.15637 6.95977C7.84887 6.95977 7.59387 6.70477 7.59387 6.39727C7.59387 5.39977 8.40387 4.58977 9.40137 4.58977C10.3989 4.58977 11.2089 5.39977 11.2089 6.39727C11.2089 7.25226 10.5789 7.67977 10.3464 7.83727Z" fill="#6200EE"/>
</svg>
