<svg width="281" height="331" viewBox="0 0 281 331" fill="none" xmlns="http://www.w3.org/2000/svg">
<path d="M72.0753 72.172H35.1955C33.0428 72.172 31.0686 71.405 29.5498 70.1322C27.6593 68.5581 26.4658 66.2134 26.4658 63.5929C26.4658 61.2244 27.4436 59.0786 29.0237 57.5264C30.6039 55.9742 32.7881 55.0137 35.1955 55.0137H72.0753C74.4845 55.0137 76.6688 55.9742 78.2489 57.5264C79.829 59.0786 80.8031 61.2244 80.8031 63.5929C80.8031 65.9613 79.829 68.1071 78.2489 69.6593C76.6688 71.2115 74.4845 72.172 72.0753 72.172Z" fill="#D9E2F2"/>
<path d="M63.6877 57.7867C63.6877 64.967 57.7707 70.7851 50.4613 70.7851C43.15 70.7851 37.2236 64.967 37.2236 57.7867C37.2236 50.6081 43.15 44.79 50.4613 44.79C57.7707 44.79 63.6877 50.6081 63.6877 57.7867Z" fill="#D9E2F2"/>
<path d="M83.0825 115.796C83.0825 115.796 79.2103 112.582 78.9222 112.789C78.6359 112.995 79.0839 114.818 79.0839 114.818C79.0839 114.818 76.4665 112.891 75.3455 113.97C74.2134 115.051 77.567 122.246 80.8573 123.119L83.0825 115.796Z" fill="#F7AAA0"/>
<path d="M214.609 112.09C214.609 112.09 218.481 108.877 218.767 109.084C219.063 109.288 218.613 111.114 218.613 111.114C218.613 111.114 221.23 109.186 222.353 110.265C223.484 111.345 220.13 118.543 216.84 119.416L214.609 112.09Z" fill="#F7AAA0"/>
<path fill-rule="evenodd" clip-rule="evenodd" d="M219.518 118.361L214.601 111.296C206.011 116.13 193.9 116.378 179.138 112.41C168.326 109.506 160.775 106.34 148.694 106.34C136.603 106.34 124.73 114.736 118.715 116.353C103.953 120.321 91.8323 120.072 83.2513 115.237L78.3325 122.304C78.3325 122.304 98.4687 138.989 128.247 134.506C127.511 144.322 125.862 159.332 126.374 161.646C127.565 167.083 169.063 167.327 171.068 161.139C171.665 159.323 168.877 140.286 168.458 130.385C198.864 135.479 219.518 118.361 219.518 118.361Z" fill="url(#paint0_linear_1533_8306)"/>
<path d="M159.645 97.125L159.746 103.244L158.809 103.215C158.809 103.215 158.065 108.279 154.423 107.481C153.379 107.251 152.048 106.382 151.661 106.553C151.202 106.762 151.01 108.148 150.903 108.548C150.507 110.08 145.045 108.533 145.928 106.961C146.774 105.469 148.029 103.433 147.757 102.866C146.835 100.894 146.571 95.9947 151.59 94.3584C155.587 93.0528 159.606 95.0286 159.645 97.125Z" fill="#F7AAA0"/>
<path d="M145.928 106.96C146.774 105.468 148.029 103.432 147.757 102.866C147.757 102.866 149.871 106.051 151.815 106.533L151.823 106.537L151.661 106.553C151.202 106.761 151.01 108.147 150.903 108.547C150.507 110.079 145.045 108.533 145.928 106.96Z" fill="#F69F94"/>
<path d="M151.226 100.125C148.88 99.7305 150.336 104.867 147.748 104.696C145.162 104.524 143.366 98.9745 145.263 94.6922C147.161 90.4136 150.771 90.651 154.208 91.2335C157.647 91.8179 161.859 93.3463 161.859 95.8993C161.852 102.048 154.448 96.8909 153.953 98.7389C153.581 100.169 152.992 104.301 154.502 104.398C156.013 104.493 157.547 103.271 158.738 103.584C159.428 103.764 161.318 111.827 156.377 112.095C151.498 112.364 150.265 108.129 151.289 104.672C152.273 101.385 152.371 100.317 151.226 100.125Z" fill="#35436F"/>
<path d="M101.754 190.501C93.5057 190.501 84.0733 186.085 76.513 178.691C68.9321 171.275 64.4019 161.98 64.4019 153.826C64.4093 148.825 68.5064 145.611 72.479 142.503C76.4293 139.411 80.1528 136.491 80.348 131.962C80.4632 129.327 79.3646 127.581 78.1953 125.731C76.9164 123.703 75.6002 121.604 75.8623 118.387C76.3345 112.726 81.5006 107.512 91.2136 102.888C91.7081 102.653 92.3048 102.855 92.5446 103.341C92.7844 103.827 92.5762 104.411 92.0799 104.649C83.0416 108.949 78.2567 113.624 77.8458 118.546C77.6358 121.122 78.6824 122.782 79.8907 124.703C81.099 126.628 82.4765 128.81 82.3371 132.044C82.1047 137.464 77.8384 140.802 73.7171 144.033C69.9527 146.982 66.4002 149.767 66.4002 153.826C66.3909 161.473 70.6963 170.249 77.9165 177.305C85.1106 184.343 94.0169 188.545 101.754 188.545C102.304 188.545 102.745 188.981 102.745 189.524C102.745 190.062 102.304 190.501 101.754 190.501Z" fill="url(#paint1_linear_1533_8306)"/>
<path d="M97.0208 109.634C93.249 110.477 89.4939 108.158 88.635 104.451C87.7743 100.748 90.1352 97.0588 93.9089 96.2152C97.6807 95.3715 101.436 97.6925 102.297 101.396C103.155 105.103 100.794 108.792 97.0208 109.634Z" fill="#C3B1FF"/>
<path d="M104.798 109.793C103.309 110.127 101.211 106.584 100.127 101.882C99.0357 97.1816 99.361 93.0983 100.854 92.766C102.341 92.4318 104.434 95.9708 105.525 100.675C106.617 105.377 106.291 109.459 104.798 109.793Z" fill="#8C70ED"/>
<path d="M94.9687 103.721L94.6676 102.419C93.6674 98.0925 96.4484 93.7499 100.854 92.7656L104.799 109.793C100.399 110.777 95.9763 108.045 94.9687 103.721Z" fill="#8C70ED"/>
<path d="M104.394 108.053C103.21 108.317 101.546 105.502 100.678 101.76C99.8095 98.0198 100.066 94.7693 101.258 94.5045C102.444 94.2397 104.107 97.0575 104.976 100.799C105.844 104.539 105.58 107.788 104.394 108.053Z" fill="#714EE7"/>
<path d="M102.473 99.3548C102.273 99.3987 101.986 98.9184 101.839 98.2811C101.691 97.6437 101.732 97.0904 101.94 97.0448C102.141 97.0009 102.419 97.4812 102.566 98.1167C102.722 98.754 102.676 99.3074 102.473 99.3548Z" fill="#34246B"/>
<path d="M103.891 105.474C103.689 105.518 103.402 105.038 103.255 104.4C103.109 103.763 103.155 103.21 103.356 103.164C103.557 103.12 103.845 103.599 103.992 104.238C104.138 104.873 104.092 105.427 103.891 105.474Z" fill="#34246B"/>
<path d="M192.039 187.502C191.513 187.502 191.073 187.101 191.049 186.58C191.011 186.041 191.437 185.579 191.986 185.548C240.631 182.809 248.879 154.488 250.249 145.872C252.171 133.803 247.81 122.132 240.328 119.303C238.03 118.434 236.024 119.526 233.699 120.792C231.516 121.981 229.271 123.21 226.605 122.74C221.199 121.789 217.119 114.913 214.12 101.718C214.005 101.192 214.338 100.67 214.88 100.551C215.414 100.43 215.949 100.766 216.065 101.292C218.831 113.46 222.493 120.03 226.962 120.817C228.914 121.161 230.771 120.153 232.732 119.083C235.141 117.77 237.874 116.279 241.042 117.477C249.507 120.677 254.316 133.014 252.218 146.173C250.792 155.156 242.235 184.679 192.095 187.5L192.039 187.502Z" fill="url(#paint2_linear_1533_8306)"/>
<path d="M220.255 99.1866C218.728 102.877 214.44 104.65 210.681 103.148C207.467 101.86 205.678 98.5858 206.197 95.3554C206.285 94.813 218.474 91.0585 219.24 92.0172C220.805 93.9876 221.284 96.7049 220.255 99.1866Z" fill="#8C70ED"/>
<path d="M214.639 85.4794C215.145 85.3461 215.663 85.6401 215.795 86.135L217.706 93.0925C217.838 93.5856 217.544 94.0987 217.041 94.232C216.537 94.3653 216.011 94.0695 215.879 93.5746L213.966 86.6189C213.834 86.124 214.137 85.6127 214.639 85.4794Z" fill="#34246B"/>
<path d="M207.043 87.4917C207.545 87.3566 208.064 87.6524 208.205 88.1455L210.108 95.103C210.248 95.5961 209.947 96.1092 209.443 96.2426C208.941 96.3759 208.42 96.08 208.281 95.587L206.376 88.6312C206.238 88.1364 206.539 87.6232 207.043 87.4917Z" fill="#34246B"/>
<path d="M217.173 96.9876L210.635 98.6585C207.592 99.4364 204.455 97.6285 203.665 94.641C203.465 93.8904 203.929 93.1161 204.695 92.9207L219.511 89.1352C220.277 88.9398 221.069 89.3945 221.26 90.145C222.052 93.1326 220.216 96.2114 217.173 96.9876Z" fill="#C3B1FF"/>
<path d="M202.89 330.323H90.3696V169.634C90.3696 157.698 100.22 148.021 112.37 148.021H180.89C193.04 148.021 202.89 157.698 202.89 169.634V330.323Z" fill="#FEFEFE"/>
<path d="M202.89 326.462C201.791 326.462 200.901 325.586 200.901 324.506V166.544C200.901 157.408 193.333 149.979 184.032 149.979H109.226C99.9257 149.979 92.3579 157.408 92.3579 166.544V317.609C92.3579 318.69 91.4694 319.565 90.3689 319.565C89.2684 319.565 88.3779 318.69 88.3779 317.609V166.544C88.3779 155.253 97.734 146.067 109.226 146.067H184.032C195.534 146.067 204.882 155.253 204.882 166.544V324.506C204.882 325.586 203.99 326.462 202.89 326.462Z" fill="#DFE9F3"/>
<path d="M109.909 163.103C109.909 165.102 108.258 166.724 106.222 166.724C104.185 166.724 102.536 165.102 102.536 163.103C102.536 161.103 104.185 159.481 106.222 159.481C108.258 159.481 109.909 161.103 109.909 163.103Z" fill="#DFE9F3"/>
<path d="M103.798 225.688H243.395C244.099 225.688 244.735 225.376 245.153 224.883C245.488 224.492 245.689 223.986 245.689 223.437V198.433C245.689 197.884 245.488 197.378 245.153 196.987C244.735 196.494 244.099 196.182 243.395 196.182H103.798C103.278 196.182 102.798 196.351 102.412 196.64C101.861 197.051 101.504 197.701 101.504 198.433V223.437C101.504 224.019 101.731 224.551 102.101 224.951C102.519 225.403 103.124 225.688 103.798 225.688Z" fill="#FEFEFE"/>
<path d="M222.175 219.967H238.084C238.439 219.967 238.772 219.823 239.004 219.591C239.246 219.359 239.391 219.036 239.391 218.68V203.055C239.391 202.798 239.314 202.557 239.183 202.356C238.95 202.003 238.539 201.77 238.084 201.77H222.175C221.857 201.77 221.563 201.883 221.331 202.071C221.045 202.308 220.866 202.663 220.866 203.055V218.68C220.866 219.036 221.015 219.359 221.247 219.591C221.485 219.823 221.811 219.967 222.175 219.967Z" fill="#D2DBEC"/>
<path d="M119.97 205.886H209.064C209.646 205.886 210.172 205.656 210.551 205.283C210.93 204.91 211.163 204.396 211.163 203.828C211.163 203.278 210.945 202.779 210.588 202.411C210.203 202.014 209.668 201.77 209.064 201.77H119.97C119.388 201.77 118.869 202 118.49 202.372C118.111 202.745 117.878 203.26 117.878 203.828C117.878 204.233 117.994 204.609 118.204 204.929C118.576 205.504 119.226 205.886 119.97 205.886Z" fill="#D2DBEC"/>
<path d="M119.97 213.556H209.064C209.746 213.556 210.35 213.24 210.73 212.75C210.999 212.403 211.163 211.969 211.163 211.498C211.163 211.092 211.046 210.712 210.837 210.396C210.466 209.821 209.815 209.439 209.064 209.439H119.97C119.403 209.439 118.884 209.662 118.505 210.026C118.118 210.398 117.878 210.92 117.878 211.498C117.878 212.067 118.111 212.582 118.49 212.953C118.869 213.327 119.388 213.556 119.97 213.556Z" fill="#D2DBEC"/>
<path d="M184.97 267.803H45.3717C44.6671 267.803 44.0407 267.49 43.615 266.999C43.2822 266.605 43.0796 266.101 43.0796 265.551V240.548C43.0796 239.996 43.2822 239.492 43.615 239.101C44.0332 238.608 44.6671 238.296 45.3717 238.296H184.97C185.489 238.296 185.97 238.466 186.357 238.752C186.907 239.165 187.262 239.815 187.262 240.548V265.551C187.262 266.132 187.039 266.663 186.667 267.063C186.247 267.518 185.643 267.803 184.97 267.803Z" fill="#FEFEFE"/>
<path d="M66.5931 262.081H50.6916C50.3291 262.081 50.0038 261.937 49.7621 261.705C49.5223 261.471 49.3755 261.15 49.3755 260.794V245.169C49.3755 244.912 49.4536 244.671 49.593 244.468C49.8254 244.116 50.2269 243.882 50.6916 243.882H66.5931C66.9185 243.882 67.2122 243.997 67.4371 244.185C67.7234 244.421 67.9019 244.775 67.9019 245.169V260.794C67.9019 261.15 67.755 261.471 67.5226 261.705C67.2828 261.937 66.9556 262.081 66.5931 262.081Z" fill="#D2DBEC"/>
<path d="M168.799 248H79.7047C79.1229 248 78.6042 247.768 78.225 247.395C77.8458 247.025 77.606 246.51 77.606 245.94C77.606 245.392 77.8309 244.894 78.186 244.525C78.567 244.128 79.108 243.882 79.7047 243.882H168.799C169.381 243.882 169.899 244.114 170.279 244.486C170.658 244.857 170.898 245.372 170.898 245.94C170.898 246.345 170.775 246.723 170.572 247.043C170.201 247.616 169.543 248 168.799 248Z" fill="#D2DBEC"/>
<path d="M140.331 255.67H79.7047C79.0225 255.67 78.4276 255.354 78.0391 254.864C77.7677 254.518 77.606 254.083 77.606 253.612C77.606 253.206 77.7305 252.828 77.9313 252.509C78.3031 251.935 78.9611 251.554 79.7047 251.554H140.331C140.894 251.554 141.415 251.776 141.794 252.14C142.181 252.512 142.42 253.033 142.42 253.612C142.42 254.18 142.188 254.695 141.809 255.067C141.43 255.44 140.911 255.67 140.331 255.67Z" fill="#D2DBEC"/>
<path d="M162.28 48.9762H155.662L158.962 39.9512L148.88 53.7728H155.499L152.199 62.7979L162.28 48.9762Z" fill="#BBBBD6"/>
<path d="M147.8 66.4212H144.195L145.993 72.4512L140.5 63.2165H144.106L142.308 57.1865L147.8 66.4212Z" fill="#BBBBD6"/>
<defs>
<linearGradient id="paint0_linear_1533_8306" x1="78.3325" y1="135.282" x2="219.52" y2="135.282" gradientUnits="userSpaceOnUse">
<stop stop-color="#9C89DB"/>
<stop offset="0.960784" stop-color="#7C56FE"/>
<stop offset="1" stop-color="#7C56FE"/>
</linearGradient>
<linearGradient id="paint1_linear_1533_8306" x1="83.5733" y1="102.79" x2="83.5733" y2="190.501" gradientUnits="userSpaceOnUse">
<stop stop-color="#8869F2"/>
<stop offset="1" stop-color="#0A0321"/>
</linearGradient>
<linearGradient id="paint2_linear_1533_8306" x1="221.877" y1="100.526" x2="221.877" y2="187.502" gradientUnits="userSpaceOnUse">
<stop stop-color="#8869F2"/>
<stop offset="1" stop-color="#0A0321"/>
</linearGradient>
</defs>
</svg>
