<svg width="24" height="25" viewBox="0 0 24 25" fill="none" xmlns="http://www.w3.org/2000/svg">
<path d="M8 8.25781C8 6.04867 9.79086 4.25781 12 4.25781C14.2091 4.25781 16 6.04867 16 8.25781" stroke="#4B199C" stroke-width="1.5" stroke-linecap="round"/>
<path d="M4 12.8672C4 10.658 5.79086 8.86719 8 8.86719C11.1242 8.86719 16 8.86719 16 8.86719C16 8.86719 16 8.86719 16 8.86719C18.2091 8.86719 20 10.658 20 12.8672V18.8672C20 21.0763 18.2091 22.8672 16 22.8672H8C5.79086 22.8672 4 21.0763 4 18.8672V12.8672Z" stroke="#080808" stroke-width="1.5" stroke-linecap="round"/>
<path d="M12 18.0088V14.8105" stroke="#4B199C" stroke-width="1.5" stroke-linecap="round"/>
</svg>
