<svg width="24" height="25" viewBox="0 0 24 25" fill="none" xmlns="http://www.w3.org/2000/svg">
<path d="M12.1601 11.7367C12.0601 11.7267 11.9401 11.7267 11.8301 11.7367C9.45006 11.6567 7.56006 9.7067 7.56006 7.3067C7.56006 4.8567 9.54006 2.8667 12.0001 2.8667C14.4501 2.8667 16.4401 4.8567 16.4401 7.3067C16.4301 9.7067 14.5401 11.6567 12.1601 11.7367Z" stroke="#6200EE" stroke-width="1.5" stroke-linecap="round" stroke-linejoin="round"/>
<path d="M7.16021 15.4267C4.74021 17.0467 4.74021 19.6867 7.16021 21.2967C9.91021 23.1367 14.4202 23.1367 17.1702 21.2967C19.5902 19.6767 19.5902 17.0367 17.1702 15.4267C14.4302 13.5967 9.92021 13.5967 7.16021 15.4267Z" stroke="#292D32" stroke-width="1.5" stroke-linecap="round" stroke-linejoin="round"/>
</svg>
