<svg width="76" height="15" viewBox="0 0 76 15" fill="none" xmlns="http://www.w3.org/2000/svg">
<path fill-rule="evenodd" clip-rule="evenodd" d="M9.28572 1.05134C8.24629 1.45449 8.41086 3.27561 9.524 3.69041C10.7154 4.13404 11.5977 3.32885 11.3394 2.03399C11.1251 0.963168 10.4029 0.617687 9.28572 1.05134ZM13.8091 7.11527C14.088 14.4302 14.2023 14.545 21.2194 14.545C25.74 14.545 26.3063 14.4264 27.1103 13.3123C28.4269 11.4884 28.28 7.05316 26.8571 5.67235C25.9177 4.76068 24.9526 4.56326 21.4286 4.56326H17.1429V2.89963C17.1429 1.40736 16.9594 1.236 15.364 1.236H13.5846L13.8091 7.11527ZM30.2857 7.01933C30.2857 14.4402 30.3806 14.545 37.0949 14.545C43.2663 14.545 44 14.0044 44 9.45766C44 5.20209 43.1554 4.56326 37.5263 4.56326H33.1429V2.89963C33.1429 1.49497 32.9206 1.236 31.7143 1.236H30.2857V7.01933ZM1.14286 5.67235C0.217714 6.57015 0 7.52064 0 10.6632C0 14.4147 0.0468572 14.545 1.40229 14.545C2.736 14.545 2.81314 14.362 2.97371 10.8019L3.14286 7.0587L5 6.88513C6.39429 6.75426 6.85714 6.44372 6.85714 5.63741C6.85714 4.09578 2.74171 4.12074 1.14286 5.67235ZM8.57143 9.55415C8.57143 14.5079 8.58229 14.545 10 14.545C11.4177 14.545 11.4286 14.5079 11.4286 9.55415C11.4286 4.60042 11.4177 4.56326 10 4.56326C8.58229 4.56326 8.57143 4.60042 8.57143 9.55415ZM47.1754 5.79601C45.8914 7.57498 45.988 12.4478 47.3309 13.6273C48.9126 15.0164 57.7366 14.9438 59.0543 13.5308C60.2857 12.2104 60.32 7.47128 59.1103 5.79601C58.3046 4.67916 57.7429 4.56326 53.1429 4.56326C48.5429 4.56326 47.9811 4.67916 47.1754 5.79601ZM63.2314 5.57752C62.5366 6.32283 62.2857 7.64597 62.2857 10.5684C62.2857 14.4208 62.3297 14.545 63.688 14.545C65.0217 14.545 65.0989 14.362 65.2594 10.8019L65.4286 7.0587L68.4749 6.88957C72.5177 6.66498 73.1429 7.25335 73.1429 11.2854C73.1429 14.3925 73.2097 14.545 74.5714 14.545C75.9594 14.545 76 14.4341 76 10.6632C76 5.20154 75.2623 4.56326 68.9457 4.56326C65.0514 4.56326 64.0034 4.74903 63.2314 5.57752ZM17.2543 9.41551L17.4286 12.0496L20.804 12.2187C24.4594 12.4012 25.1189 11.9914 25.1343 9.52642C25.1474 7.39032 24.1029 6.78143 20.4257 6.78143H17.08L17.2543 9.41551ZM33.2531 9.38945L33.4286 12.0496H37.1429H40.8571V9.55415V7.0587L36.9674 6.894L33.0783 6.72931L33.2531 9.38945ZM49.8177 7.26222C49.3451 7.5528 49.132 8.53323 49.2463 9.88798L49.4286 12.0496H53.1429H56.8571L57.0389 10.2113C57.1389 9.19979 56.9149 8.01474 56.5406 7.5772C55.7949 6.70546 51.0811 6.48475 49.8177 7.26222Z" fill="url(#paint0_linear_891_3498)"/>
<defs>
<linearGradient id="paint0_linear_891_3498" x1="0" y1="7.74995" x2="76" y2="7.74995" gradientUnits="userSpaceOnUse">
<stop stop-color="#3A228E"/>
<stop offset="1" stop-color="#A81DA6"/>
</linearGradient>
</defs>
</svg>
