<svg width="25" height="25" viewBox="0 0 25 25" fill="none" xmlns="http://www.w3.org/2000/svg">
<path d="M2.5 10.25C2.09 10.25 1.75 9.91 1.75 9.5V7C1.75 4.1 4.11 1.75 7 1.75H9.5C9.91 1.75 10.25 2.09 10.25 2.5C10.25 2.91 9.91 3.25 9.5 3.25H7C4.93 3.25 3.25 4.93 3.25 7V9.5C3.25 9.91 2.91 10.25 2.5 10.25Z" fill="#FF170A"/>
<path d="M22.5 10.25C22.09 10.25 21.75 9.91 21.75 9.5V7C21.75 4.93 20.07 3.25 18 3.25H15.5C15.09 3.25 14.75 2.91 14.75 2.5C14.75 2.09 15.09 1.75 15.5 1.75H18C20.89 1.75 23.25 4.1 23.25 7V9.5C23.25 9.91 22.91 10.25 22.5 10.25Z" fill="#FF170A"/>
<path d="M18 23.25H16.5C16.09 23.25 15.75 22.91 15.75 22.5C15.75 22.09 16.09 21.75 16.5 21.75H18C20.07 21.75 21.75 20.07 21.75 18V16.5C21.75 16.09 22.09 15.75 22.5 15.75C22.91 15.75 23.25 16.09 23.25 16.5V18C23.25 20.9 20.89 23.25 18 23.25Z" fill="#FF170A"/>
<path d="M9.5 23.25H7C4.11 23.25 1.75 20.9 1.75 18V15.5C1.75 15.09 2.09 14.75 2.5 14.75C2.91 14.75 3.25 15.09 3.25 15.5V18C3.25 20.07 4.93 21.75 7 21.75H9.5C9.91 21.75 10.25 22.09 10.25 22.5C10.25 22.91 9.91 23.25 9.5 23.25Z" fill="#FF170A"/>
<path d="M16.8584 11.1432C16.8076 10.8088 16.7 10.5593 16.5618 10.4596L16.4157 10.1783L16.2657 10.18C16.2657 10.1802 16.2657 10.1804 16.2657 10.1806C16.2676 10.3408 16.3464 10.4883 16.4735 10.5809L16.4741 10.5813C16.5124 10.6089 16.5601 10.6687 16.6052 10.773C16.6494 10.8749 16.6861 11.0077 16.7101 11.1656M16.8584 11.1432L16.7101 11.1656M16.8584 11.1432C16.8877 11.3377 17.0706 11.4679 17.262 11.4422L7.36649 12.3355L7.3263 12.1887L7.32263 12.1753L7.32326 12.1752C7.16332 11.2703 7.30127 10.4334 7.71464 9.95088C7.88676 7.42269 9.94566 5.46914 12.49 5.46914C15.0518 5.46914 17.111 7.41882 17.2668 9.94575C17.4952 10.205 17.6429 10.573 17.7087 11.016L17.7088 11.0166C17.7487 11.2922 17.5603 11.5479 17.2849 11.5905L17.2819 11.5909L17.2819 11.5909C17.0127 11.627 16.7521 11.4443 16.7101 11.1656M16.8584 11.1432L16.7101 11.1657C16.7101 11.1657 16.7101 11.1657 16.7101 11.1656M7.45837 12.6499C7.42678 12.5563 7.39577 12.4441 7.36657 12.3358L8.41625 12.3307M7.45837 12.6499C7.45833 12.6497 7.45828 12.6496 7.45824 12.6495L7.6006 12.6022L7.4585 12.6502C7.45845 12.6501 7.45841 12.65 7.45837 12.6499ZM7.45837 12.6499C7.52908 12.8623 7.7261 12.995 7.93753 12.995C7.98992 12.995 8.04386 12.9872 8.09825 12.9685L8.04943 12.8266L8.09658 12.969C8.36241 12.881 8.50378 12.5945 8.41625 12.3307M8.41625 12.3307L8.27384 12.3778L8.41619 12.3305C8.41621 12.3306 8.41623 12.3306 8.41625 12.3307ZM11.201 15.8412C11.3147 15.9268 11.3655 16.0724 11.3312 16.2106L9.62215 18.5164M11.201 15.8412L11.2915 15.7216M11.201 15.8412C10.5871 15.3765 10.0007 14.6329 9.54816 13.7481L6.93847 18.5749C6.93855 18.5749 6.93864 18.5748 6.93872 18.5748M11.201 15.8412L11.2912 15.7214C11.2913 15.7215 11.2914 15.7215 11.2915 15.7216M11.2915 15.7216C11.4537 15.8439 11.5253 16.051 11.4768 16.2466L11.4766 16.2476C11.441 16.3872 11.4242 16.5293 11.4044 16.7015L11.2554 16.6844L11.4045 16.701C11.2961 17.6783 10.6096 18.4506 9.65581 18.6626M11.2915 15.7216C10.7001 15.274 10.1268 14.5503 9.68171 13.6798L9.68166 13.6797C9.55426 13.4311 9.24848 13.3352 9.00257 13.4603L9.0022 13.4605C8.75407 13.5876 8.6561 13.892 8.78291 14.1404L8.78294 14.1405C9.23863 15.0321 9.80429 15.7826 10.434 16.3263C10.4216 16.4116 10.411 16.4988 10.4013 16.5905C10.3403 17.1352 9.9621 17.5599 9.42993 17.6784L9.42993 17.6784L9.42771 17.679C8.54425 17.8899 7.70668 18.1902 6.93872 18.5748M9.65581 18.6626C9.65619 18.6625 9.65657 18.6624 9.65695 18.6623L9.62215 18.5164M9.65581 18.6626C9.65541 18.6627 9.65501 18.6628 9.65461 18.6629L9.62215 18.5164M9.65581 18.6626C8.85194 18.8545 8.08804 19.1299 7.39118 19.4771M9.62215 18.5164C8.80704 18.7109 8.03169 18.9903 7.3236 19.3432M7.39118 19.4771C7.39144 19.4769 7.39169 19.4768 7.39195 19.4767L7.3236 19.3432M7.39118 19.4771C7.31736 19.5147 7.23954 19.5311 7.16462 19.5311C6.9796 19.5311 6.8017 19.4292 6.71303 19.2511C6.58881 19.0025 6.68927 18.6988 6.93872 18.5748M7.39118 19.4771C7.39095 19.4772 7.39073 19.4773 7.3905 19.4774L7.3236 19.3432M7.3236 19.3432C7.27224 19.3694 7.21782 19.3811 7.16462 19.3811C7.03437 19.3811 6.90963 19.3095 6.84726 19.1842L6.93872 18.5748M8.30834 11.9565L8.30611 11.9487L8.16194 11.9901L8.30969 11.9643C8.30923 11.9617 8.30878 11.9591 8.30834 11.9565ZM17.584 19.4753L17.5843 19.4755C17.6574 19.5128 17.7371 19.5311 17.8147 19.5311C17.9986 19.5311 18.1744 19.4311 18.2646 19.2577L18.2652 19.2565C18.3911 19.0089 18.294 18.7048 18.0461 18.577L18.046 18.5769C17.3046 18.1953 16.4725 17.8936 15.5676 17.6771L15.5676 17.6771L15.5651 17.6766C15.0348 17.5593 14.6562 17.1424 14.5778 16.5877L14.5494 16.3426C15.1568 15.8239 15.7295 15.0698 16.198 14.1764C16.7837 14.0355 17.276 13.4503 17.5425 12.6496L17.5426 12.6491C17.6295 12.3851 17.4866 12.0993 17.2235 12.0112C16.9583 11.9215 16.6725 12.0659 16.584 12.3302L16.584 12.3303C16.484 12.6295 16.347 12.8519 16.2134 12.9973C16.08 13.1425 15.9677 13.1929 15.9092 13.1979C15.7038 13.1785 15.5083 13.2989 15.4196 13.4788L15.4193 13.4792C14.9342 14.4712 14.3251 15.2634 13.7133 15.7184L13.7133 15.7184C13.5673 15.827 13.4909 16.0058 13.5127 16.1857L13.5762 16.7122L13.5762 16.7122L13.5766 16.7148C13.7114 17.6866 14.4041 18.4531 15.3381 18.6614C16.1621 18.8583 16.9176 19.1319 17.584 19.4753ZM17.8147 19.3811C17.7603 19.3811 17.7041 19.3682 17.6527 19.3419L15.5327 17.823C16.4273 18.037 17.2479 18.3348 17.9774 18.7103C18.1517 18.8002 18.2201 19.0142 18.1315 19.1884C18.0679 19.3107 17.9444 19.3811 17.8147 19.3811ZM8.56429 10.1814C8.56124 10.2878 8.51048 10.3868 8.42732 10.4523L8.56429 10.1814Z" fill="#FF170A" stroke="#FF170A" stroke-width="0.3"/>
<path d="M5.43131 12.9947H19.5693C19.8482 12.9947 20.0733 12.7682 20.0733 12.49C20.0733 12.2114 19.8483 11.9848 19.5693 11.9848H5.43131C5.15184 11.9848 4.92666 12.2113 4.92666 12.49C4.92666 12.7684 5.15202 12.9947 5.43131 12.9947Z" fill="#FF170A" stroke="#FF170A" stroke-width="0.3"/>
</svg>
