<svg width="275" height="49" viewBox="0 0 275 49" fill="none" xmlns="http://www.w3.org/2000/svg">
<g clip-path="url(#clip0_691_12081)">
<path d="M268.358 1.44482H7.44465C3.83089 1.44482 0.901367 4.36563 0.901367 7.96864V41.4032C0.901367 45.0062 3.83089 47.927 7.44465 47.927H268.358C271.972 47.927 274.901 45.0062 274.901 41.4032V7.96864C274.901 4.36563 271.972 1.44482 268.358 1.44482Z" fill="#FFD2CF"/>
<path d="M9.43389 15.4709C9.43389 15.0338 9.5484 14.6489 9.77741 14.3162C10.0064 13.977 10.3205 13.7127 10.7196 13.5236C11.1253 13.3278 11.5866 13.23 12.1036 13.23C12.627 13.23 13.0785 13.3213 13.458 13.504C13.8375 13.6866 14.1287 13.9443 14.3315 14.2771C14.5409 14.6098 14.6456 15.0045 14.6456 15.4611H13.0654C13.0654 15.2067 12.9771 15.0077 12.8004 14.8642C12.6237 14.7141 12.3849 14.6391 12.0839 14.6391C11.7633 14.6391 11.5048 14.7076 11.3085 14.8446C11.1188 14.9816 11.0239 15.1708 11.0239 15.4122C11.0239 15.634 11.0828 15.8036 11.2006 15.9211C11.3184 16.0385 11.5048 16.1233 11.76 16.1755L12.8495 16.4006C13.4973 16.531 13.9782 16.7594 14.2923 17.0856C14.6064 17.4052 14.7634 17.8521 14.7634 18.4262C14.7634 18.8894 14.6489 19.2971 14.4199 19.6494C14.1909 19.9952 13.867 20.2626 13.4482 20.4518C13.036 20.641 12.5518 20.7356 11.9956 20.7356C11.459 20.7356 10.9879 20.6443 10.5822 20.4616C10.1831 20.279 9.87229 20.0213 9.64982 19.6886C9.43389 19.3493 9.32593 18.9546 9.32593 18.5045H10.9061C10.9061 18.7654 11.001 18.9677 11.1908 19.1112C11.3805 19.2547 11.6521 19.3265 12.0054 19.3265C12.3653 19.3265 12.6499 19.2612 12.8593 19.1308C13.0687 18.9938 13.1734 18.8111 13.1734 18.5828C13.1734 18.3805 13.121 18.224 13.0163 18.1131C12.9182 18.0021 12.7481 17.9239 12.506 17.8782L11.3969 17.6531C10.7491 17.5226 10.2583 17.2747 9.92464 16.9094C9.59747 16.5441 9.43389 16.0646 9.43389 15.4709ZM18.1041 20.7356C17.6134 20.7356 17.175 20.6247 16.789 20.4029C16.4094 20.1811 16.1084 19.8777 15.886 19.4928C15.67 19.1014 15.5621 18.6545 15.5621 18.1522C15.5621 17.6433 15.6668 17.1965 15.8762 16.8116C16.0921 16.4201 16.3898 16.1135 16.7693 15.8917C17.1488 15.6699 17.584 15.559 18.0747 15.559C18.5916 15.559 19.0366 15.6666 19.4095 15.8819C19.7825 16.0907 20.0704 16.3908 20.2732 16.7822C20.4761 17.1671 20.5775 17.627 20.5775 18.162V18.5436L16.3571 18.5632L16.3767 17.6336H19.0758C19.0758 17.3726 18.9875 17.1671 18.8108 17.0171C18.6342 16.8605 18.3921 16.7822 18.0845 16.7822C17.8293 16.7822 17.6199 16.8311 17.4564 16.929C17.2993 17.0268 17.1815 17.1801 17.103 17.3889C17.0245 17.5911 16.9852 17.8521 16.9852 18.1718C16.9852 18.6284 17.0769 18.9677 17.2601 19.1895C17.4498 19.4048 17.741 19.5124 18.1336 19.5124C18.4215 19.5124 18.6603 19.4635 18.8501 19.3656C19.0398 19.2678 19.1609 19.1308 19.2132 18.9546H20.5971C20.5121 19.4961 20.2438 19.9299 19.7923 20.2561C19.3408 20.5758 18.7781 20.7356 18.1041 20.7356ZM21.1596 15.7156H24.536V16.9681H21.1596V15.7156ZM23.6035 20.6084H22.092V14.1988H23.6035V20.6084ZM31.464 15.7156H32.9755V20.6084H31.5523L31.4542 20.0604C31.3037 20.2626 31.0877 20.4257 30.8064 20.5497C30.5316 20.6736 30.2469 20.7356 29.9525 20.7356C29.3963 20.7356 28.9546 20.5627 28.6275 20.217C28.3068 19.8647 28.1465 19.3885 28.1465 18.7883V15.7156H29.658V18.2403C29.658 18.6382 29.73 18.9318 29.874 19.121C30.0179 19.3036 30.2437 19.395 30.5512 19.395C30.8784 19.395 31.1106 19.3069 31.2481 19.1308C31.392 18.9481 31.464 18.6578 31.464 18.2598V15.7156ZM34.306 22.957V15.7156H35.7291L35.8077 16.3125C35.9451 16.0841 36.1577 15.9015 36.4456 15.7645C36.7335 15.6275 37.0509 15.559 37.3977 15.559C37.8557 15.559 38.2581 15.6601 38.6049 15.8623C38.9517 16.0646 39.2233 16.3549 39.4195 16.7333C39.6158 17.1051 39.714 17.5553 39.714 18.0837C39.714 18.5991 39.6224 19.059 39.4392 19.4635C39.2625 19.8614 39.0008 20.1746 38.654 20.4029C38.3137 20.6312 37.8982 20.7454 37.4075 20.7454C37.0672 20.7454 36.7532 20.6867 36.4653 20.5693C36.1774 20.4518 35.9614 20.3018 35.8175 20.1191V22.957H34.306ZM35.8273 18.162C35.8273 18.4034 35.8764 18.6186 35.9745 18.8078C36.0792 18.9905 36.2199 19.134 36.3966 19.2384C36.5798 19.3363 36.7891 19.3852 37.0247 19.3852C37.2668 19.3852 37.4729 19.333 37.643 19.2286C37.8197 19.1242 37.9539 18.9807 38.0455 18.7981C38.1436 18.6154 38.1927 18.4034 38.1927 18.162C38.1927 17.9206 38.1436 17.7086 38.0455 17.5259C37.9539 17.3432 37.8197 17.1997 37.643 17.0953C37.4729 16.991 37.2668 16.9388 37.0247 16.9388C36.7891 16.9388 36.5798 16.991 36.3966 17.0953C36.2199 17.1932 36.0792 17.3335 35.9745 17.5161C35.8764 17.6988 35.8273 17.9141 35.8273 18.162ZM44.6735 15.7156L46.1163 19.943L45.3802 21.6848L43.054 15.7156H44.6735ZM43.1816 22.957V21.6946H44.0159C44.186 21.6946 44.3267 21.6718 44.4379 21.6261C44.5492 21.587 44.644 21.5185 44.7226 21.4206C44.8011 21.3228 44.8731 21.1858 44.9385 21.0096L46.9309 15.7156H48.5013L46.0083 21.6751C45.8055 22.1709 45.5568 22.5297 45.2624 22.7515C44.9745 22.9798 44.6146 23.094 44.1827 23.094C43.9995 23.094 43.8229 23.0809 43.6527 23.0548C43.4891 23.0353 43.3321 23.0026 43.1816 22.957ZM48.8059 18.1522C48.8059 17.6368 48.9204 17.1867 49.1494 16.8018C49.385 16.4103 49.7056 16.107 50.1113 15.8917C50.5235 15.6764 50.9913 15.5688 51.5148 15.5688C52.0383 15.5688 52.5028 15.6764 52.9085 15.8917C53.3142 16.107 53.6316 16.4103 53.8606 16.8018C54.0961 17.1867 54.2139 17.6368 54.2139 18.1522C54.2139 18.6676 54.0961 19.1177 53.8606 19.5026C53.6316 19.8875 53.3142 20.1876 52.9085 20.4029C52.5028 20.6182 52.0383 20.7258 51.5148 20.7258C50.9913 20.7258 50.5235 20.6182 50.1113 20.4029C49.7056 20.1876 49.385 19.8875 49.1494 19.5026C48.9204 19.1177 48.8059 18.6676 48.8059 18.1522ZM50.3272 18.1424C50.3272 18.3903 50.3763 18.6089 50.4744 18.7981C50.5791 18.9807 50.7198 19.1242 50.8965 19.2286C51.0731 19.3265 51.2793 19.3754 51.5148 19.3754C51.7504 19.3754 51.9565 19.3265 52.1331 19.2286C52.3098 19.1242 52.4472 18.9807 52.5454 18.7981C52.6435 18.6089 52.6926 18.3903 52.6926 18.1424C52.6926 17.8945 52.6435 17.6792 52.5454 17.4966C52.4472 17.3139 52.3098 17.1736 52.1331 17.0758C51.9565 16.9714 51.7504 16.9192 51.5148 16.9192C51.2793 16.9192 51.0731 16.9714 50.8965 17.0758C50.7198 17.1736 50.5791 17.3139 50.4744 17.4966C50.3763 17.6792 50.3272 17.8945 50.3272 18.1424ZM58.4301 15.7156H59.9416V20.6084H58.5184L58.4203 20.0604C58.2698 20.2626 58.0538 20.4257 57.7725 20.5497C57.4977 20.6736 57.213 20.7356 56.9186 20.7356C56.3624 20.7356 55.9207 20.5627 55.5936 20.217C55.2729 19.8647 55.1126 19.3885 55.1126 18.7883V15.7156H56.6241V18.2403C56.6241 18.6382 56.6961 18.9318 56.8401 19.121C56.984 19.3036 57.2098 19.395 57.5173 19.395C57.8445 19.395 58.0767 19.3069 58.2141 19.1308C58.3581 18.9481 58.4301 18.6578 58.4301 18.2598V15.7156ZM64.6484 15.7156V17.1345H64.1675C63.7356 17.1345 63.3954 17.2389 63.1467 17.4476C62.9046 17.6564 62.7836 18.0021 62.7836 18.4849V20.6084H61.2721V15.7253H62.6952L62.813 16.7724H62.6756C62.741 16.4462 62.8883 16.1787 63.1173 15.97C63.3528 15.7547 63.6702 15.6471 64.0693 15.6471C64.1609 15.6471 64.2525 15.6536 64.3441 15.6666C64.4423 15.6731 64.5437 15.6895 64.6484 15.7156ZM68.4029 22.957V15.7156H69.826L69.9045 16.3125C70.0419 16.0841 70.2546 15.9015 70.5425 15.7645C70.8304 15.6275 71.1478 15.559 71.4946 15.559C71.9526 15.559 72.355 15.6601 72.7018 15.8623C73.0486 16.0646 73.3201 16.3549 73.5164 16.7333C73.7127 17.1051 73.8109 17.5553 73.8109 18.0837C73.8109 18.5991 73.7193 19.059 73.5361 19.4635C73.3594 19.8614 73.0977 20.1746 72.7509 20.4029C72.4106 20.6312 71.9951 20.7454 71.5044 20.7454C71.1641 20.7454 70.85 20.6867 70.5621 20.5693C70.2742 20.4518 70.0583 20.3018 69.9144 20.1191V22.957H68.4029ZM69.9242 18.162C69.9242 18.4034 69.9732 18.6186 70.0714 18.8078C70.1761 18.9905 70.3168 19.134 70.4934 19.2384C70.6766 19.3363 70.886 19.3852 71.1216 19.3852C71.3637 19.3852 71.5698 19.333 71.7399 19.2286C71.9166 19.1242 72.0507 18.9807 72.1423 18.7981C72.2405 18.6154 72.2896 18.4034 72.2896 18.162C72.2896 17.9206 72.2405 17.7086 72.1423 17.5259C72.0507 17.3432 71.9166 17.1997 71.7399 17.0953C71.5698 16.991 71.3637 16.9388 71.1216 16.9388C70.886 16.9388 70.6766 16.991 70.4934 17.0953C70.3168 17.1932 70.1761 17.3335 70.0714 17.5161C69.9732 17.6988 69.9242 17.9141 69.9242 18.162ZM74.8773 20.6084V15.7156H76.3888V20.6084H74.8773ZM75.6232 14.9523C75.3811 14.9523 75.175 14.8707 75.0049 14.7076C74.8413 14.538 74.7595 14.3325 74.7595 14.0911C74.7595 13.8497 74.8413 13.6475 75.0049 13.4844C75.175 13.3213 75.3811 13.2398 75.6232 13.2398C75.8588 13.2398 76.0583 13.3213 76.2219 13.4844C76.392 13.6475 76.4771 13.8497 76.4771 14.0911C76.4771 14.3325 76.392 14.538 76.2219 14.7076C76.0583 14.8707 75.8588 14.9523 75.6232 14.9523ZM79.2305 20.6084H77.719V15.7156H79.1422L79.2403 16.2244C79.3908 16.0156 79.5969 15.8526 79.8587 15.7351C80.1269 15.6177 80.4214 15.559 80.742 15.559C81.3244 15.559 81.7759 15.7384 82.0965 16.0972C82.4236 16.4495 82.5872 16.9453 82.5872 17.5846V20.6084H81.0757V17.9467C81.0757 17.6401 80.9972 17.3954 80.8402 17.2128C80.6831 17.0236 80.4737 16.929 80.212 16.929C79.911 16.929 79.6722 17.0203 79.4955 17.203C79.3189 17.3791 79.2305 17.6205 79.2305 17.9271V20.6084Z" fill="#0A0A0A"/>
<path d="M14.9988 34.0475C14.9988 34.452 14.8909 34.8173 14.675 35.1435C14.4656 35.4697 14.1613 35.7274 13.7622 35.9166C13.363 36.1058 12.8788 36.2004 12.3096 36.2004C11.7403 36.2004 11.2495 36.1058 10.8373 35.9166C10.4316 35.7209 10.1143 35.4469 9.88527 35.0946C9.65626 34.7423 9.52539 34.3346 9.49268 33.8714H10.5919C10.6181 34.315 10.7719 34.6705 11.0532 34.938C11.3412 35.2055 11.7534 35.3392 12.2899 35.3392C12.5909 35.3392 12.8592 35.2936 13.0948 35.2022C13.3303 35.1109 13.5135 34.9804 13.6444 34.8108C13.7818 34.6412 13.8505 34.4357 13.8505 34.1943C13.8505 33.9007 13.7524 33.6724 13.5561 33.5093C13.3598 33.3462 13.0588 33.2223 12.6531 33.1374L11.6323 32.9417C11.3837 32.8895 11.1449 32.8178 10.9158 32.7264C10.6934 32.6351 10.4905 32.5177 10.3073 32.3742C10.1306 32.2241 9.98997 32.0414 9.88527 31.8262C9.78712 31.6043 9.73805 31.3467 9.73805 31.0531C9.73805 30.6551 9.84274 30.2996 10.0521 29.9864C10.2681 29.6733 10.5625 29.4287 10.9355 29.2525C11.315 29.0698 11.7501 28.9785 12.2409 28.9785C12.7316 28.9785 13.17 29.0731 13.5561 29.2623C13.9487 29.4515 14.2627 29.7157 14.4983 30.0549C14.7404 30.3942 14.8745 30.7987 14.9007 31.2684H13.8014C13.7818 30.9878 13.7033 30.7399 13.5659 30.5247C13.435 30.3094 13.2583 30.143 13.0359 30.0256C12.8134 29.9016 12.5517 29.8397 12.2507 29.8397C11.9497 29.8397 11.6945 29.8951 11.4851 30.006C11.2757 30.1104 11.1154 30.2507 11.0042 30.4268C10.8929 30.5964 10.8373 30.7823 10.8373 30.9846C10.8373 31.2064 10.8929 31.3858 11.0042 31.5228C11.122 31.6533 11.2757 31.7577 11.4655 31.8359C11.6552 31.9142 11.8581 31.9762 12.074 32.0219L13.1144 32.2274C13.7229 32.3513 14.1875 32.5536 14.5081 32.8341C14.8353 33.1146 14.9988 33.5191 14.9988 34.0475ZM18.4178 36.2102C17.9401 36.2102 17.5181 36.096 17.1517 35.8677C16.7918 35.6393 16.5072 35.3229 16.2978 34.9184C16.0949 34.5074 15.9935 34.0377 15.9935 33.5093C15.9935 32.9874 16.0982 32.5242 16.3076 32.1197C16.517 31.7153 16.8049 31.3988 17.1713 31.1705C17.5377 30.9357 17.9532 30.8182 18.4178 30.8182C18.8497 30.8182 19.2324 30.9096 19.5661 31.0922C19.9064 31.2684 20.1845 31.5228 20.4004 31.8555C20.6229 32.1817 20.7636 32.5699 20.8225 33.02H19.7821C19.7297 32.6025 19.5825 32.2763 19.3404 32.0414C19.0983 31.8066 18.794 31.6892 18.4276 31.6892C18.1397 31.6892 17.8911 31.7674 17.6817 31.924C17.4723 32.0741 17.3087 32.2828 17.1909 32.5503C17.0731 32.8178 17.0143 33.1374 17.0143 33.5093C17.0143 33.8746 17.0731 34.1943 17.1909 34.4683C17.3087 34.7423 17.4723 34.9543 17.6817 35.1044C17.8911 35.2544 18.1397 35.3294 18.4276 35.3294C18.8006 35.3294 19.1048 35.212 19.3404 34.9772C19.5825 34.7423 19.733 34.4161 19.7919 33.9986H20.8225C20.7701 34.4553 20.636 34.8499 20.42 35.1827C20.2041 35.5088 19.926 35.7633 19.5858 35.9459C19.2455 36.1221 18.8562 36.2102 18.4178 36.2102ZM24.1476 36.2004C23.7812 36.2004 23.4409 36.1351 23.1268 36.0047C22.8193 35.8677 22.551 35.6785 22.322 35.4371C22.093 35.1892 21.9131 34.9021 21.7822 34.5759C21.6579 34.2498 21.5957 33.8942 21.5957 33.5093C21.5957 33.1244 21.6579 32.7688 21.7822 32.4427C21.9131 32.1165 22.093 31.8327 22.322 31.5913C22.551 31.3434 22.8193 31.1542 23.1268 31.0237C23.4409 30.8867 23.7812 30.8182 24.1476 30.8182C24.5205 30.8182 24.8608 30.8867 25.1683 31.0237C25.4824 31.1542 25.7507 31.3434 25.9732 31.5913C26.2022 31.8327 26.3788 32.1165 26.5032 32.4427C26.634 32.7688 26.6995 33.1244 26.6995 33.5093C26.6995 33.8942 26.634 34.2498 26.5032 34.5759C26.3788 34.9021 26.2022 35.1892 25.9732 35.4371C25.7507 35.6785 25.4824 35.8677 25.1683 36.0047C24.8608 36.1351 24.5205 36.2004 24.1476 36.2004ZM24.1476 35.3294C24.4355 35.3294 24.6939 35.2577 24.923 35.1142C25.1585 34.9641 25.3417 34.7521 25.4726 34.4781C25.61 34.2041 25.6787 33.8812 25.6787 33.5093C25.6787 33.1309 25.61 32.808 25.4726 32.5405C25.3417 32.2665 25.1585 32.0578 24.923 31.9142C24.6939 31.7707 24.4355 31.6989 24.1476 31.6989C23.8662 31.6989 23.6078 31.7707 23.3722 31.9142C23.1432 32.0578 22.96 32.2665 22.8226 32.5405C22.6917 32.808 22.6263 33.1309 22.6263 33.5093C22.6263 33.8812 22.6917 34.2041 22.8226 34.4781C22.96 34.7521 23.1432 34.9641 23.3722 35.1142C23.6078 35.2577 23.8662 35.3294 24.1476 35.3294ZM28.8976 33.4506V36.1025H27.9063V30.9161H28.8289V32.0121C29.0121 31.6533 29.2836 31.3695 29.6435 31.1607C30.01 30.952 30.4058 30.8476 30.8311 30.8476V31.8751C30.4582 31.8555 30.1245 31.8979 29.83 32.0023C29.5421 32.1067 29.3131 32.2796 29.143 32.5209C28.9794 32.7558 28.8976 33.0657 28.8976 33.4506ZM33.9324 36.2004C33.4286 36.2004 32.9869 36.0895 32.6074 35.8677C32.2344 35.6393 31.9433 35.3197 31.7339 34.9087C31.5245 34.4977 31.4198 34.0214 31.4198 33.4799C31.4198 32.9646 31.5278 32.5079 31.7437 32.1099C31.9596 31.712 32.2541 31.3988 32.627 31.1705C33 30.9357 33.4253 30.8182 33.903 30.8182C34.2956 30.8182 34.6456 30.8933 34.9532 31.0433C35.2672 31.1868 35.5322 31.3923 35.7482 31.6598C35.9706 31.9208 36.1309 32.2306 36.2291 32.5894C36.3272 32.9417 36.3534 33.3299 36.3076 33.7539H31.9989V33.0983H35.2574C35.2378 32.6155 35.1037 32.2404 34.855 31.9729C34.6129 31.6989 34.289 31.5619 33.8833 31.5619C33.5889 31.5619 33.3304 31.6402 33.108 31.7968C32.892 31.9468 32.7219 32.1654 32.5976 32.4524C32.4798 32.733 32.4209 33.0755 32.4209 33.4799C32.4209 33.8844 32.4798 34.2334 32.5976 34.527C32.7154 34.8141 32.8855 35.0359 33.108 35.1924C33.3304 35.349 33.5987 35.4273 33.9128 35.4273C34.2857 35.4273 34.5933 35.3327 34.8354 35.1435C35.084 34.9543 35.2476 34.6901 35.3261 34.3509H36.3076C36.1833 34.925 35.9085 35.3784 35.4832 35.7111C35.0644 36.0373 34.5475 36.2004 33.9324 36.2004ZM42.8186 35.212H41.896V33.2255H39.9036V32.3644H41.896V30.3877H42.8186V32.3644H44.811V33.2255H42.8186V35.212ZM48.5814 36.1906C48.1234 36.1906 47.7177 36.109 47.3644 35.9459C47.011 35.7763 46.7362 35.5447 46.5399 35.2512C46.3436 34.9511 46.2422 34.6086 46.2357 34.2237H47.2073C47.227 34.5825 47.3611 34.8695 47.6097 35.0848C47.8584 35.2936 48.1823 35.3979 48.5814 35.3979C49.0002 35.3979 49.3274 35.2936 49.5629 35.0848C49.805 34.876 49.9261 34.5923 49.9261 34.2334C49.9261 33.8877 49.7919 33.6137 49.5237 33.4114C49.2554 33.2027 48.8922 33.0983 48.4342 33.0983H47.7472V32.3057H48.3851C48.6338 32.3057 48.8497 32.26 49.0329 32.1687C49.2227 32.0773 49.3666 31.9501 49.4648 31.787C49.5695 31.6239 49.6218 31.438 49.6218 31.2292C49.6218 30.9161 49.5204 30.6649 49.3175 30.4757C49.1147 30.28 48.8464 30.1822 48.5127 30.1822C48.1725 30.1822 47.8976 30.2833 47.6883 30.4855C47.4854 30.6812 47.3742 30.9487 47.3546 31.2879H46.3927C46.4058 30.9226 46.5039 30.5964 46.6871 30.3094C46.8769 30.0223 47.1354 29.7973 47.4625 29.6342C47.7897 29.4711 48.1528 29.3895 48.552 29.3895C48.9773 29.3895 49.347 29.4645 49.6611 29.6146C49.9751 29.7646 50.2172 29.9734 50.3874 30.2409C50.564 30.5018 50.6524 30.8084 50.6524 31.1607C50.6524 31.4804 50.5575 31.7674 50.3677 32.0219C50.1845 32.2763 49.9228 32.4851 49.5825 32.6482C50.0209 32.7656 50.3579 32.9613 50.5935 33.2353C50.8356 33.5028 50.9566 33.829 50.9566 34.2139C50.9566 34.6053 50.8552 34.9511 50.6524 35.2512C50.4561 35.5447 50.178 35.7763 49.8181 35.9459C49.4648 36.109 49.0525 36.1906 48.5814 36.1906ZM54.3064 36.2004C53.8745 36.2004 53.4852 36.1156 53.1384 35.9459C52.7916 35.7698 52.5135 35.5317 52.3041 35.2316C52.1013 34.925 51.9901 34.5759 51.9704 34.1845H52.9617C53.001 34.5368 53.1417 34.8141 53.3838 35.0163C53.6259 35.212 53.9334 35.3099 54.3064 35.3099C54.6074 35.3099 54.8593 35.2544 55.0621 35.1435C55.265 35.0261 55.4155 34.8695 55.5136 34.6738C55.6183 34.4716 55.6707 34.2432 55.6707 33.9888C55.6707 33.7605 55.615 33.5484 55.5038 33.3527C55.3991 33.157 55.2454 33.0004 55.0425 32.883C54.8397 32.7656 54.591 32.7069 54.2966 32.7069C54.0021 32.7069 53.7437 32.7688 53.5212 32.8928C53.3053 33.0102 53.1286 33.1896 52.9912 33.431L52.1864 33.1766L52.7753 29.4874H56.3185V30.3681H53.4918L53.1973 32.2763C53.3871 32.1328 53.5866 32.0251 53.796 31.9534C54.0054 31.8816 54.2213 31.8457 54.4438 31.8457C54.9345 31.8457 55.3468 31.9468 55.6805 32.1491C56.0142 32.3448 56.2661 32.6058 56.4362 32.9319C56.6129 33.2581 56.7012 33.6104 56.7012 33.9888C56.7012 34.2824 56.6489 34.5629 56.5442 34.8304C56.4395 35.0978 56.2825 35.336 56.0731 35.5447C55.8702 35.747 55.6216 35.9068 55.3271 36.0242C55.0327 36.1417 54.6924 36.2004 54.3064 36.2004ZM65.1389 33.5093C65.1389 34.0312 65.044 34.4944 64.8542 34.8989C64.6645 35.3033 64.3962 35.623 64.0494 35.8579C63.7092 36.0862 63.3068 36.2004 62.8422 36.2004C62.4888 36.2004 62.1682 36.1156 61.8803 35.9459C61.5924 35.7763 61.3536 35.5349 61.1638 35.2218V37.9912H60.1725V30.9161H61.0951V31.8653C61.2783 31.5326 61.5237 31.2749 61.8312 31.0922C62.1388 30.9096 62.4758 30.8182 62.8422 30.8182C63.3068 30.8182 63.7092 30.9357 64.0494 31.1705C64.3962 31.3988 64.6645 31.7153 64.8542 32.1197C65.044 32.5242 65.1389 32.9874 65.1389 33.5093ZM64.1083 33.5093C64.1083 32.9287 63.9676 32.4818 63.6863 32.1687C63.4114 31.849 63.0614 31.6892 62.6361 31.6892C62.3613 31.6892 62.1126 31.7609 61.8901 31.9044C61.6677 32.048 61.491 32.2535 61.3601 32.5209C61.2293 32.7884 61.1638 33.1179 61.1638 33.5093C61.1638 33.8877 61.2293 34.2139 61.3601 34.4879C61.491 34.7553 61.6677 34.9608 61.8901 35.1044C62.1126 35.2479 62.3613 35.3197 62.6361 35.3197C63.0614 35.3197 63.4114 35.1631 63.6863 34.8499C63.9676 34.5368 64.1083 34.0899 64.1083 33.5093ZM69.1982 35.1435V36.0144C69.0477 36.0862 68.9004 36.1351 68.7565 36.1612C68.6191 36.1873 68.4719 36.2004 68.3148 36.2004C67.9942 36.2004 67.7096 36.1417 67.4609 36.0242C67.2188 35.9068 67.0291 35.7241 66.8917 35.4762C66.7542 35.2283 66.6855 34.9152 66.6855 34.5368V31.7577H65.5372V30.9161H66.6855V29.3797H67.6769V30.9161H69.2472V31.7577H67.6769V34.3117C67.6769 34.6705 67.7554 34.9217 67.9124 35.0652C68.076 35.2088 68.2887 35.2805 68.5504 35.2805C68.6682 35.2805 68.7794 35.2707 68.8841 35.2512C68.9953 35.2251 69.1 35.1892 69.1982 35.1435ZM74.4927 34.5564C74.4927 35.0652 74.3029 35.4664 73.9234 35.76C73.5439 36.0536 73.0073 36.2004 72.3137 36.2004C71.6332 36.2004 71.0934 36.0405 70.6943 35.7209C70.3017 35.4012 70.0792 34.9641 70.0269 34.4096H70.9789C70.992 34.7358 71.1196 34.9935 71.3617 35.1827C71.6103 35.3653 71.9342 35.4567 72.3334 35.4567C72.6802 35.4567 72.9583 35.3947 73.1676 35.2707C73.3836 35.1468 73.4915 34.9641 73.4915 34.7227C73.4915 34.5074 73.4196 34.3443 73.2756 34.2334C73.1382 34.1225 72.9059 34.0377 72.5788 33.979L71.7347 33.8224C71.257 33.7311 70.8873 33.5648 70.6256 33.3234C70.3638 33.0755 70.233 32.7558 70.233 32.3644C70.233 32.0578 70.3148 31.7903 70.4784 31.5619C70.6485 31.3271 70.884 31.1444 71.185 31.0139C71.486 30.8835 71.8361 30.8182 72.2352 30.8182C72.654 30.8182 73.0204 30.89 73.3345 31.0335C73.6486 31.1705 73.9005 31.3695 74.0902 31.6304C74.28 31.8849 74.388 32.1915 74.4141 32.5503H73.4621C73.4294 32.2437 73.305 32.0023 73.0891 31.8262C72.8732 31.65 72.5918 31.5619 72.245 31.5619C71.931 31.5619 71.6758 31.6272 71.4795 31.7577C71.2897 31.8816 71.1948 32.0545 71.1948 32.2763C71.1948 32.4851 71.2635 32.6449 71.401 32.7558C71.5449 32.8602 71.7739 32.945 72.088 33.0102L72.9713 33.1766C73.4883 33.2679 73.871 33.4278 74.1197 33.6561C74.3683 33.8844 74.4927 34.1845 74.4927 34.5564Z" fill="#626262"/>
<path d="M125.224 29.1709H85.1462C83.3393 29.1709 81.8745 30.6313 81.8745 32.4328C81.8745 34.2343 83.3393 35.6947 85.1462 35.6947H125.224C127.031 35.6947 128.495 34.2343 128.495 32.4328C128.495 30.6313 127.031 29.1709 125.224 29.1709Z" fill="white"/>
<path d="M94.9611 29.1709H85.1462C83.3393 29.1709 81.8745 30.6313 81.8745 32.4328C81.8745 34.2343 83.3393 35.6947 85.1462 35.6947H94.9611C96.768 35.6947 98.2327 34.2343 98.2327 32.4328C98.2327 30.6313 96.768 29.1709 94.9611 29.1709Z" fill="#A81DA6"/>
<path d="M148.261 16.1229C148.261 17.9985 146.735 19.5207 144.854 19.5207C142.972 19.5207 141.445 17.9985 141.445 16.1229C141.445 14.2473 142.972 12.7251 144.854 12.7251C146.735 12.7251 148.261 14.2473 148.261 16.1229Z" stroke="#0A0A0A" stroke-width="1.2" stroke-linecap="round" stroke-linejoin="round"/>
<path d="M146.118 17.2038L145.061 16.5752C144.877 16.4664 144.728 16.2048 144.728 15.9907V14.5977" stroke="#0A0A0A" stroke-width="1.2" stroke-linecap="round" stroke-linejoin="round"/>
<path d="M152.215 17.1427L152.62 16.4694C153.052 15.7518 154.024 15.5877 154.669 16.1233C155.313 16.659 156.286 16.4948 156.717 15.7773L157.122 15.104" stroke="#0A0A0A"/>
<path d="M162.995 18.9774H161.58V14.6798H160.558V13.4648H162.995V18.9774ZM166.968 18.9774H166.142V14.6554H166.911V15.373C167.058 15.1229 167.246 14.9272 167.476 14.7858C167.705 14.6444 167.969 14.5738 168.269 14.5738C168.585 14.5738 168.858 14.6526 169.087 14.8103C169.321 14.9625 169.488 15.1826 169.586 15.4708C169.738 15.1936 169.937 14.9761 170.183 14.8185C170.428 14.6554 170.717 14.5738 171.05 14.5738C171.496 14.5738 171.851 14.7151 172.113 14.9979C172.38 15.2751 172.514 15.6692 172.514 16.1803V18.9774H171.688V16.4413C171.688 16.077 171.608 15.797 171.451 15.6013C171.292 15.4001 171.063 15.2996 170.764 15.2996C170.578 15.2996 170.406 15.3512 170.248 15.4545C170.095 15.5524 169.973 15.691 169.88 15.8704C169.787 16.0498 169.741 16.2591 169.741 16.4983V18.9774H168.915V16.4413C168.915 16.077 168.836 15.797 168.678 15.6013C168.525 15.4001 168.296 15.2996 167.991 15.2996C167.799 15.2996 167.625 15.3512 167.467 15.4545C167.314 15.5524 167.192 15.691 167.099 15.8704C167.012 16.0498 166.968 16.2591 166.968 16.4983V18.9774ZM174.608 18.9774H173.782V14.6554H174.608V18.9774ZM174.788 13.6523C174.788 13.8045 174.73 13.935 174.616 14.0438C174.507 14.147 174.366 14.1987 174.191 14.1987C174.011 14.1987 173.863 14.147 173.749 14.0438C173.64 13.935 173.585 13.8045 173.585 13.6523C173.585 13.4892 173.64 13.3588 173.749 13.2609C173.863 13.1576 174.011 13.106 174.191 13.106C174.366 13.106 174.507 13.1576 174.616 13.2609C174.73 13.3588 174.788 13.4892 174.788 13.6523ZM176.744 16.5391V18.9774H175.918V14.6554H176.687V15.373C176.834 15.1337 177.025 14.9408 177.259 14.794C177.5 14.6472 177.77 14.5738 178.069 14.5738C178.516 14.5738 178.874 14.7124 179.141 14.9897C179.414 15.267 179.549 15.6638 179.549 16.1803V18.9774H178.723V16.4576C178.723 16.0878 178.645 15.8024 178.486 15.6013C178.328 15.4001 178.094 15.2996 177.783 15.2996C177.592 15.2996 177.418 15.3512 177.259 15.4545C177.101 15.5524 176.976 15.6937 176.883 15.8786C176.791 16.0634 176.744 16.2835 176.744 16.5391ZM183.518 17.1996V14.6554H184.344V18.9774H183.575V18.3005C183.466 18.5179 183.291 18.7001 183.052 18.8469C182.811 18.9882 182.545 19.0589 182.25 19.0589C181.961 19.0589 181.702 19.0019 181.473 18.8877C181.249 18.7735 181.075 18.5968 180.95 18.3576C180.83 18.113 180.77 17.8058 180.77 17.4361V14.6554H181.596V17.273C181.596 17.6482 181.68 17.92 181.849 18.0885C182.018 18.2516 182.239 18.3332 182.512 18.3332C182.697 18.3332 182.866 18.2869 183.019 18.1945C183.171 18.0967 183.291 17.9634 183.379 17.7949C183.471 17.6209 183.518 17.4225 183.518 17.1996ZM188.1 18.1782V18.904C187.975 18.9638 187.852 19.0045 187.732 19.0263C187.617 19.048 187.495 19.0589 187.364 19.0589C187.097 19.0589 186.86 19.01 186.652 18.9121C186.451 18.8143 186.292 18.662 186.178 18.4555C186.063 18.2488 186.006 17.9879 186.006 17.6726V15.3567H185.049V14.6554H186.006V13.3751H186.832V14.6554H188.141V15.3567H186.832V17.4851C186.832 17.784 186.898 17.9934 187.028 18.113C187.165 18.2325 187.343 18.2924 187.56 18.2924C187.658 18.2924 187.752 18.2842 187.838 18.2679C187.931 18.2461 188.018 18.2162 188.1 18.1782ZM190.757 19.0589C190.336 19.0589 189.968 18.9665 189.652 18.7817C189.342 18.5913 189.099 18.325 188.924 17.9825C188.749 17.64 188.663 17.2431 188.663 16.7919C188.663 16.3624 188.753 15.9818 188.933 15.6502C189.113 15.3186 189.358 15.0576 189.669 14.8674C189.979 14.6717 190.334 14.5738 190.732 14.5738C191.059 14.5738 191.35 14.6363 191.607 14.7614C191.869 14.8809 192.09 15.0522 192.27 15.2751C192.454 15.4925 192.589 15.7508 192.67 16.0498C192.752 16.3434 192.773 16.6668 192.736 17.0202H189.145V16.4739H191.861C191.844 16.0715 191.732 15.7589 191.525 15.5361C191.323 15.3077 191.053 15.1936 190.716 15.1936C190.47 15.1936 190.254 15.2588 190.069 15.3893C189.89 15.5143 189.747 15.6964 189.644 15.9357C189.546 16.1694 189.497 16.4548 189.497 16.7919C189.497 17.1289 189.546 17.4198 189.644 17.6645C189.742 17.9036 189.884 18.0885 190.069 18.219C190.254 18.3495 190.478 18.4147 190.74 18.4147C191.051 18.4147 191.307 18.3358 191.509 18.1782C191.716 18.0205 191.853 17.8003 191.918 17.5177H192.736C192.632 17.996 192.403 18.3739 192.049 18.6512C191.7 18.923 191.269 19.0589 190.757 19.0589Z" fill="#080808"/>
<path d="M233.397 19.385H232.318V12.3589H234.948C236.567 12.3589 237.539 13.1515 237.539 14.5509C237.539 15.5588 236.901 16.3319 235.831 16.5863L237.745 19.385H236.45L234.693 16.7429H233.397V19.385ZM233.397 13.2592V15.8426H234.879C235.88 15.8426 236.45 15.4022 236.45 14.5509C236.45 13.7093 235.88 13.2592 234.879 13.2592H233.397ZM240.795 19.4829C239.294 19.4829 238.283 18.3967 238.283 16.7625C238.283 15.2261 239.333 14.1007 240.766 14.1007C242.317 14.1007 243.347 15.3533 243.17 17.0365H239.294C239.372 18.0933 239.902 18.7098 240.776 18.7098C241.512 18.7098 242.022 18.3086 242.189 17.6334H243.17C242.915 18.7881 242.022 19.4829 240.795 19.4829ZM240.746 14.8445C239.951 14.8445 239.411 15.412 239.303 16.3808H242.12C242.071 15.4218 241.551 14.8445 240.746 14.8445ZM248.605 19.385L247.427 15.5295L246.239 19.385H245.238L243.736 14.1986H244.708L245.758 17.9759L246.936 14.1986H247.918L249.076 17.9857L250.126 14.1986H251.107L249.596 19.385H248.605ZM255.101 19.385V18.5826C254.777 19.16 254.198 19.4829 253.432 19.4829C252.352 19.4829 251.646 18.8664 251.646 17.9172C251.646 16.8995 252.46 16.371 254.011 16.371C254.315 16.371 254.561 16.3808 254.983 16.4297V16.0481C254.983 15.3044 254.58 14.8836 253.893 14.8836C253.167 14.8836 252.725 15.3142 252.696 16.0383H251.793C251.842 14.8738 252.676 14.1007 253.893 14.1007C255.179 14.1007 255.925 14.8249 255.925 16.0579V19.385H255.101ZM252.588 17.8878C252.588 18.426 252.99 18.7783 253.628 18.7783C254.463 18.7783 254.983 18.2597 254.983 17.467V17.0462C254.6 16.9973 254.325 16.9875 254.07 16.9875C253.079 16.9875 252.588 17.2811 252.588 17.8878ZM258.438 16.7331V19.385H257.446V14.1986H258.369V15.2946C258.732 14.5802 259.517 14.1301 260.371 14.1301V15.1576C259.252 15.0989 258.438 15.5882 258.438 16.7331ZM260.96 16.7918C260.96 15.2163 261.863 14.1007 263.267 14.1007C263.963 14.1007 264.572 14.453 264.935 15.0891V12.3589H265.926V19.385H265.004V18.4554C264.631 19.111 264.003 19.4829 263.267 19.4829C261.863 19.4829 260.96 18.3477 260.96 16.7918ZM261.991 16.7918C261.991 17.9465 262.599 18.6022 263.463 18.6022C264.307 18.6022 264.935 17.9172 264.935 16.7722C264.935 15.6077 264.287 14.9717 263.463 14.9717C262.599 14.9717 261.991 15.6175 261.991 16.7918Z" fill="#626262"/>
<mask id="mask0_691_12081" style="mask-type:luminance" maskUnits="userSpaceOnUse" x="216" y="27" width="9" height="11">
<path d="M224.191 27.1323H216.012V37.7335H224.191V27.1323Z" fill="white"/>
</mask>
<g mask="url(#mask0_691_12081)">
<path d="M223.757 35.1007C223.679 35.1299 223.596 35.1574 223.509 35.1825C223.007 35.3277 222.37 35.4019 221.737 35.4019C221.583 35.4019 221.43 35.3974 221.278 35.3886V36.3168C221.424 36.3256 221.577 36.3305 221.737 36.3305C223.235 36.3305 224.191 35.9211 224.191 35.6392V34.8804C224.123 34.9286 224.045 34.9731 223.96 35.0146C223.897 35.0451 223.829 35.0738 223.757 35.1007Z" fill="#6200EE"/>
<path d="M223.757 33.7989C223.679 33.828 223.596 33.8555 223.509 33.8805C223.007 34.0257 222.37 34.1001 221.737 34.1001C221.583 34.1001 221.43 34.0955 221.278 34.0867V35.0149C221.424 35.0236 221.577 35.0286 221.737 35.0286C223.235 35.0286 224.191 34.6192 224.191 34.3372V33.5786C224.123 33.6267 224.045 33.6712 223.96 33.7128C223.897 33.7432 223.829 33.7718 223.757 33.7989Z" fill="#6200EE"/>
<path d="M223.757 28.5881C223.679 28.6175 223.595 28.6449 223.509 28.67C223.007 28.8152 222.37 28.8893 221.737 28.8893C221.103 28.8893 220.467 28.8152 219.965 28.67C219.878 28.6449 219.795 28.6176 219.717 28.5881C219.646 28.5613 219.578 28.5324 219.515 28.5019C219.429 28.4604 219.351 28.4158 219.283 28.3677V29.1264C219.283 29.269 219.529 29.4445 219.966 29.5831C220.062 29.6136 220.168 29.6424 220.283 29.6687C220.42 29.7002 220.571 29.7281 220.734 29.751C221.031 29.7927 221.367 29.8178 221.737 29.8178C222.107 29.8178 222.443 29.7927 222.741 29.751C222.903 29.7281 223.054 29.7002 223.192 29.6687C223.307 29.6424 223.412 29.6135 223.509 29.5831C223.946 29.4445 224.191 29.2692 224.191 29.1264V28.3677C224.123 28.4156 224.045 28.4604 223.959 28.5019C223.896 28.5324 223.829 28.5613 223.757 28.5881H223.757Z" fill="#6200EE"/>
<path d="M223.757 32.4953C223.679 32.5245 223.596 32.5519 223.509 32.577C223.007 32.722 222.37 32.7964 221.737 32.7964C221.583 32.7964 221.43 32.7919 221.278 32.7831V33.7114C221.424 33.7202 221.577 33.7251 221.737 33.7251C223.235 33.7251 224.191 33.3156 224.191 33.0335V32.2749C224.123 32.3231 224.045 32.3675 223.96 32.4091C223.897 32.4394 223.829 32.4683 223.757 32.4953Z" fill="#6200EE"/>
<path d="M219.966 28.2803C220.062 28.3109 220.168 28.3396 220.283 28.3659C220.42 28.3977 220.572 28.4254 220.734 28.4483C221.031 28.4901 221.367 28.5151 221.737 28.5151C222.107 28.5151 222.443 28.4902 222.741 28.4483C222.904 28.4257 223.054 28.3977 223.191 28.3661C223.307 28.3398 223.412 28.3109 223.51 28.2802C223.946 28.1419 224.191 27.9666 224.191 27.8237C224.191 27.5418 223.235 27.1323 221.737 27.1323C220.24 27.1323 219.283 27.5418 219.283 27.8237C219.283 27.9665 219.529 28.1419 219.966 28.2803Z" fill="#6200EE"/>
<path d="M223.758 31.1935C223.679 31.2226 223.596 31.2502 223.51 31.2751C223.008 31.4204 222.371 31.4946 221.737 31.4946C221.537 31.4946 221.336 31.4862 221.139 31.4713C221.227 31.5777 221.278 31.6972 221.278 31.8319V32.4095C221.425 32.4181 221.578 32.4231 221.737 32.4231C223.236 32.4231 224.191 32.0138 224.191 31.7318V30.9731C224.124 31.0212 224.046 31.0657 223.96 31.1073C223.897 31.1378 223.83 31.1665 223.758 31.1935Z" fill="#6200EE"/>
<path d="M223.757 29.8899C223.679 29.9191 223.596 29.9465 223.509 29.9717C223.007 30.117 222.37 30.1912 221.737 30.1912C221.103 30.1912 220.467 30.1169 219.965 29.9717C219.878 29.9465 219.795 29.9192 219.717 29.8899C219.646 29.8629 219.578 29.8341 219.514 29.8036C219.429 29.7622 219.351 29.7175 219.283 29.6694V30.4281C219.283 30.5709 219.529 30.7461 219.966 30.8847C220.062 30.9152 220.168 30.9442 220.283 30.9702C220.42 31.002 220.572 31.03 220.734 31.0526C221.031 31.0944 221.367 31.1195 221.737 31.1195C222.107 31.1195 222.443 31.0944 222.741 31.0526C222.903 31.03 223.054 31.002 223.191 30.9705C223.307 30.944 223.412 30.9152 223.509 30.8847C223.946 30.7461 224.191 30.5709 224.191 30.4281V29.6694C224.123 29.7175 224.045 29.762 223.959 29.8036C223.896 29.8341 223.829 29.8629 223.757 29.8899H223.757Z" fill="#6200EE"/>
<path d="M220.688 36.4171C220.625 36.4476 220.557 36.4766 220.485 36.5035C220.407 36.5327 220.324 36.5601 220.237 36.5852C219.735 36.7303 219.099 36.8046 218.466 36.8046C217.833 36.8046 217.195 36.7302 216.693 36.5852C216.607 36.5601 216.524 36.5327 216.445 36.5035C216.374 36.4766 216.306 36.4476 216.243 36.4171C216.159 36.3765 216.083 36.333 216.017 36.2863C216.015 36.2851 216.014 36.2843 216.012 36.2832V37.0418C216.012 37.3238 216.968 37.7334 218.466 37.7334C219.963 37.7334 220.919 37.3238 220.919 37.0418V36.2832C220.918 36.2843 220.916 36.2851 220.915 36.2863C220.847 36.3331 220.772 36.3767 220.688 36.4171Z" fill="#6200EE"/>
<path d="M220.688 33.812C220.625 33.8422 220.558 33.8712 220.486 33.8982C220.425 33.9205 220.362 33.9415 220.298 33.9615C220.277 33.9677 220.259 33.9742 220.238 33.98C219.954 34.0619 219.628 34.1204 219.284 34.1565C219.018 34.1844 218.741 34.1994 218.466 34.1994C218.189 34.1994 217.914 34.1844 217.648 34.1565C217.303 34.1203 216.977 34.0618 216.694 33.98C216.673 33.9738 216.652 33.9671 216.631 33.9608C216.567 33.941 216.504 33.9204 216.445 33.8982C216.374 33.8712 216.306 33.8424 216.243 33.812C216.159 33.7713 216.084 33.7278 216.017 33.681C216.015 33.6798 216.014 33.6789 216.012 33.6777V34.4366C216.012 34.5743 216.241 34.7422 216.648 34.8783C216.664 34.8833 216.679 34.8882 216.694 34.8933C216.791 34.9239 216.897 34.9528 217.011 34.9789C217.117 35.003 217.232 35.0242 217.353 35.0436C217.389 35.0494 217.425 35.0559 217.462 35.0611C217.522 35.0696 217.585 35.0769 217.648 35.0838C217.898 35.1116 218.17 35.128 218.466 35.128C218.761 35.128 219.033 35.1116 219.284 35.0838C219.347 35.0768 219.41 35.0696 219.469 35.0611C219.507 35.0558 219.542 35.0494 219.579 35.0436C219.699 35.0243 219.814 35.003 219.92 34.9791C220.035 34.9526 220.141 34.9238 220.237 34.8932C220.252 34.8884 220.266 34.8837 220.281 34.879C220.69 34.7429 220.919 34.5745 220.919 34.4367V33.6777C220.918 33.679 220.916 33.6799 220.915 33.6809C220.848 33.7277 220.772 33.7712 220.688 33.812Z" fill="#6200EE"/>
<path d="M220.688 35.1155C220.625 35.146 220.557 35.1749 220.485 35.2019C220.426 35.2238 220.364 35.2445 220.3 35.2643C220.279 35.2706 220.259 35.2775 220.237 35.2837C219.954 35.3655 219.628 35.4239 219.284 35.4601C219.018 35.488 218.741 35.503 218.466 35.503C218.189 35.503 217.914 35.488 217.648 35.4601C217.303 35.4238 216.977 35.3655 216.693 35.2837C216.672 35.2775 216.652 35.2707 216.631 35.2643C216.567 35.2445 216.504 35.2239 216.445 35.2019C216.374 35.1749 216.306 35.1461 216.243 35.1155C216.158 35.0745 216.082 35.0305 216.015 34.9833C216.014 34.9828 216.013 34.982 216.012 34.9814V35.7401C216.012 35.8778 216.24 36.0458 216.648 36.1817C217.075 36.3243 217.699 36.4316 218.466 36.4316C219.232 36.4316 219.856 36.3243 220.283 36.1817C220.691 36.0458 220.919 35.8778 220.919 35.7401V34.9814C220.918 34.9824 220.916 34.9833 220.915 34.9845C220.848 35.0314 220.772 35.0749 220.688 35.1155Z" fill="#6200EE"/>
<path d="M220.688 32.5096C220.625 32.5401 220.557 32.5688 220.485 32.5959C220.426 32.6178 220.364 32.6385 220.3 32.6584C220.279 32.6647 220.259 32.6715 220.237 32.6777C219.954 32.7596 219.628 32.818 219.284 32.8542C219.018 32.8821 218.741 32.8971 218.466 32.8971C218.189 32.8971 217.914 32.8821 217.648 32.8542C217.303 32.818 216.977 32.7595 216.693 32.6777C216.672 32.6715 216.652 32.6648 216.631 32.6585C216.567 32.6386 216.504 32.6181 216.445 32.596C216.374 32.5691 216.306 32.5402 216.243 32.5097C216.158 32.4687 216.081 32.4244 216.014 32.377C216.014 32.3766 216.013 32.3761 216.012 32.3755V33.1343C216.012 33.2718 216.241 33.44 216.648 33.576C216.664 33.581 216.679 33.5861 216.693 33.591C216.791 33.6215 216.896 33.6503 217.011 33.6766C217.116 33.7007 217.231 33.7218 217.351 33.741C217.388 33.7469 217.424 33.7536 217.462 33.759C217.522 33.7674 217.585 33.7747 217.648 33.7815C217.897 33.8093 218.17 33.8257 218.466 33.8257C218.761 33.8257 219.033 33.8093 219.284 33.7815C219.347 33.7748 219.409 33.7674 219.469 33.759C219.507 33.7536 219.542 33.7471 219.579 33.7413C219.699 33.7221 219.814 33.7009 219.92 33.6767C220.035 33.6505 220.141 33.6215 220.237 33.591C220.253 33.5861 220.268 33.581 220.283 33.576C220.69 33.44 220.919 33.272 220.919 33.1344V32.3755C220.918 32.3765 220.916 32.3776 220.915 32.3787C220.847 32.4254 220.772 32.469 220.688 32.5096Z" fill="#6200EE"/>
<path d="M219.284 31.1843C219.034 31.1568 218.76 31.1406 218.466 31.1406C218.17 31.1406 217.897 31.1567 217.648 31.1843C216.629 31.2972 216.012 31.6056 216.012 31.8321C216.012 31.9696 216.24 32.1373 216.647 32.2732C216.662 32.2785 216.678 32.2837 216.693 32.2887C216.791 32.3194 216.896 32.3481 217.011 32.3744C217.117 32.3985 217.231 32.4197 217.352 32.4389C217.389 32.4447 217.424 32.4514 217.462 32.4567C217.522 32.4651 217.585 32.4723 217.648 32.4793C217.897 32.5069 218.17 32.5233 218.466 32.5233C218.761 32.5233 219.033 32.5069 219.284 32.4793C219.347 32.4723 219.409 32.4651 219.469 32.4567C219.508 32.4513 219.543 32.4447 219.58 32.4389C219.7 32.4195 219.814 32.3985 219.92 32.3744C220.035 32.3481 220.141 32.3194 220.237 32.2887C220.253 32.2839 220.268 32.2789 220.282 32.2741C220.69 32.1379 220.919 31.97 220.919 31.8321C220.919 31.6056 220.303 31.2971 219.284 31.1843Z" fill="#6200EE"/>
</g>
<path d="M234.047 36.4872L228.001 36.51V35.14L230.795 32.8224C231.024 32.6398 231.218 32.4685 231.379 32.3087C231.539 32.1412 231.669 31.9814 231.768 31.8292C231.875 31.6694 231.951 31.5133 231.997 31.3611C232.05 31.2013 232.077 31.0338 232.077 30.8588C232.077 30.4325 231.974 30.109 231.768 29.8884C231.569 29.66 231.28 29.5459 230.898 29.5459C230.501 29.5459 230.192 29.6752 229.97 29.934C229.757 30.1928 229.65 30.5581 229.65 31.03H227.806C227.806 30.3983 227.932 29.8503 228.184 29.386C228.443 28.9141 228.802 28.5488 229.26 28.29C229.726 28.0312 230.268 27.9019 230.886 27.9019C231.535 27.9019 232.089 28.016 232.547 28.2444C233.005 28.465 233.356 28.7885 233.6 29.2148C233.852 29.6334 233.978 30.1433 233.978 30.7446C233.978 31.0338 233.936 31.3116 233.852 31.578C233.768 31.8368 233.65 32.0879 233.497 32.3315C233.344 32.575 233.161 32.811 232.948 33.0394C232.734 33.2677 232.494 33.4922 232.226 33.7129L230.348 35.277L229.661 34.7747H234.047V36.4872ZM240.598 36.51L238.056 28.0617H239.991L241.102 31.7264C241.178 31.9776 241.251 32.2439 241.32 32.5256C241.388 32.7996 241.457 33.1459 241.526 33.5645C241.594 33.1459 241.663 32.7996 241.732 32.5256C241.801 32.2516 241.873 31.9852 241.949 31.7264L242.991 28.0617H245.064L246.06 31.7264C246.129 31.9852 246.198 32.2554 246.266 32.537C246.335 32.8186 246.407 33.1611 246.484 33.5645C246.567 33.1383 246.644 32.7919 246.713 32.5256C246.782 32.2516 246.854 31.9928 246.931 31.7493L248.064 28.0617H249.954L247.366 36.51H245.556L244.011 30.9615L242.419 36.51H240.598ZM253.094 28.0617V36.51H251.239V28.0617H253.094ZM251.571 36.51V34.7975H256.438V36.51H251.571ZM261.152 36.51H257.832V28.0617H261.038C261.87 28.0617 262.598 28.2405 263.225 28.5983C263.858 28.9559 264.354 29.4545 264.714 30.0939C265.072 30.7332 265.252 31.4714 265.252 32.3087C265.252 33.1307 265.076 33.8575 264.725 34.4893C264.381 35.1209 263.901 35.6157 263.282 35.9734C262.671 36.3311 261.961 36.51 261.152 36.51ZM259.687 28.9065V35.688L258.805 34.7975H260.969C261.457 34.7975 261.874 34.6985 262.217 34.5007C262.568 34.3028 262.836 34.0174 263.019 33.6444C263.202 33.2714 263.294 32.8262 263.294 32.3087C263.294 31.7759 263.194 31.323 262.996 30.9501C262.805 30.5695 262.526 30.2803 262.16 30.0824C261.801 29.8769 261.366 29.7742 260.855 29.7742H258.805L259.687 28.9065Z" fill="#6200EE"/>
</g>
<defs>
<clipPath id="clip0_691_12081">
<rect width="274" height="47.2976" fill="white" transform="translate(0.901367 0.852539)"/>
</clipPath>
</defs>
</svg>
