<svg width="181" height="26" viewBox="0 0 181 26" fill="none" xmlns="http://www.w3.org/2000/svg">
<rect x="0.0214844" y="0.60791" width="180" height="4.01426" rx="2.00713" transform="rotate(0.133805 0.0214844 0.60791)" fill="white"/>
<rect x="0.0214844" y="0.60791" width="39.6772" height="4" rx="2" transform="rotate(0.133805 0.0214844 0.60791)" fill="#334CB5"/>
<path d="M0.516 18.632C0.516 17.72 0.668 16.924 0.972 16.244C1.284 15.564 1.716 15.032 2.268 14.648C2.828 14.256 3.48 14.06 4.224 14.06C4.976 14.06 5.628 14.256 6.18 14.648C6.74 15.032 7.172 15.564 7.476 16.244C7.788 16.924 7.944 17.72 7.944 18.632C7.944 19.536 7.796 20.328 7.5 21.008C7.204 21.688 6.78 22.216 6.228 22.592C5.676 22.968 5.008 23.156 4.224 23.156C3.456 23.156 2.792 22.968 2.232 22.592C1.68 22.216 1.256 21.688 0.96 21.008C0.664 20.328 0.516 19.536 0.516 18.632ZM2.028 18.632C2.028 19.304 2.116 19.88 2.292 20.36C2.468 20.832 2.72 21.192 3.048 21.44C3.376 21.68 3.768 21.8 4.224 21.8C4.696 21.8 5.092 21.68 5.412 21.44C5.74 21.192 5.992 20.832 6.168 20.36C6.344 19.88 6.432 19.304 6.432 18.632C6.432 17.936 6.344 17.352 6.168 16.88C5.992 16.4 5.74 16.036 5.412 15.788C5.092 15.54 4.696 15.416 4.224 15.416C3.768 15.416 3.376 15.54 3.048 15.788C2.72 16.036 2.468 16.4 2.292 16.88C2.116 17.352 2.028 17.936 2.028 18.632Z" fill="#141414"/>
<path d="M38.328 15.608H36.408V14.228H39.792V23H38.328V15.608Z" fill="#141414"/>
<path d="M74.636 22.988L68.552 23V21.848L71.42 19.424C71.716 19.176 71.964 18.948 72.164 18.74C72.372 18.532 72.536 18.336 72.656 18.152C72.776 17.968 72.864 17.784 72.92 17.6C72.976 17.416 73.004 17.216 73.004 17C73.004 16.504 72.876 16.12 72.62 15.848C72.364 15.576 72.004 15.44 71.54 15.44C71.06 15.44 70.68 15.6 70.4 15.92C70.12 16.24 69.976 16.68 69.968 17.24H68.444C68.452 16.6 68.584 16.044 68.84 15.572C69.096 15.092 69.456 14.724 69.92 14.468C70.384 14.204 70.924 14.072 71.54 14.072C72.164 14.072 72.7 14.188 73.148 14.42C73.604 14.644 73.956 14.968 74.204 15.392C74.452 15.816 74.576 16.324 74.576 16.916C74.576 17.22 74.532 17.512 74.444 17.792C74.364 18.064 74.24 18.332 74.072 18.596C73.904 18.852 73.696 19.112 73.448 19.376C73.2 19.64 72.908 19.916 72.572 20.204L70.436 22.028L69.884 21.56H74.636V22.988Z" fill="#141414"/>
<path d="M109.216 15.452L106.048 18.368L105.04 17.66L108.112 14.84L107.848 15.584H103.648V14.228H109.216V15.452ZM106.108 18.656H105.04V17.66C105.192 17.54 105.392 17.46 105.64 17.42C105.888 17.372 106.12 17.348 106.336 17.348C106.752 17.348 107.148 17.412 107.524 17.54C107.9 17.668 108.232 17.856 108.52 18.104C108.816 18.344 109.048 18.644 109.216 19.004C109.384 19.356 109.468 19.76 109.468 20.216C109.468 20.816 109.328 21.336 109.048 21.776C108.768 22.216 108.384 22.556 107.896 22.796C107.416 23.036 106.88 23.156 106.288 23.156C105.712 23.156 105.192 23.044 104.728 22.82C104.272 22.588 103.908 22.252 103.636 21.812C103.372 21.372 103.24 20.836 103.24 20.204H104.752C104.752 20.708 104.892 21.1 105.172 21.38C105.46 21.652 105.84 21.788 106.312 21.788C106.792 21.788 107.176 21.644 107.464 21.356C107.76 21.06 107.908 20.672 107.908 20.192C107.908 19.752 107.76 19.388 107.464 19.1C107.168 18.804 106.716 18.656 106.108 18.656Z" fill="#141414"/>
<path d="M143.24 14.228V23H141.788V14.228H143.24ZM137.336 19.988L141.308 14.228H142.928L138.896 20.084L137.336 19.988ZM144.308 21.332H137.336V19.988H144.308V21.332Z" fill="#141414"/>
<path d="M175.54 23.144C174.932 23.144 174.396 23.024 173.932 22.784C173.476 22.536 173.12 22.192 172.864 21.752C172.616 21.304 172.492 20.784 172.492 20.192H174.004C174.004 20.688 174.144 21.076 174.424 21.356C174.704 21.636 175.088 21.776 175.576 21.776C175.92 21.776 176.216 21.708 176.464 21.572C176.72 21.428 176.916 21.224 177.052 20.96C177.196 20.696 177.268 20.388 177.268 20.036C177.268 19.7 177.2 19.404 177.064 19.148C176.936 18.884 176.748 18.68 176.5 18.536C176.252 18.392 175.952 18.32 175.6 18.32C175.264 18.32 174.952 18.396 174.664 18.548C174.384 18.692 174.164 18.88 174.004 19.112L172.648 18.824L173.728 14.228H178.3V15.644H174.436L174.952 15.164L174.244 17.96L173.728 18.176C173.92 17.808 174.208 17.528 174.592 17.336C174.984 17.136 175.424 17.036 175.912 17.036C176.496 17.036 177.004 17.16 177.436 17.408C177.876 17.656 178.216 18 178.456 18.44C178.704 18.872 178.828 19.376 178.828 19.952C178.828 20.584 178.688 21.14 178.408 21.62C178.136 22.1 177.752 22.476 177.256 22.748C176.768 23.012 176.196 23.144 175.54 23.144Z" fill="#141414"/>
</svg>
