<svg width="24" height="25" viewBox="0 0 24 25" fill="none" xmlns="http://www.w3.org/2000/svg">
<path d="M11 17.8672C11 17.3149 11.4477 16.8672 12 16.8672C12.5523 16.8672 13 17.3149 13 17.8672C13 18.4195 12.5523 18.8672 12 18.8672C11.4477 18.8672 11 18.4195 11 17.8672Z" fill="#4B199C"/>
<path d="M10.3708 3.23138L5.33248 5.57788C3.87515 6.25661 2.91343 7.77658 3.00617 9.44492C3.36871 15.9673 5.1914 18.8387 9.92759 22.1987C11.1823 23.0888 12.8361 23.091 14.0899 22.1994C18.8406 18.8211 20.5981 15.9091 20.9925 9.46751C21.0953 7.78814 20.1321 6.25203 18.6646 5.56857L13.6462 3.23138C12.6036 2.74579 11.4134 2.74579 10.3708 3.23138Z" stroke="#080808" stroke-width="1.5" stroke-linejoin="round"/>
<path d="M12 14.3311C12 11.5974 12 10.0647 12 7.33105" stroke="#4B199C" stroke-width="1.5" stroke-linecap="round" stroke-linejoin="round"/>
</svg>
