<svg width="21" height="20" viewBox="0 0 21 20" fill="none" xmlns="http://www.w3.org/2000/svg">
<path d="M6.47475 18.9582C4.49142 18.9582 2.86646 17.5165 2.86646 15.7415V14.0415C2.86646 13.6998 3.14979 13.4165 3.49146 13.4165C3.83312 13.4165 4.11646 13.6998 4.11646 14.0415C4.11646 15.0832 5.12475 15.8665 6.47475 15.8665C7.82475 15.8665 8.8331 15.0832 8.8331 14.0415C8.8331 13.6998 9.11643 13.4165 9.4581 13.4165C9.79977 13.4165 10.0831 13.6998 10.0831 14.0415V15.7415C10.0831 17.5165 8.46642 18.9582 6.47475 18.9582ZM4.33308 16.5582C4.69975 17.2415 5.52475 17.7082 6.47475 17.7082C7.42475 17.7082 8.24976 17.2332 8.61642 16.5582C8.02476 16.9165 7.29142 17.1248 6.47475 17.1248C5.65809 17.1248 4.92475 16.9165 4.33308 16.5582Z" fill="#7C56FE"/>
<path d="M6.47475 14.8334C5.10809 14.8334 3.88311 14.2084 3.27478 13.2167C3.00811 12.7834 2.86646 12.275 2.86646 11.7584C2.86646 10.8834 3.24978 10.0667 3.94978 9.45835C5.29978 8.27501 7.62476 8.27506 8.98309 9.45006C9.68309 10.0667 10.0748 10.8834 10.0748 11.7584C10.0748 12.275 9.9331 12.7834 9.66643 13.2167C9.06643 14.2084 7.84142 14.8334 6.47475 14.8334ZM6.47475 9.7917C5.82475 9.7917 5.22477 10.0084 4.77477 10.4C4.34977 10.7667 4.11646 11.25 4.11646 11.7584C4.11646 12.05 4.19142 12.3167 4.34142 12.5667C4.72475 13.2 5.54142 13.5917 6.47475 13.5917C7.40809 13.5917 8.22474 13.2001 8.59974 12.5751C8.74974 12.3334 8.82476 12.0584 8.82476 11.7667C8.82476 11.2584 8.59144 10.775 8.16644 10.4C7.72478 10.0084 7.12475 9.7917 6.47475 9.7917Z" fill="#7C56FE"/>
<path d="M6.47475 17.1248C4.41642 17.1248 2.86646 15.7998 2.86646 14.0498V11.7582C2.86646 9.98316 4.48309 8.5415 6.47475 8.5415C7.41642 8.5415 8.31643 8.86653 8.99143 9.44986C9.69143 10.0665 10.0831 10.8832 10.0831 11.7582V14.0498C10.0831 15.7998 8.53308 17.1248 6.47475 17.1248ZM6.47475 9.7915C5.17475 9.7915 4.11646 10.6748 4.11646 11.7582V14.0498C4.11646 15.0915 5.12475 15.8748 6.47475 15.8748C7.82475 15.8748 8.8331 15.0915 8.8331 14.0498V11.7582C8.8331 11.2498 8.59978 10.7665 8.17478 10.3915C7.72478 10.0081 7.12475 9.7915 6.47475 9.7915Z" fill="#7C56FE"/>
<path d="M16.3665 12.3331C15.1082 12.3331 14.0415 11.3998 13.9415 10.1998C13.8748 9.50815 14.1249 8.83317 14.6249 8.3415C15.0415 7.90817 15.6332 7.6665 16.2582 7.6665H17.9998C18.8248 7.6915 19.4582 8.34147 19.4582 9.14147V10.8582C19.4582 11.6582 18.8249 12.3081 18.0249 12.3331H16.3665ZM17.9748 8.9165H16.2665C15.9748 8.9165 15.7082 9.02483 15.5165 9.22483C15.2749 9.45817 15.1582 9.77481 15.1915 10.0915C15.2332 10.6415 15.7665 11.0831 16.3665 11.0831H17.9998C18.1082 11.0831 18.2082 10.9832 18.2082 10.8582V9.14147C18.2082 9.01647 18.1082 8.92484 17.9748 8.9165Z" fill="#7C56FE"/>
<path d="M13.8335 17.7082H11.7501C11.4085 17.7082 11.1251 17.4248 11.1251 17.0832C11.1251 16.7415 11.4085 16.4582 11.7501 16.4582H13.8335C15.9835 16.4582 17.3751 15.0665 17.3751 12.9165V12.3332H16.3668C15.1084 12.3332 14.0418 11.3998 13.9418 10.1998C13.8751 9.50816 14.1251 8.83318 14.6251 8.34151C15.0418 7.90818 15.6334 7.66651 16.2584 7.66651H17.3668V7.08317C17.3668 5.13317 16.2251 3.79149 14.3751 3.57482C14.1751 3.54149 14.0001 3.5415 13.8251 3.5415H6.32511C6.12511 3.5415 5.93344 3.55816 5.74177 3.58316C3.90844 3.81649 2.78345 5.14984 2.78345 7.08317V8.74984C2.78345 9.0915 2.50011 9.37484 2.15845 9.37484C1.81678 9.37484 1.53345 9.0915 1.53345 8.74984V7.08317C1.53345 4.5165 3.11681 2.65818 5.57514 2.34984C5.80014 2.31651 6.05845 2.2915 6.32511 2.2915H13.8251C14.0251 2.2915 14.2834 2.29984 14.5501 2.3415C17.0084 2.62484 18.6168 4.4915 18.6168 7.08317V8.29151C18.6168 8.63318 18.3334 8.91651 17.9918 8.91651H16.2584C15.9668 8.91651 15.7001 9.02484 15.5085 9.22484C15.2668 9.45818 15.1501 9.77483 15.1835 10.0915C15.2251 10.6415 15.7585 11.0832 16.3585 11.0832H18.0001C18.3418 11.0832 18.6251 11.3665 18.6251 11.7082V12.9165C18.6251 15.7832 16.7001 17.7082 13.8335 17.7082Z" fill="#7C56FE"/>
</svg>
