<svg width="290" height="88" viewBox="0 0 290 88" fill="none" xmlns="http://www.w3.org/2000/svg">
<rect x="0.197266" y="0.691406" width="289" height="87" rx="6" fill="url(#paint0_linear_879_6716)"/>
<path d="M89.6973 33.6914C89.6973 46.9462 78.9521 57.6914 65.6973 57.6914C52.4424 57.6914 41.6973 46.9462 41.6973 33.6914C41.6973 20.4366 52.4424 9.69141 65.6973 9.69141C78.9521 9.69141 89.6973 20.4366 89.6973 33.6914ZM46.9773 33.6914C46.9773 44.0302 55.3585 52.4114 65.6973 52.4114C76.036 52.4114 84.4173 44.0302 84.4173 33.6914C84.4173 23.3526 76.036 14.9714 65.6973 14.9714C55.3585 14.9714 46.9773 23.3526 46.9773 33.6914Z" fill="#F6C4D0"/>
<path d="M65.6973 9.69141C69.2337 9.69141 72.7264 10.4729 75.9255 11.9801C79.1247 13.4872 81.9512 15.6827 84.203 18.4095C86.4548 21.1363 88.0762 24.3271 88.9511 27.7535C89.8261 31.18 89.933 34.7574 89.2642 38.23L84.0836 37.2323C84.6053 34.5231 84.5219 31.732 83.8393 29.0588C83.1567 26.3856 81.8917 23.8963 80.135 21.7689C78.3782 19.6415 76.173 17.9286 73.6771 16.7528C71.1812 15.577 68.4563 14.9673 65.6973 14.9673V9.69141Z" fill="white"/>
<path d="M57.2333 38.1914V31.2554H56.1773L56.5733 29.7914H58.6973V38.1914H57.2333ZM63.1982 38.3474C62.6582 38.3474 62.1702 38.2174 61.7342 37.9574C61.2982 37.6934 60.9522 37.3434 60.6962 36.9074C60.4442 36.4714 60.3182 35.9934 60.3182 35.4734H61.7822C61.7822 35.7334 61.8462 35.9714 61.9742 36.1874C62.1022 36.3994 62.2722 36.5694 62.4842 36.6974C62.7002 36.8214 62.9382 36.8834 63.1982 36.8834C63.4582 36.8834 63.6942 36.8214 63.9062 36.6974C64.1182 36.5694 64.2882 36.3994 64.4162 36.1874C64.5442 35.9714 64.6082 35.7334 64.6082 35.4734C64.6082 35.2134 64.5522 34.9754 64.4402 34.7594C64.3322 34.5394 64.1542 34.3654 63.9062 34.2374C63.6622 34.1054 63.3382 34.0394 62.9342 34.0394H60.7742L61.6622 29.7914H65.7902V31.2554H62.8502L62.5802 32.5754L63.1742 32.5814C63.7422 32.6014 64.2442 32.7394 64.6802 32.9954C65.1162 33.2514 65.4562 33.5954 65.7002 34.0274C65.9482 34.4554 66.0722 34.9374 66.0722 35.4734C66.0722 35.8654 65.9982 36.2354 65.8502 36.5834C65.7022 36.9314 65.4962 37.2374 65.2322 37.5014C64.9682 37.7654 64.6622 37.9734 64.3142 38.1254C63.9702 38.2734 63.5982 38.3474 63.1982 38.3474ZM70.153 38.3474C69.613 38.3474 69.125 38.2174 68.689 37.9574C68.253 37.6934 67.907 37.3434 67.651 36.9074C67.399 36.4714 67.273 35.9934 67.273 35.4734H68.737C68.737 35.7334 68.801 35.9714 68.929 36.1874C69.057 36.3994 69.227 36.5694 69.439 36.6974C69.655 36.8214 69.893 36.8834 70.153 36.8834C70.413 36.8834 70.649 36.8214 70.861 36.6974C71.073 36.5694 71.243 36.3994 71.371 36.1874C71.499 35.9714 71.563 35.7334 71.563 35.4734C71.563 35.2134 71.507 34.9754 71.395 34.7594C71.287 34.5394 71.109 34.3654 70.861 34.2374C70.617 34.1054 70.293 34.0394 69.889 34.0394H67.729L68.617 29.7914H72.745V31.2554H69.805L69.535 32.5754L70.129 32.5814C70.697 32.6014 71.199 32.7394 71.635 32.9954C72.071 33.2514 72.411 33.5954 72.655 34.0274C72.903 34.4554 73.027 34.9374 73.027 35.4734C73.027 35.8654 72.953 36.2354 72.805 36.5834C72.657 36.9314 72.451 37.2374 72.187 37.5014C71.923 37.7654 71.617 37.9734 71.269 38.1254C70.925 38.2734 70.553 38.3474 70.153 38.3474Z" fill="white"/>
<path d="M8.17927 73.6914V66.5394H7.17727L7.51927 65.2914H9.42727V73.6914H8.17927ZM14.2467 73.8474C13.7507 73.8474 13.3027 73.7354 12.9027 73.5114C12.5067 73.2834 12.1647 72.9694 11.8767 72.5694C11.5887 72.1694 11.3687 71.7074 11.2167 71.1834C11.0647 70.6554 10.9887 70.0914 10.9887 69.4914C10.9887 68.8914 11.0647 68.3274 11.2167 67.7994C11.3687 67.2714 11.5887 66.8094 11.8767 66.4134C12.1647 66.0134 12.5067 65.7014 12.9027 65.4774C13.3027 65.2494 13.7507 65.1354 14.2467 65.1354C14.7347 65.1354 15.1787 65.2494 15.5787 65.4774C15.9787 65.7014 16.3187 66.0134 16.5987 66.4134C16.8827 66.8094 17.1007 67.2714 17.2527 67.7994C17.4047 68.3274 17.4807 68.8914 17.4807 69.4914C17.4807 70.0914 17.4047 70.6554 17.2527 71.1834C17.1007 71.7074 16.8827 72.1694 16.5987 72.5694C16.3187 72.9694 15.9787 73.2834 15.5787 73.5114C15.1787 73.7354 14.7347 73.8474 14.2467 73.8474ZM14.2467 72.5994C14.7067 72.5994 15.0887 72.4554 15.3927 72.1674C15.7007 71.8754 15.9307 71.4934 16.0827 71.0214C16.2347 70.5494 16.3107 70.0394 16.3107 69.4914C16.3107 68.9154 16.2307 68.3934 16.0707 67.9254C15.9147 67.4534 15.6827 67.0794 15.3747 66.8034C15.0707 66.5234 14.6947 66.3834 14.2467 66.3834C13.8907 66.3834 13.5807 66.4674 13.3167 66.6354C13.0567 66.8034 12.8407 67.0334 12.6687 67.3254C12.5007 67.6174 12.3727 67.9494 12.2847 68.3214C12.2007 68.6934 12.1587 69.0834 12.1587 69.4914C12.1587 70.0394 12.2367 70.5494 12.3927 71.0214C12.5487 71.4934 12.7807 71.8754 13.0887 72.1674C13.4007 72.4554 13.7867 72.5994 14.2467 72.5994ZM21.471 73.8474C20.975 73.8474 20.527 73.7354 20.127 73.5114C19.731 73.2834 19.389 72.9694 19.101 72.5694C18.813 72.1694 18.593 71.7074 18.441 71.1834C18.289 70.6554 18.213 70.0914 18.213 69.4914C18.213 68.8914 18.289 68.3274 18.441 67.7994C18.593 67.2714 18.813 66.8094 19.101 66.4134C19.389 66.0134 19.731 65.7014 20.127 65.4774C20.527 65.2494 20.975 65.1354 21.471 65.1354C21.959 65.1354 22.403 65.2494 22.803 65.4774C23.203 65.7014 23.543 66.0134 23.823 66.4134C24.107 66.8094 24.325 67.2714 24.477 67.7994C24.629 68.3274 24.705 68.8914 24.705 69.4914C24.705 70.0914 24.629 70.6554 24.477 71.1834C24.325 71.7074 24.107 72.1694 23.823 72.5694C23.543 72.9694 23.203 73.2834 22.803 73.5114C22.403 73.7354 21.959 73.8474 21.471 73.8474ZM21.471 72.5994C21.931 72.5994 22.313 72.4554 22.617 72.1674C22.925 71.8754 23.155 71.4934 23.307 71.0214C23.459 70.5494 23.535 70.0394 23.535 69.4914C23.535 68.9154 23.455 68.3934 23.295 67.9254C23.139 67.4534 22.907 67.0794 22.599 66.8034C22.295 66.5234 21.919 66.3834 21.471 66.3834C21.115 66.3834 20.805 66.4674 20.541 66.6354C20.281 66.8034 20.065 67.0334 19.893 67.3254C19.725 67.6174 19.597 67.9494 19.509 68.3214C19.425 68.6934 19.383 69.0834 19.383 69.4914C19.383 70.0394 19.461 70.5494 19.617 71.0214C19.773 71.4934 20.005 71.8754 20.313 72.1674C20.625 72.4554 21.011 72.5994 21.471 72.5994ZM28.6954 73.8474C28.1994 73.8474 27.7514 73.7354 27.3514 73.5114C26.9554 73.2834 26.6134 72.9694 26.3254 72.5694C26.0374 72.1694 25.8174 71.7074 25.6654 71.1834C25.5134 70.6554 25.4374 70.0914 25.4374 69.4914C25.4374 68.8914 25.5134 68.3274 25.6654 67.7994C25.8174 67.2714 26.0374 66.8094 26.3254 66.4134C26.6134 66.0134 26.9554 65.7014 27.3514 65.4774C27.7514 65.2494 28.1994 65.1354 28.6954 65.1354C29.1834 65.1354 29.6274 65.2494 30.0274 65.4774C30.4274 65.7014 30.7674 66.0134 31.0474 66.4134C31.3314 66.8094 31.5494 67.2714 31.7014 67.7994C31.8534 68.3274 31.9294 68.8914 31.9294 69.4914C31.9294 70.0914 31.8534 70.6554 31.7014 71.1834C31.5494 71.7074 31.3314 72.1694 31.0474 72.5694C30.7674 72.9694 30.4274 73.2834 30.0274 73.5114C29.6274 73.7354 29.1834 73.8474 28.6954 73.8474ZM28.6954 72.5994C29.1554 72.5994 29.5374 72.4554 29.8414 72.1674C30.1494 71.8754 30.3794 71.4934 30.5314 71.0214C30.6834 70.5494 30.7594 70.0394 30.7594 69.4914C30.7594 68.9154 30.6794 68.3934 30.5194 67.9254C30.3634 67.4534 30.1314 67.0794 29.8234 66.8034C29.5194 66.5234 29.1434 66.3834 28.6954 66.3834C28.3394 66.3834 28.0294 66.4674 27.7654 66.6354C27.5054 66.8034 27.2894 67.0334 27.1174 67.3254C26.9494 67.6174 26.8214 67.9494 26.7334 68.3214C26.6494 68.6934 26.6074 69.0834 26.6074 69.4914C26.6074 70.0394 26.6854 70.5494 26.8414 71.0214C26.9974 71.4934 27.2294 71.8754 27.5374 72.1674C27.8494 72.4554 28.2354 72.5994 28.6954 72.5994ZM37.6153 76.6914H36.3673V67.6914H37.6153V68.5734C37.8153 68.2654 38.0713 68.0154 38.3833 67.8234C38.6953 67.6314 39.0633 67.5354 39.4873 67.5354C39.9233 67.5354 40.3313 67.6174 40.7113 67.7814C41.0953 67.9454 41.4313 68.1734 41.7193 68.4654C42.0073 68.7534 42.2333 69.0874 42.3973 69.4674C42.5613 69.8474 42.6433 70.2554 42.6433 70.6914C42.6433 71.1274 42.5613 71.5374 42.3973 71.9214C42.2333 72.3054 42.0073 72.6434 41.7193 72.9354C41.4313 73.2234 41.0953 73.4494 40.7113 73.6134C40.3313 73.7774 39.9233 73.8594 39.4873 73.8594C39.0633 73.8594 38.6953 73.7634 38.3833 73.5714C38.0713 73.3754 37.8153 73.1254 37.6153 72.8214V76.6914ZM39.4753 68.7414C39.1273 68.7414 38.8213 68.8294 38.5573 69.0054C38.2933 69.1814 38.0873 69.4174 37.9393 69.7134C37.7913 70.0054 37.7173 70.3314 37.7173 70.6914C37.7173 71.0514 37.7913 71.3794 37.9393 71.6754C38.0873 71.9714 38.2933 72.2074 38.5573 72.3834C38.8213 72.5594 39.1273 72.6474 39.4753 72.6474C39.8193 72.6474 40.1353 72.5614 40.4233 72.3894C40.7113 72.2134 40.9413 71.9774 41.1133 71.6814C41.2853 71.3854 41.3713 71.0554 41.3713 70.6914C41.3713 70.3354 41.2853 70.0094 41.1133 69.7134C40.9453 69.4174 40.7173 69.1814 40.4293 69.0054C40.1413 68.8294 39.8233 68.7414 39.4753 68.7414ZM46.994 68.9394H45.734L45.728 73.6914H44.48L44.486 68.9394H43.532V67.6914H44.486L44.48 65.8074H45.728L45.734 67.6914H46.994V68.9394ZM50.0262 73.8054C49.7102 73.7854 49.4022 73.7214 49.1022 73.6134C48.8022 73.5054 48.5382 73.3594 48.3102 73.1754C48.0862 72.9874 47.9182 72.7674 47.8062 72.5154L48.8682 72.0594C48.9202 72.1674 49.0102 72.2734 49.1382 72.3774C49.2702 72.4814 49.4242 72.5674 49.6002 72.6354C49.7762 72.6994 49.9602 72.7314 50.1522 72.7314C50.3402 72.7314 50.5142 72.7054 50.6742 72.6534C50.8382 72.5974 50.9722 72.5134 51.0762 72.4014C51.1802 72.2894 51.2322 72.1554 51.2322 71.9994C51.2322 71.8234 51.1722 71.6874 51.0522 71.5914C50.9362 71.4914 50.7902 71.4154 50.6142 71.3634C50.4382 71.3114 50.2622 71.2614 50.0862 71.2134C49.6942 71.1254 49.3342 71.0054 49.0062 70.8534C48.6822 70.6974 48.4242 70.4994 48.2322 70.2594C48.0402 70.0154 47.9442 69.7174 47.9442 69.3654C47.9442 68.9814 48.0482 68.6494 48.2562 68.3694C48.4642 68.0854 48.7362 67.8674 49.0722 67.7154C49.4122 67.5634 49.7742 67.4874 50.1582 67.4874C50.6382 67.4874 51.0782 67.5894 51.4782 67.7934C51.8782 67.9974 52.1842 68.2774 52.3962 68.6334L51.4062 69.2214C51.3462 69.1014 51.2562 68.9934 51.1362 68.8974C51.0162 68.8014 50.8802 68.7254 50.7282 68.6694C50.5762 68.6094 50.4182 68.5754 50.2542 68.5674C50.0502 68.5594 49.8602 68.5834 49.6842 68.6394C49.5122 68.6914 49.3742 68.7754 49.2702 68.8914C49.1662 69.0074 49.1142 69.1554 49.1142 69.3354C49.1142 69.5114 49.1762 69.6434 49.3002 69.7314C49.4242 69.8154 49.5802 69.8834 49.7682 69.9354C49.9602 69.9874 50.1562 70.0454 50.3562 70.1094C50.7122 70.2214 51.0462 70.3594 51.3582 70.5234C51.6702 70.6834 51.9222 70.8814 52.1142 71.1174C52.3062 71.3534 52.3982 71.6414 52.3902 71.9814C52.3902 72.3574 52.2762 72.6874 52.0482 72.9714C51.8242 73.2554 51.5322 73.4714 51.1722 73.6194C50.8122 73.7674 50.4302 73.8294 50.0262 73.8054ZM59.9484 68.9394H58.6884L58.6824 73.6914H57.4344L57.4404 68.9394H56.4864V67.6914H57.4404L57.4344 65.8074H58.6824L58.6884 67.6914H59.9484V68.9394ZM63.762 73.8474C63.21 73.8474 62.706 73.7054 62.25 73.4214C61.798 73.1374 61.436 72.7574 61.164 72.2814C60.896 71.8014 60.762 71.2714 60.762 70.6914C60.762 70.2514 60.84 69.8414 60.996 69.4614C61.152 69.0774 61.366 68.7414 61.638 68.4534C61.914 68.1614 62.234 67.9334 62.598 67.7694C62.962 67.6054 63.35 67.5234 63.762 67.5234C64.314 67.5234 64.816 67.6654 65.268 67.9494C65.724 68.2334 66.086 68.6154 66.354 69.0954C66.626 69.5754 66.762 70.1074 66.762 70.6914C66.762 71.1274 66.684 71.5354 66.528 71.9154C66.372 72.2954 66.156 72.6314 65.88 72.9234C65.608 73.2114 65.29 73.4374 64.926 73.6014C64.566 73.7654 64.178 73.8474 63.762 73.8474ZM63.762 72.5994C64.094 72.5994 64.392 72.5114 64.656 72.3354C64.92 72.1594 65.128 71.9274 65.28 71.6394C65.436 71.3474 65.514 71.0314 65.514 70.6914C65.514 70.3434 65.434 70.0234 65.274 69.7314C65.118 69.4394 64.908 69.2074 64.644 69.0354C64.38 68.8594 64.086 68.7714 63.762 68.7714C63.434 68.7714 63.136 68.8594 62.868 69.0354C62.604 69.2114 62.394 69.4454 62.238 69.7374C62.086 70.0294 62.01 70.3474 62.01 70.6914C62.01 71.0474 62.09 71.3694 62.25 71.6574C62.41 71.9454 62.622 72.1754 62.886 72.3474C63.154 72.5154 63.446 72.5994 63.762 72.5994ZM74.0916 73.6914H72.8496L70.8396 67.6914H72.0636L73.4796 71.9034L74.8836 67.6914H76.1436L77.5476 71.9034L78.9576 67.6914H80.1816L78.1776 73.6914H76.9236L75.5076 69.4494L74.0916 73.6914ZM81.3537 67.6914H82.6017V73.6914H81.3537V67.6914ZM81.9897 66.8214C81.7977 66.8214 81.6377 66.7594 81.5097 66.6354C81.3817 66.5114 81.3177 66.3554 81.3177 66.1674C81.3177 65.9834 81.3817 65.8294 81.5097 65.7054C81.6377 65.5774 81.7957 65.5134 81.9837 65.5134C82.1677 65.5134 82.3237 65.5774 82.4517 65.7054C82.5797 65.8294 82.6437 65.9834 82.6437 66.1674C82.6437 66.3554 82.5797 66.5114 82.4517 66.6354C82.3277 66.7594 82.1737 66.8214 81.9897 66.8214ZM87.4453 68.9394H86.1853L86.1793 73.6914H84.9313L84.9373 68.9394H83.9833V67.6914H84.9373L84.9313 65.8074H86.1793L86.1853 67.6914H87.4453V68.9394ZM94.1595 69.9294V73.6914H92.9115V70.2354C92.9115 69.9674 92.8455 69.7234 92.7135 69.5034C92.5855 69.2834 92.4115 69.1094 92.1915 68.9814C91.9755 68.8494 91.7315 68.7834 91.4595 68.7834C91.1955 68.7834 90.9535 68.8494 90.7335 68.9814C90.5135 69.1094 90.3375 69.2834 90.2055 69.5034C90.0735 69.7234 90.0075 69.9674 90.0075 70.2354V73.6914H88.7595V64.6914H90.0075V68.3274C90.2155 68.0794 90.4715 67.8834 90.7755 67.7394C91.0795 67.5954 91.4075 67.5234 91.7595 67.5234C92.2035 67.5234 92.6075 67.6314 92.9715 67.8474C93.3355 68.0634 93.6235 68.3534 93.8355 68.7174C94.0515 69.0814 94.1595 69.4854 94.1595 69.9294ZM100.154 64.6914H101.402V73.6914H100.154V72.8094C99.9579 73.1214 99.7019 73.3734 99.3859 73.5654C99.0699 73.7534 98.6999 73.8474 98.2759 73.8474C97.8399 73.8474 97.4319 73.7654 97.0519 73.6014C96.6719 73.4374 96.3359 73.2114 96.0439 72.9234C95.7559 72.6314 95.5299 72.2954 95.3659 71.9154C95.2019 71.5354 95.1199 71.1274 95.1199 70.6914C95.1199 70.2554 95.2019 69.8474 95.3659 69.4674C95.5299 69.0834 95.7559 68.7474 96.0439 68.4594C96.3359 68.1674 96.6719 67.9394 97.0519 67.7754C97.4319 67.6114 97.8399 67.5294 98.2759 67.5294C98.6999 67.5294 99.0699 67.6254 99.3859 67.8174C99.7019 68.0054 99.9579 68.2534 100.154 68.5614V64.6914ZM98.2879 72.6414C98.6399 72.6414 98.9479 72.5554 99.2119 72.3834C99.4759 72.2074 99.6799 71.9714 99.8239 71.6754C99.9719 71.3794 100.046 71.0514 100.046 70.6914C100.046 70.3274 99.9719 69.9974 99.8239 69.7014C99.6759 69.4054 99.4699 69.1714 99.2059 68.9994C98.9459 68.8234 98.6399 68.7354 98.2879 68.7354C97.9399 68.7354 97.6219 68.8234 97.3339 68.9994C97.0499 69.1754 96.8219 69.4114 96.6499 69.7074C96.4819 70.0034 96.3979 70.3314 96.3979 70.6914C96.3979 71.0554 96.4839 71.3854 96.6559 71.6814C96.8319 71.9734 97.0619 72.2074 97.3459 72.3834C97.6339 72.5554 97.9479 72.6414 98.2879 72.6414ZM103.079 73.6914V67.6914H104.327V68.3274C104.535 68.0794 104.791 67.8834 105.095 67.7394C105.399 67.5954 105.727 67.5234 106.079 67.5234C106.303 67.5234 106.525 67.5534 106.745 67.6134L106.247 68.8734C106.091 68.8134 105.935 68.7834 105.779 68.7834C105.515 68.7834 105.273 68.8494 105.053 68.9814C104.833 69.1094 104.657 69.2834 104.525 69.5034C104.393 69.7234 104.327 69.9674 104.327 70.2354V73.6914H103.079ZM112.065 67.6914H113.313V73.6914H112.059L112.011 72.8214C111.835 73.1294 111.597 73.3774 111.297 73.5654C110.997 73.7534 110.643 73.8474 110.235 73.8474C109.795 73.8474 109.381 73.7654 108.993 73.6014C108.605 73.4334 108.263 73.2014 107.967 72.9054C107.675 72.6094 107.447 72.2694 107.283 71.8854C107.119 71.4974 107.037 71.0814 107.037 70.6374C107.037 70.2094 107.117 69.8074 107.277 69.4314C107.437 69.0514 107.659 68.7194 107.943 68.4354C108.227 68.1514 108.555 67.9294 108.927 67.7694C109.303 67.6054 109.705 67.5234 110.133 67.5234C110.569 67.5234 110.953 67.6234 111.285 67.8234C111.621 68.0194 111.899 68.2714 112.119 68.5794L112.065 67.6914ZM110.205 72.6414C110.557 72.6414 110.865 72.5554 111.129 72.3834C111.393 72.2074 111.597 71.9714 111.741 71.6754C111.889 71.3794 111.963 71.0514 111.963 70.6914C111.963 70.3274 111.889 69.9974 111.741 69.7014C111.593 69.4054 111.387 69.1714 111.123 68.9994C110.863 68.8234 110.557 68.7354 110.205 68.7354C109.857 68.7354 109.539 68.8234 109.251 68.9994C108.963 69.1754 108.735 69.4114 108.567 69.7074C108.399 70.0034 108.315 70.3314 108.315 70.6914C108.315 71.0554 108.401 71.3854 108.573 71.6814C108.749 71.9734 108.979 72.2074 109.263 72.3834C109.551 72.5554 109.865 72.6414 110.205 72.6414ZM117.42 73.6914H116.178L114.168 67.6914H115.392L116.808 71.9034L118.212 67.6914H119.472L120.876 71.9034L122.286 67.6914H123.51L121.506 73.6914H120.252L118.836 69.4494L117.42 73.6914Z" fill="white"/>
<path d="M247.697 33.6914C247.697 46.9462 236.952 57.6914 223.697 57.6914C210.442 57.6914 199.697 46.9462 199.697 33.6914C199.697 20.4366 210.442 9.69141 223.697 9.69141C236.952 9.69141 247.697 20.4366 247.697 33.6914ZM204.977 33.6914C204.977 44.0302 213.358 52.4114 223.697 52.4114C234.036 52.4114 242.417 44.0302 242.417 33.6914C242.417 23.3526 234.036 14.9714 223.697 14.9714C213.358 14.9714 204.977 23.3526 204.977 33.6914Z" fill="white"/>
<path d="M247.697 33.6914C247.697 46.9462 236.952 57.6914 223.697 57.6914C210.442 57.6914 199.697 46.9462 199.697 33.6914C199.697 20.4366 210.442 9.69141 223.697 9.69141C236.952 9.69141 247.697 20.4366 247.697 33.6914ZM204.973 33.6914C204.973 44.0325 213.356 52.4155 223.697 52.4155C234.038 52.4155 242.421 44.0325 242.421 33.6914C242.421 23.3503 234.038 14.9673 223.697 14.9673C213.356 14.9673 204.973 23.3503 204.973 33.6914Z" fill="white"/>
<path d="M212.233 38.1914V31.2554H211.177L211.573 29.7914H213.697V38.1914H212.233ZM218.528 38.3474C218.04 38.3474 217.596 38.2354 217.196 38.0114C216.796 37.7834 216.45 37.4694 216.158 37.0694C215.87 36.6694 215.648 36.2074 215.492 35.6834C215.336 35.1554 215.258 34.5914 215.258 33.9914C215.258 33.3914 215.336 32.8294 215.492 32.3054C215.648 31.7774 215.87 31.3134 216.158 30.9134C216.45 30.5134 216.796 30.2014 217.196 29.9774C217.596 29.7494 218.04 29.6354 218.528 29.6354C219.016 29.6354 219.46 29.7494 219.86 29.9774C220.26 30.2014 220.602 30.5134 220.886 30.9134C221.174 31.3134 221.396 31.7774 221.552 32.3054C221.712 32.8294 221.792 33.3914 221.792 33.9914C221.792 34.5914 221.712 35.1554 221.552 35.6834C221.396 36.2074 221.174 36.6694 220.886 37.0694C220.602 37.4694 220.26 37.7834 219.86 38.0114C219.46 38.2354 219.016 38.3474 218.528 38.3474ZM218.528 36.8834C218.956 36.8834 219.31 36.7474 219.59 36.4754C219.87 36.2034 220.078 35.8474 220.214 35.4074C220.35 34.9674 220.418 34.4954 220.418 33.9914C220.418 33.4594 220.346 32.9754 220.202 32.5394C220.058 32.0994 219.846 31.7494 219.566 31.4894C219.286 31.2294 218.94 31.0994 218.528 31.0994C218.204 31.0994 217.922 31.1794 217.682 31.3394C217.446 31.4954 217.25 31.7094 217.094 31.9814C216.938 32.2534 216.822 32.5634 216.746 32.9114C216.67 33.2554 216.632 33.6154 216.632 33.9914C216.632 34.4914 216.7 34.9634 216.836 35.4074C216.976 35.8474 217.186 36.2034 217.466 36.4754C217.75 36.7474 218.104 36.8834 218.528 36.8834ZM225.753 38.3474C225.265 38.3474 224.821 38.2354 224.421 38.0114C224.021 37.7834 223.675 37.4694 223.383 37.0694C223.095 36.6694 222.873 36.2074 222.717 35.6834C222.561 35.1554 222.483 34.5914 222.483 33.9914C222.483 33.3914 222.561 32.8294 222.717 32.3054C222.873 31.7774 223.095 31.3134 223.383 30.9134C223.675 30.5134 224.021 30.2014 224.421 29.9774C224.821 29.7494 225.265 29.6354 225.753 29.6354C226.241 29.6354 226.685 29.7494 227.085 29.9774C227.485 30.2014 227.827 30.5134 228.111 30.9134C228.399 31.3134 228.621 31.7774 228.777 32.3054C228.937 32.8294 229.017 33.3914 229.017 33.9914C229.017 34.5914 228.937 35.1554 228.777 35.6834C228.621 36.2074 228.399 36.6694 228.111 37.0694C227.827 37.4694 227.485 37.7834 227.085 38.0114C226.685 38.2354 226.241 38.3474 225.753 38.3474ZM225.753 36.8834C226.181 36.8834 226.535 36.7474 226.815 36.4754C227.095 36.2034 227.303 35.8474 227.439 35.4074C227.575 34.9674 227.643 34.4954 227.643 33.9914C227.643 33.4594 227.571 32.9754 227.427 32.5394C227.283 32.0994 227.071 31.7494 226.791 31.4894C226.511 31.2294 226.165 31.0994 225.753 31.0994C225.429 31.0994 225.147 31.1794 224.907 31.3394C224.671 31.4954 224.475 31.7094 224.319 31.9814C224.163 32.2534 224.047 32.5634 223.971 32.9114C223.895 33.2554 223.857 33.6154 223.857 33.9914C223.857 34.4914 223.925 34.9634 224.061 35.4074C224.201 35.8474 224.411 36.2034 224.691 36.4754C224.975 36.7474 225.329 36.8834 225.753 36.8834ZM232.977 38.3474C232.489 38.3474 232.045 38.2354 231.645 38.0114C231.245 37.7834 230.899 37.4694 230.607 37.0694C230.319 36.6694 230.097 36.2074 229.941 35.6834C229.785 35.1554 229.707 34.5914 229.707 33.9914C229.707 33.3914 229.785 32.8294 229.941 32.3054C230.097 31.7774 230.319 31.3134 230.607 30.9134C230.899 30.5134 231.245 30.2014 231.645 29.9774C232.045 29.7494 232.489 29.6354 232.977 29.6354C233.465 29.6354 233.909 29.7494 234.309 29.9774C234.709 30.2014 235.051 30.5134 235.335 30.9134C235.623 31.3134 235.845 31.7774 236.001 32.3054C236.161 32.8294 236.241 33.3914 236.241 33.9914C236.241 34.5914 236.161 35.1554 236.001 35.6834C235.845 36.2074 235.623 36.6694 235.335 37.0694C235.051 37.4694 234.709 37.7834 234.309 38.0114C233.909 38.2354 233.465 38.3474 232.977 38.3474ZM232.977 36.8834C233.405 36.8834 233.759 36.7474 234.039 36.4754C234.319 36.2034 234.527 35.8474 234.663 35.4074C234.799 34.9674 234.867 34.4954 234.867 33.9914C234.867 33.4594 234.795 32.9754 234.651 32.5394C234.507 32.0994 234.295 31.7494 234.015 31.4894C233.735 31.2294 233.389 31.0994 232.977 31.0994C232.653 31.0994 232.371 31.1794 232.131 31.3394C231.895 31.4954 231.699 31.7094 231.543 31.9814C231.387 32.2534 231.271 32.5634 231.195 32.9114C231.119 33.2554 231.081 33.6154 231.081 33.9914C231.081 34.4914 231.149 34.9634 231.285 35.4074C231.425 35.8474 231.635 36.2034 231.915 36.4754C232.199 36.7474 232.553 36.8834 232.977 36.8834Z" fill="white"/>
<path d="M166.179 73.6914V66.5394H165.177L165.519 65.2914H167.427V73.6914H166.179ZM172.247 73.8474C171.751 73.8474 171.303 73.7354 170.903 73.5114C170.507 73.2834 170.165 72.9694 169.877 72.5694C169.589 72.1694 169.369 71.7074 169.217 71.1834C169.065 70.6554 168.989 70.0914 168.989 69.4914C168.989 68.8914 169.065 68.3274 169.217 67.7994C169.369 67.2714 169.589 66.8094 169.877 66.4134C170.165 66.0134 170.507 65.7014 170.903 65.4774C171.303 65.2494 171.751 65.1354 172.247 65.1354C172.735 65.1354 173.179 65.2494 173.579 65.4774C173.979 65.7014 174.319 66.0134 174.599 66.4134C174.883 66.8094 175.101 67.2714 175.253 67.7994C175.405 68.3274 175.481 68.8914 175.481 69.4914C175.481 70.0914 175.405 70.6554 175.253 71.1834C175.101 71.7074 174.883 72.1694 174.599 72.5694C174.319 72.9694 173.979 73.2834 173.579 73.5114C173.179 73.7354 172.735 73.8474 172.247 73.8474ZM172.247 72.5994C172.707 72.5994 173.089 72.4554 173.393 72.1674C173.701 71.8754 173.931 71.4934 174.083 71.0214C174.235 70.5494 174.311 70.0394 174.311 69.4914C174.311 68.9154 174.231 68.3934 174.071 67.9254C173.915 67.4534 173.683 67.0794 173.375 66.8034C173.071 66.5234 172.695 66.3834 172.247 66.3834C171.891 66.3834 171.581 66.4674 171.317 66.6354C171.057 66.8034 170.841 67.0334 170.669 67.3254C170.501 67.6174 170.373 67.9494 170.285 68.3214C170.201 68.6934 170.159 69.0834 170.159 69.4914C170.159 70.0394 170.237 70.5494 170.393 71.0214C170.549 71.4934 170.781 71.8754 171.089 72.1674C171.401 72.4554 171.787 72.5994 172.247 72.5994ZM179.471 73.8474C178.975 73.8474 178.527 73.7354 178.127 73.5114C177.731 73.2834 177.389 72.9694 177.101 72.5694C176.813 72.1694 176.593 71.7074 176.441 71.1834C176.289 70.6554 176.213 70.0914 176.213 69.4914C176.213 68.8914 176.289 68.3274 176.441 67.7994C176.593 67.2714 176.813 66.8094 177.101 66.4134C177.389 66.0134 177.731 65.7014 178.127 65.4774C178.527 65.2494 178.975 65.1354 179.471 65.1354C179.959 65.1354 180.403 65.2494 180.803 65.4774C181.203 65.7014 181.543 66.0134 181.823 66.4134C182.107 66.8094 182.325 67.2714 182.477 67.7994C182.629 68.3274 182.705 68.8914 182.705 69.4914C182.705 70.0914 182.629 70.6554 182.477 71.1834C182.325 71.7074 182.107 72.1694 181.823 72.5694C181.543 72.9694 181.203 73.2834 180.803 73.5114C180.403 73.7354 179.959 73.8474 179.471 73.8474ZM179.471 72.5994C179.931 72.5994 180.313 72.4554 180.617 72.1674C180.925 71.8754 181.155 71.4934 181.307 71.0214C181.459 70.5494 181.535 70.0394 181.535 69.4914C181.535 68.9154 181.455 68.3934 181.295 67.9254C181.139 67.4534 180.907 67.0794 180.599 66.8034C180.295 66.5234 179.919 66.3834 179.471 66.3834C179.115 66.3834 178.805 66.4674 178.541 66.6354C178.281 66.8034 178.065 67.0334 177.893 67.3254C177.725 67.6174 177.597 67.9494 177.509 68.3214C177.425 68.6934 177.383 69.0834 177.383 69.4914C177.383 70.0394 177.461 70.5494 177.617 71.0214C177.773 71.4934 178.005 71.8754 178.313 72.1674C178.625 72.4554 179.011 72.5994 179.471 72.5994ZM186.695 73.8474C186.199 73.8474 185.751 73.7354 185.351 73.5114C184.955 73.2834 184.613 72.9694 184.325 72.5694C184.037 72.1694 183.817 71.7074 183.665 71.1834C183.513 70.6554 183.437 70.0914 183.437 69.4914C183.437 68.8914 183.513 68.3274 183.665 67.7994C183.817 67.2714 184.037 66.8094 184.325 66.4134C184.613 66.0134 184.955 65.7014 185.351 65.4774C185.751 65.2494 186.199 65.1354 186.695 65.1354C187.183 65.1354 187.627 65.2494 188.027 65.4774C188.427 65.7014 188.767 66.0134 189.047 66.4134C189.331 66.8094 189.549 67.2714 189.701 67.7994C189.853 68.3274 189.929 68.8914 189.929 69.4914C189.929 70.0914 189.853 70.6554 189.701 71.1834C189.549 71.7074 189.331 72.1694 189.047 72.5694C188.767 72.9694 188.427 73.2834 188.027 73.5114C187.627 73.7354 187.183 73.8474 186.695 73.8474ZM186.695 72.5994C187.155 72.5994 187.537 72.4554 187.841 72.1674C188.149 71.8754 188.379 71.4934 188.531 71.0214C188.683 70.5494 188.759 70.0394 188.759 69.4914C188.759 68.9154 188.679 68.3934 188.519 67.9254C188.363 67.4534 188.131 67.0794 187.823 66.8034C187.519 66.5234 187.143 66.3834 186.695 66.3834C186.339 66.3834 186.029 66.4674 185.765 66.6354C185.505 66.8034 185.289 67.0334 185.117 67.3254C184.949 67.6174 184.821 67.9494 184.733 68.3214C184.649 68.6934 184.607 69.0834 184.607 69.4914C184.607 70.0394 184.685 70.5494 184.841 71.0214C184.997 71.4934 185.229 71.8754 185.537 72.1674C185.849 72.4554 186.235 72.5994 186.695 72.5994ZM195.615 76.6914H194.367V67.6914H195.615V68.5734C195.815 68.2654 196.071 68.0154 196.383 67.8234C196.695 67.6314 197.063 67.5354 197.487 67.5354C197.923 67.5354 198.331 67.6174 198.711 67.7814C199.095 67.9454 199.431 68.1734 199.719 68.4654C200.007 68.7534 200.233 69.0874 200.397 69.4674C200.561 69.8474 200.643 70.2554 200.643 70.6914C200.643 71.1274 200.561 71.5374 200.397 71.9214C200.233 72.3054 200.007 72.6434 199.719 72.9354C199.431 73.2234 199.095 73.4494 198.711 73.6134C198.331 73.7774 197.923 73.8594 197.487 73.8594C197.063 73.8594 196.695 73.7634 196.383 73.5714C196.071 73.3754 195.815 73.1254 195.615 72.8214V76.6914ZM197.475 68.7414C197.127 68.7414 196.821 68.8294 196.557 69.0054C196.293 69.1814 196.087 69.4174 195.939 69.7134C195.791 70.0054 195.717 70.3314 195.717 70.6914C195.717 71.0514 195.791 71.3794 195.939 71.6754C196.087 71.9714 196.293 72.2074 196.557 72.3834C196.821 72.5594 197.127 72.6474 197.475 72.6474C197.819 72.6474 198.135 72.5614 198.423 72.3894C198.711 72.2134 198.941 71.9774 199.113 71.6814C199.285 71.3854 199.371 71.0554 199.371 70.6914C199.371 70.3354 199.285 70.0094 199.113 69.7134C198.945 69.4174 198.717 69.1814 198.429 69.0054C198.141 68.8294 197.823 68.7414 197.475 68.7414ZM204.994 68.9394H203.734L203.728 73.6914H202.48L202.486 68.9394H201.532V67.6914H202.486L202.48 65.8074H203.728L203.734 67.6914H204.994V68.9394ZM208.026 73.8054C207.71 73.7854 207.402 73.7214 207.102 73.6134C206.802 73.5054 206.538 73.3594 206.31 73.1754C206.086 72.9874 205.918 72.7674 205.806 72.5154L206.868 72.0594C206.92 72.1674 207.01 72.2734 207.138 72.3774C207.27 72.4814 207.424 72.5674 207.6 72.6354C207.776 72.6994 207.96 72.7314 208.152 72.7314C208.34 72.7314 208.514 72.7054 208.674 72.6534C208.838 72.5974 208.972 72.5134 209.076 72.4014C209.18 72.2894 209.232 72.1554 209.232 71.9994C209.232 71.8234 209.172 71.6874 209.052 71.5914C208.936 71.4914 208.79 71.4154 208.614 71.3634C208.438 71.3114 208.262 71.2614 208.086 71.2134C207.694 71.1254 207.334 71.0054 207.006 70.8534C206.682 70.6974 206.424 70.4994 206.232 70.2594C206.04 70.0154 205.944 69.7174 205.944 69.3654C205.944 68.9814 206.048 68.6494 206.256 68.3694C206.464 68.0854 206.736 67.8674 207.072 67.7154C207.412 67.5634 207.774 67.4874 208.158 67.4874C208.638 67.4874 209.078 67.5894 209.478 67.7934C209.878 67.9974 210.184 68.2774 210.396 68.6334L209.406 69.2214C209.346 69.1014 209.256 68.9934 209.136 68.8974C209.016 68.8014 208.88 68.7254 208.728 68.6694C208.576 68.6094 208.418 68.5754 208.254 68.5674C208.05 68.5594 207.86 68.5834 207.684 68.6394C207.512 68.6914 207.374 68.7754 207.27 68.8914C207.166 69.0074 207.114 69.1554 207.114 69.3354C207.114 69.5114 207.176 69.6434 207.3 69.7314C207.424 69.8154 207.58 69.8834 207.768 69.9354C207.96 69.9874 208.156 70.0454 208.356 70.1094C208.712 70.2214 209.046 70.3594 209.358 70.5234C209.67 70.6834 209.922 70.8814 210.114 71.1174C210.306 71.3534 210.398 71.6414 210.39 71.9814C210.39 72.3574 210.276 72.6874 210.048 72.9714C209.824 73.2554 209.532 73.4714 209.172 73.6194C208.812 73.7674 208.43 73.8294 208.026 73.8054ZM217.948 68.9394H216.688L216.682 73.6914H215.434L215.44 68.9394H214.486V67.6914H215.44L215.434 65.8074H216.682L216.688 67.6914H217.948V68.9394ZM221.762 73.8474C221.21 73.8474 220.706 73.7054 220.25 73.4214C219.798 73.1374 219.436 72.7574 219.164 72.2814C218.896 71.8014 218.762 71.2714 218.762 70.6914C218.762 70.2514 218.84 69.8414 218.996 69.4614C219.152 69.0774 219.366 68.7414 219.638 68.4534C219.914 68.1614 220.234 67.9334 220.598 67.7694C220.962 67.6054 221.35 67.5234 221.762 67.5234C222.314 67.5234 222.816 67.6654 223.268 67.9494C223.724 68.2334 224.086 68.6154 224.354 69.0954C224.626 69.5754 224.762 70.1074 224.762 70.6914C224.762 71.1274 224.684 71.5354 224.528 71.9154C224.372 72.2954 224.156 72.6314 223.88 72.9234C223.608 73.2114 223.29 73.4374 222.926 73.6014C222.566 73.7654 222.178 73.8474 221.762 73.8474ZM221.762 72.5994C222.094 72.5994 222.392 72.5114 222.656 72.3354C222.92 72.1594 223.128 71.9274 223.28 71.6394C223.436 71.3474 223.514 71.0314 223.514 70.6914C223.514 70.3434 223.434 70.0234 223.274 69.7314C223.118 69.4394 222.908 69.2074 222.644 69.0354C222.38 68.8594 222.086 68.7714 221.762 68.7714C221.434 68.7714 221.136 68.8594 220.868 69.0354C220.604 69.2114 220.394 69.4454 220.238 69.7374C220.086 70.0294 220.01 70.3474 220.01 70.6914C220.01 71.0474 220.09 71.3694 220.25 71.6574C220.41 71.9454 220.622 72.1754 220.886 72.3474C221.154 72.5154 221.446 72.5994 221.762 72.5994ZM232.092 73.6914H230.85L228.84 67.6914H230.064L231.48 71.9034L232.884 67.6914H234.144L235.548 71.9034L236.958 67.6914H238.182L236.178 73.6914H234.924L233.508 69.4494L232.092 73.6914ZM239.354 67.6914H240.602V73.6914H239.354V67.6914ZM239.99 66.8214C239.798 66.8214 239.638 66.7594 239.51 66.6354C239.382 66.5114 239.318 66.3554 239.318 66.1674C239.318 65.9834 239.382 65.8294 239.51 65.7054C239.638 65.5774 239.796 65.5134 239.984 65.5134C240.168 65.5134 240.324 65.5774 240.452 65.7054C240.58 65.8294 240.644 65.9834 240.644 66.1674C240.644 66.3554 240.58 66.5114 240.452 66.6354C240.328 66.7594 240.174 66.8214 239.99 66.8214ZM245.445 68.9394H244.185L244.179 73.6914H242.931L242.937 68.9394H241.983V67.6914H242.937L242.931 65.8074H244.179L244.185 67.6914H245.445V68.9394ZM252.159 69.9294V73.6914H250.911V70.2354C250.911 69.9674 250.845 69.7234 250.713 69.5034C250.585 69.2834 250.411 69.1094 250.191 68.9814C249.975 68.8494 249.731 68.7834 249.459 68.7834C249.195 68.7834 248.953 68.8494 248.733 68.9814C248.513 69.1094 248.337 69.2834 248.205 69.5034C248.073 69.7234 248.007 69.9674 248.007 70.2354V73.6914H246.759V64.6914H248.007V68.3274C248.215 68.0794 248.471 67.8834 248.775 67.7394C249.079 67.5954 249.407 67.5234 249.759 67.5234C250.203 67.5234 250.607 67.6314 250.971 67.8474C251.335 68.0634 251.623 68.3534 251.835 68.7174C252.051 69.0814 252.159 69.4854 252.159 69.9294ZM258.154 64.6914H259.402V73.6914H258.154V72.8094C257.958 73.1214 257.702 73.3734 257.386 73.5654C257.07 73.7534 256.7 73.8474 256.276 73.8474C255.84 73.8474 255.432 73.7654 255.052 73.6014C254.672 73.4374 254.336 73.2114 254.044 72.9234C253.756 72.6314 253.53 72.2954 253.366 71.9154C253.202 71.5354 253.12 71.1274 253.12 70.6914C253.12 70.2554 253.202 69.8474 253.366 69.4674C253.53 69.0834 253.756 68.7474 254.044 68.4594C254.336 68.1674 254.672 67.9394 255.052 67.7754C255.432 67.6114 255.84 67.5294 256.276 67.5294C256.7 67.5294 257.07 67.6254 257.386 67.8174C257.702 68.0054 257.958 68.2534 258.154 68.5614V64.6914ZM256.288 72.6414C256.64 72.6414 256.948 72.5554 257.212 72.3834C257.476 72.2074 257.68 71.9714 257.824 71.6754C257.972 71.3794 258.046 71.0514 258.046 70.6914C258.046 70.3274 257.972 69.9974 257.824 69.7014C257.676 69.4054 257.47 69.1714 257.206 68.9994C256.946 68.8234 256.64 68.7354 256.288 68.7354C255.94 68.7354 255.622 68.8234 255.334 68.9994C255.05 69.1754 254.822 69.4114 254.65 69.7074C254.482 70.0034 254.398 70.3314 254.398 70.6914C254.398 71.0554 254.484 71.3854 254.656 71.6814C254.832 71.9734 255.062 72.2074 255.346 72.3834C255.634 72.5554 255.948 72.6414 256.288 72.6414ZM261.079 73.6914V67.6914H262.327V68.3274C262.535 68.0794 262.791 67.8834 263.095 67.7394C263.399 67.5954 263.727 67.5234 264.079 67.5234C264.303 67.5234 264.525 67.5534 264.745 67.6134L264.247 68.8734C264.091 68.8134 263.935 68.7834 263.779 68.7834C263.515 68.7834 263.273 68.8494 263.053 68.9814C262.833 69.1094 262.657 69.2834 262.525 69.5034C262.393 69.7234 262.327 69.9674 262.327 70.2354V73.6914H261.079ZM270.065 67.6914H271.313V73.6914H270.059L270.011 72.8214C269.835 73.1294 269.597 73.3774 269.297 73.5654C268.997 73.7534 268.643 73.8474 268.235 73.8474C267.795 73.8474 267.381 73.7654 266.993 73.6014C266.605 73.4334 266.263 73.2014 265.967 72.9054C265.675 72.6094 265.447 72.2694 265.283 71.8854C265.119 71.4974 265.037 71.0814 265.037 70.6374C265.037 70.2094 265.117 69.8074 265.277 69.4314C265.437 69.0514 265.659 68.7194 265.943 68.4354C266.227 68.1514 266.555 67.9294 266.927 67.7694C267.303 67.6054 267.705 67.5234 268.133 67.5234C268.569 67.5234 268.953 67.6234 269.285 67.8234C269.621 68.0194 269.899 68.2714 270.119 68.5794L270.065 67.6914ZM268.205 72.6414C268.557 72.6414 268.865 72.5554 269.129 72.3834C269.393 72.2074 269.597 71.9714 269.741 71.6754C269.889 71.3794 269.963 71.0514 269.963 70.6914C269.963 70.3274 269.889 69.9974 269.741 69.7014C269.593 69.4054 269.387 69.1714 269.123 68.9994C268.863 68.8234 268.557 68.7354 268.205 68.7354C267.857 68.7354 267.539 68.8234 267.251 68.9994C266.963 69.1754 266.735 69.4114 266.567 69.7074C266.399 70.0034 266.315 70.3314 266.315 70.6914C266.315 71.0554 266.401 71.3854 266.573 71.6814C266.749 71.9734 266.979 72.2074 267.263 72.3834C267.551 72.5554 267.865 72.6414 268.205 72.6414ZM275.42 73.6914H274.178L272.168 67.6914H273.392L274.808 71.9034L276.212 67.6914H277.472L278.876 71.9034L280.286 67.6914H281.51L279.506 73.6914H278.252L276.836 69.4494L275.42 73.6914Z" fill="white"/>
<path fill-rule="evenodd" clip-rule="evenodd" d="M137.697 44.1914C137.697 44.6056 138.033 44.9414 138.447 44.9414L149.085 44.9414L144.927 48.9008C144.629 49.1879 144.62 49.6627 144.907 49.9612C145.194 50.2598 145.669 50.2691 145.967 49.982L151.467 44.732C151.614 44.5906 151.697 44.3954 151.697 44.1914C151.697 43.9874 151.614 43.7922 151.467 43.6508L145.967 38.4008C145.669 38.1137 145.194 38.123 144.907 38.4216C144.62 38.7202 144.629 39.1949 144.927 39.482L149.085 43.4414L138.447 43.4414C138.033 43.4414 137.697 43.7772 137.697 44.1914Z" fill="white"/>
<defs>
<linearGradient id="paint0_linear_879_6716" x1="0.197266" y1="0.691406" x2="293.208" y2="76.3682" gradientUnits="userSpaceOnUse">
<stop offset="0.00662476" stop-color="#45308D"/>
<stop offset="1" stop-color="#9B25AD"/>
</linearGradient>
</defs>
</svg>
