<svg width="290" height="88" viewBox="0 0 290 88" fill="none" xmlns="http://www.w3.org/2000/svg">
<rect x="0.197266" y="0.941406" width="289" height="87" rx="6" fill="url(#paint0_linear_879_6716)"/>
<path d="M93.1973 33.9414C93.1973 47.1962 82.4521 57.9414 69.1973 57.9414C55.9424 57.9414 45.1973 47.1962 45.1973 33.9414C45.1973 20.6866 55.9424 9.94141 69.1973 9.94141C82.4521 9.94141 93.1973 20.6866 93.1973 33.9414ZM50.4773 33.9414C50.4773 44.2802 58.8585 52.6614 69.1973 52.6614C79.536 52.6614 87.9173 44.2802 87.9173 33.9414C87.9173 23.6026 79.536 15.2214 69.1973 15.2214C58.8585 15.2214 50.4773 23.6026 50.4773 33.9414Z" fill="#F6C4D0"/>
<path d="M69.1973 9.94141C72.7337 9.94141 76.2264 10.7229 79.4255 12.2301C82.6247 13.7372 85.4512 15.9327 87.703 18.6595C89.9548 21.3863 91.5762 24.5771 92.4511 28.0035C93.3261 31.43 93.433 35.0074 92.7642 38.48L87.5836 37.4823C88.1053 34.7731 88.0219 31.982 87.3393 29.3088C86.6567 26.6356 85.3917 24.1463 83.635 22.0189C81.8782 19.8915 79.673 18.1786 77.1771 17.0028C74.6812 15.827 71.9563 15.2173 69.1973 15.2173V9.94141Z" fill="white"/>
<path d="M60.7333 38.4414V31.5054H59.6773L60.0733 30.0414H62.1973V38.4414H60.7333ZM66.6982 38.5974C66.1582 38.5974 65.6702 38.4674 65.2342 38.2074C64.7982 37.9434 64.4522 37.5934 64.1962 37.1574C63.9442 36.7214 63.8182 36.2434 63.8182 35.7234H65.2822C65.2822 35.9834 65.3462 36.2214 65.4742 36.4374C65.6022 36.6494 65.7722 36.8194 65.9842 36.9474C66.2002 37.0714 66.4382 37.1334 66.6982 37.1334C66.9582 37.1334 67.1942 37.0714 67.4062 36.9474C67.6182 36.8194 67.7882 36.6494 67.9162 36.4374C68.0442 36.2214 68.1082 35.9834 68.1082 35.7234C68.1082 35.4634 68.0522 35.2254 67.9402 35.0094C67.8322 34.7894 67.6542 34.6154 67.4062 34.4874C67.1622 34.3554 66.8382 34.2894 66.4342 34.2894H64.2742L65.1622 30.0414H69.2902V31.5054H66.3502L66.0802 32.8254L66.6742 32.8314C67.2422 32.8514 67.7442 32.9894 68.1802 33.2454C68.6162 33.5014 68.9562 33.8454 69.2002 34.2774C69.4482 34.7054 69.5722 35.1874 69.5722 35.7234C69.5722 36.1154 69.4982 36.4854 69.3502 36.8334C69.2022 37.1814 68.9962 37.4874 68.7322 37.7514C68.4682 38.0154 68.1622 38.2234 67.8142 38.3754C67.4702 38.5234 67.0982 38.5974 66.6982 38.5974ZM73.653 38.5974C73.113 38.5974 72.625 38.4674 72.189 38.2074C71.753 37.9434 71.407 37.5934 71.151 37.1574C70.899 36.7214 70.773 36.2434 70.773 35.7234H72.237C72.237 35.9834 72.301 36.2214 72.429 36.4374C72.557 36.6494 72.727 36.8194 72.939 36.9474C73.155 37.0714 73.393 37.1334 73.653 37.1334C73.913 37.1334 74.149 37.0714 74.361 36.9474C74.573 36.8194 74.743 36.6494 74.871 36.4374C74.999 36.2214 75.063 35.9834 75.063 35.7234C75.063 35.4634 75.007 35.2254 74.895 35.0094C74.787 34.7894 74.609 34.6154 74.361 34.4874C74.117 34.3554 73.793 34.2894 73.389 34.2894H71.229L72.117 30.0414H76.245V31.5054H73.305L73.035 32.8254L73.629 32.8314C74.197 32.8514 74.699 32.9894 75.135 33.2454C75.571 33.5014 75.911 33.8454 76.155 34.2774C76.403 34.7054 76.527 35.1874 76.527 35.7234C76.527 36.1154 76.453 36.4854 76.305 36.8334C76.157 37.1814 75.951 37.4874 75.687 37.7514C75.423 38.0154 75.117 38.2234 74.769 38.3754C74.425 38.5234 74.053 38.5974 73.653 38.5974Z" fill="white"/>
<path d="M6.95527 74.0974C6.42327 74.0974 5.94127 73.9694 5.50927 73.7134C5.08127 73.4534 4.74127 73.1094 4.48927 72.6814C4.24127 72.2494 4.11727 71.7774 4.11727 71.2654H5.36527C5.36527 71.5574 5.43727 71.8234 5.58127 72.0634C5.72527 72.3034 5.91727 72.4954 6.15727 72.6394C6.39727 72.7794 6.66327 72.8494 6.95527 72.8494C7.24327 72.8494 7.50727 72.7794 7.74727 72.6394C7.98727 72.4954 8.17927 72.3034 8.32327 72.0634C8.46727 71.8234 8.53927 71.5574 8.53927 71.2654C8.53927 70.9734 8.47327 70.7074 8.34127 70.4674C8.20927 70.2234 8.01127 70.0294 7.74727 69.8854C7.48327 69.7374 7.14727 69.6634 6.73927 69.6634H4.62127L5.47327 65.5414H9.53527V66.7894H6.48727L6.15727 68.4154L6.88327 68.4274C7.45527 68.4394 7.95727 68.5714 8.38927 68.8234C8.82527 69.0714 9.16727 69.4074 9.41527 69.8314C9.66327 70.2514 9.78727 70.7294 9.78727 71.2654C9.78727 71.6534 9.71327 72.0194 9.56527 72.3634C9.41727 72.7034 9.21327 73.0034 8.95327 73.2634C8.69727 73.5234 8.39727 73.7274 8.05327 73.8754C7.71327 74.0234 7.34727 74.0974 6.95527 74.0974ZM14.0006 74.0974C13.5046 74.0974 13.0566 73.9854 12.6566 73.7614C12.2606 73.5334 11.9186 73.2194 11.6306 72.8194C11.3426 72.4194 11.1226 71.9574 10.9706 71.4334C10.8186 70.9054 10.7426 70.3414 10.7426 69.7414C10.7426 69.1414 10.8186 68.5774 10.9706 68.0494C11.1226 67.5214 11.3426 67.0594 11.6306 66.6634C11.9186 66.2634 12.2606 65.9514 12.6566 65.7274C13.0566 65.4994 13.5046 65.3854 14.0006 65.3854C14.4886 65.3854 14.9326 65.4994 15.3326 65.7274C15.7326 65.9514 16.0726 66.2634 16.3526 66.6634C16.6366 67.0594 16.8546 67.5214 17.0066 68.0494C17.1586 68.5774 17.2346 69.1414 17.2346 69.7414C17.2346 70.3414 17.1586 70.9054 17.0066 71.4334C16.8546 71.9574 16.6366 72.4194 16.3526 72.8194C16.0726 73.2194 15.7326 73.5334 15.3326 73.7614C14.9326 73.9854 14.4886 74.0974 14.0006 74.0974ZM14.0006 72.8494C14.4606 72.8494 14.8426 72.7054 15.1466 72.4174C15.4546 72.1254 15.6846 71.7434 15.8366 71.2714C15.9886 70.7994 16.0646 70.2894 16.0646 69.7414C16.0646 69.1654 15.9846 68.6434 15.8246 68.1754C15.6686 67.7034 15.4366 67.3294 15.1286 67.0534C14.8246 66.7734 14.4486 66.6334 14.0006 66.6334C13.6446 66.6334 13.3346 66.7174 13.0706 66.8854C12.8106 67.0534 12.5946 67.2834 12.4226 67.5754C12.2546 67.8674 12.1266 68.1994 12.0386 68.5714C11.9546 68.9434 11.9126 69.3334 11.9126 69.7414C11.9126 70.2894 11.9906 70.7994 12.1466 71.2714C12.3026 71.7434 12.5346 72.1254 12.8426 72.4174C13.1546 72.7054 13.5406 72.8494 14.0006 72.8494ZM18.3096 74.6134L18.6816 72.5854H19.9296L19.1376 74.6134H18.3096ZM24.5118 74.0974C24.0158 74.0974 23.5678 73.9854 23.1678 73.7614C22.7718 73.5334 22.4298 73.2194 22.1418 72.8194C21.8538 72.4194 21.6338 71.9574 21.4818 71.4334C21.3298 70.9054 21.2538 70.3414 21.2538 69.7414C21.2538 69.1414 21.3298 68.5774 21.4818 68.0494C21.6338 67.5214 21.8538 67.0594 22.1418 66.6634C22.4298 66.2634 22.7718 65.9514 23.1678 65.7274C23.5678 65.4994 24.0158 65.3854 24.5118 65.3854C24.9998 65.3854 25.4438 65.4994 25.8438 65.7274C26.2438 65.9514 26.5838 66.2634 26.8638 66.6634C27.1478 67.0594 27.3658 67.5214 27.5178 68.0494C27.6698 68.5774 27.7458 69.1414 27.7458 69.7414C27.7458 70.3414 27.6698 70.9054 27.5178 71.4334C27.3658 71.9574 27.1478 72.4194 26.8638 72.8194C26.5838 73.2194 26.2438 73.5334 25.8438 73.7614C25.4438 73.9854 24.9998 74.0974 24.5118 74.0974ZM24.5118 72.8494C24.9718 72.8494 25.3538 72.7054 25.6578 72.4174C25.9658 72.1254 26.1958 71.7434 26.3478 71.2714C26.4998 70.7994 26.5758 70.2894 26.5758 69.7414C26.5758 69.1654 26.4958 68.6434 26.3358 68.1754C26.1798 67.7034 25.9478 67.3294 25.6398 67.0534C25.3358 66.7734 24.9598 66.6334 24.5118 66.6334C24.1558 66.6334 23.8458 66.7174 23.5818 66.8854C23.3218 67.0534 23.1058 67.2834 22.9338 67.5754C22.7658 67.8674 22.6378 68.1994 22.5498 68.5714C22.4658 68.9434 22.4238 69.3334 22.4238 69.7414C22.4238 70.2894 22.5018 70.7994 22.6578 71.2714C22.8138 71.7434 23.0458 72.1254 23.3538 72.4174C23.6658 72.7054 24.0518 72.8494 24.5118 72.8494ZM31.7362 74.0974C31.2402 74.0974 30.7922 73.9854 30.3922 73.7614C29.9962 73.5334 29.6542 73.2194 29.3662 72.8194C29.0782 72.4194 28.8582 71.9574 28.7062 71.4334C28.5542 70.9054 28.4782 70.3414 28.4782 69.7414C28.4782 69.1414 28.5542 68.5774 28.7062 68.0494C28.8582 67.5214 29.0782 67.0594 29.3662 66.6634C29.6542 66.2634 29.9962 65.9514 30.3922 65.7274C30.7922 65.4994 31.2402 65.3854 31.7362 65.3854C32.2242 65.3854 32.6682 65.4994 33.0682 65.7274C33.4682 65.9514 33.8082 66.2634 34.0882 66.6634C34.3722 67.0594 34.5902 67.5214 34.7422 68.0494C34.8942 68.5774 34.9702 69.1414 34.9702 69.7414C34.9702 70.3414 34.8942 70.9054 34.7422 71.4334C34.5902 71.9574 34.3722 72.4194 34.0882 72.8194C33.8082 73.2194 33.4682 73.5334 33.0682 73.7614C32.6682 73.9854 32.2242 74.0974 31.7362 74.0974ZM31.7362 72.8494C32.1962 72.8494 32.5782 72.7054 32.8822 72.4174C33.1902 72.1254 33.4202 71.7434 33.5722 71.2714C33.7242 70.7994 33.8002 70.2894 33.8002 69.7414C33.8002 69.1654 33.7202 68.6434 33.5602 68.1754C33.4042 67.7034 33.1722 67.3294 32.8642 67.0534C32.5602 66.7734 32.1842 66.6334 31.7362 66.6334C31.3802 66.6334 31.0702 66.7174 30.8062 66.8854C30.5462 67.0534 30.3302 67.2834 30.1582 67.5754C29.9902 67.8674 29.8622 68.1994 29.7742 68.5714C29.6902 68.9434 29.6482 69.3334 29.6482 69.7414C29.6482 70.2894 29.7262 70.7994 29.8822 71.2714C30.0382 71.7434 30.2702 72.1254 30.5782 72.4174C30.8902 72.7054 31.2762 72.8494 31.7362 72.8494ZM38.9606 74.0974C38.4646 74.0974 38.0166 73.9854 37.6166 73.7614C37.2206 73.5334 36.8786 73.2194 36.5906 72.8194C36.3026 72.4194 36.0826 71.9574 35.9306 71.4334C35.7786 70.9054 35.7026 70.3414 35.7026 69.7414C35.7026 69.1414 35.7786 68.5774 35.9306 68.0494C36.0826 67.5214 36.3026 67.0594 36.5906 66.6634C36.8786 66.2634 37.2206 65.9514 37.6166 65.7274C38.0166 65.4994 38.4646 65.3854 38.9606 65.3854C39.4486 65.3854 39.8926 65.4994 40.2926 65.7274C40.6926 65.9514 41.0326 66.2634 41.3126 66.6634C41.5966 67.0594 41.8146 67.5214 41.9666 68.0494C42.1186 68.5774 42.1946 69.1414 42.1946 69.7414C42.1946 70.3414 42.1186 70.9054 41.9666 71.4334C41.8146 71.9574 41.5966 72.4194 41.3126 72.8194C41.0326 73.2194 40.6926 73.5334 40.2926 73.7614C39.8926 73.9854 39.4486 74.0974 38.9606 74.0974ZM38.9606 72.8494C39.4206 72.8494 39.8026 72.7054 40.1066 72.4174C40.4146 72.1254 40.6446 71.7434 40.7966 71.2714C40.9486 70.7994 41.0246 70.2894 41.0246 69.7414C41.0246 69.1654 40.9446 68.6434 40.7846 68.1754C40.6286 67.7034 40.3966 67.3294 40.0886 67.0534C39.7846 66.7734 39.4086 66.6334 38.9606 66.6334C38.6046 66.6334 38.2946 66.7174 38.0306 66.8854C37.7706 67.0534 37.5546 67.2834 37.3826 67.5754C37.2146 67.8674 37.0866 68.1994 36.9986 68.5714C36.9146 68.9434 36.8726 69.3334 36.8726 69.7414C36.8726 70.2894 36.9506 70.7994 37.1066 71.2714C37.2626 71.7434 37.4946 72.1254 37.8026 72.4174C38.1146 72.7054 38.5006 72.8494 38.9606 72.8494ZM47.8804 76.9414H46.6324V67.9414H47.8804V68.8234C48.0804 68.5154 48.3364 68.2654 48.6484 68.0734C48.9604 67.8814 49.3284 67.7854 49.7524 67.7854C50.1884 67.7854 50.5964 67.8674 50.9764 68.0314C51.3604 68.1954 51.6964 68.4234 51.9844 68.7154C52.2724 69.0034 52.4984 69.3374 52.6624 69.7174C52.8264 70.0974 52.9084 70.5054 52.9084 70.9414C52.9084 71.3774 52.8264 71.7874 52.6624 72.1714C52.4984 72.5554 52.2724 72.8934 51.9844 73.1854C51.6964 73.4734 51.3604 73.6994 50.9764 73.8634C50.5964 74.0274 50.1884 74.1094 49.7524 74.1094C49.3284 74.1094 48.9604 74.0134 48.6484 73.8214C48.3364 73.6254 48.0804 73.3754 47.8804 73.0714V76.9414ZM49.7404 68.9914C49.3924 68.9914 49.0864 69.0794 48.8224 69.2554C48.5584 69.4314 48.3524 69.6674 48.2044 69.9634C48.0564 70.2554 47.9824 70.5814 47.9824 70.9414C47.9824 71.3014 48.0564 71.6294 48.2044 71.9254C48.3524 72.2214 48.5584 72.4574 48.8224 72.6334C49.0864 72.8094 49.3924 72.8974 49.7404 72.8974C50.0844 72.8974 50.4004 72.8114 50.6884 72.6394C50.9764 72.4634 51.2064 72.2274 51.3784 71.9314C51.5504 71.6354 51.6364 71.3054 51.6364 70.9414C51.6364 70.5854 51.5504 70.2594 51.3784 69.9634C51.2104 69.6674 50.9824 69.4314 50.6944 69.2554C50.4064 69.0794 50.0884 68.9914 49.7404 68.9914ZM57.2592 69.1894H55.9992L55.9932 73.9414H54.7452L54.7512 69.1894H53.7972V67.9414H54.7512L54.7452 66.0574H55.9932L55.9992 67.9414H57.2592V69.1894ZM60.2913 74.0554C59.9753 74.0354 59.6673 73.9714 59.3673 73.8634C59.0673 73.7554 58.8033 73.6094 58.5753 73.4254C58.3513 73.2374 58.1833 73.0174 58.0713 72.7654L59.1333 72.3094C59.1853 72.4174 59.2753 72.5234 59.4033 72.6274C59.5353 72.7314 59.6893 72.8174 59.8653 72.8854C60.0413 72.9494 60.2253 72.9814 60.4173 72.9814C60.6053 72.9814 60.7793 72.9554 60.9393 72.9034C61.1033 72.8474 61.2373 72.7634 61.3413 72.6514C61.4453 72.5394 61.4973 72.4054 61.4973 72.2494C61.4973 72.0734 61.4373 71.9374 61.3173 71.8414C61.2013 71.7414 61.0553 71.6654 60.8793 71.6134C60.7033 71.5614 60.5273 71.5114 60.3513 71.4634C59.9593 71.3754 59.5993 71.2554 59.2713 71.1034C58.9473 70.9474 58.6893 70.7494 58.4973 70.5094C58.3053 70.2654 58.2093 69.9674 58.2093 69.6154C58.2093 69.2314 58.3133 68.8994 58.5213 68.6194C58.7293 68.3354 59.0013 68.1174 59.3373 67.9654C59.6773 67.8134 60.0393 67.7374 60.4233 67.7374C60.9033 67.7374 61.3433 67.8394 61.7433 68.0434C62.1433 68.2474 62.4493 68.5274 62.6613 68.8834L61.6713 69.4714C61.6113 69.3514 61.5213 69.2434 61.4013 69.1474C61.2813 69.0514 61.1453 68.9754 60.9933 68.9194C60.8413 68.8594 60.6833 68.8254 60.5193 68.8174C60.3153 68.8094 60.1253 68.8334 59.9493 68.8894C59.7773 68.9414 59.6393 69.0254 59.5353 69.1414C59.4313 69.2574 59.3793 69.4054 59.3793 69.5854C59.3793 69.7614 59.4413 69.8934 59.5653 69.9814C59.6893 70.0654 59.8453 70.1334 60.0333 70.1854C60.2253 70.2374 60.4213 70.2954 60.6213 70.3594C60.9773 70.4714 61.3113 70.6094 61.6233 70.7734C61.9353 70.9334 62.1873 71.1314 62.3793 71.3674C62.5713 71.6034 62.6633 71.8914 62.6553 72.2314C62.6553 72.6074 62.5413 72.9374 62.3133 73.2214C62.0893 73.5054 61.7973 73.7214 61.4373 73.8694C61.0773 74.0174 60.6953 74.0794 60.2913 74.0554ZM70.2135 69.1894H68.9535L68.9475 73.9414H67.6995L67.7055 69.1894H66.7515V67.9414H67.7055L67.6995 66.0574H68.9475L68.9535 67.9414H70.2135V69.1894ZM74.0271 74.0974C73.4751 74.0974 72.9711 73.9554 72.5151 73.6714C72.0631 73.3874 71.7011 73.0074 71.4291 72.5314C71.1611 72.0514 71.0271 71.5214 71.0271 70.9414C71.0271 70.5014 71.1051 70.0914 71.2611 69.7114C71.4171 69.3274 71.6311 68.9914 71.9031 68.7034C72.1791 68.4114 72.4991 68.1834 72.8631 68.0194C73.2271 67.8554 73.6151 67.7734 74.0271 67.7734C74.5791 67.7734 75.0811 67.9154 75.5331 68.1994C75.9891 68.4834 76.3511 68.8654 76.6191 69.3454C76.8911 69.8254 77.0271 70.3574 77.0271 70.9414C77.0271 71.3774 76.9491 71.7854 76.7931 72.1654C76.6371 72.5454 76.4211 72.8814 76.1451 73.1734C75.8731 73.4614 75.5551 73.6874 75.1911 73.8514C74.8311 74.0154 74.4431 74.0974 74.0271 74.0974ZM74.0271 72.8494C74.3591 72.8494 74.6571 72.7614 74.9211 72.5854C75.1851 72.4094 75.3931 72.1774 75.5451 71.8894C75.7011 71.5974 75.7791 71.2814 75.7791 70.9414C75.7791 70.5934 75.6991 70.2734 75.5391 69.9814C75.3831 69.6894 75.1731 69.4574 74.9091 69.2854C74.6451 69.1094 74.3511 69.0214 74.0271 69.0214C73.6991 69.0214 73.4011 69.1094 73.1331 69.2854C72.8691 69.4614 72.6591 69.6954 72.5031 69.9874C72.3511 70.2794 72.2751 70.5974 72.2751 70.9414C72.2751 71.2974 72.3551 71.6194 72.5151 71.9074C72.6751 72.1954 72.8871 72.4254 73.1511 72.5974C73.4191 72.7654 73.7111 72.8494 74.0271 72.8494ZM84.3568 73.9414H83.1148L81.1048 67.9414H82.3288L83.7448 72.1534L85.1488 67.9414H86.4088L87.8128 72.1534L89.2228 67.9414H90.4468L88.4428 73.9414H87.1888L85.7728 69.6994L84.3568 73.9414ZM91.6188 67.9414H92.8668V73.9414H91.6188V67.9414ZM92.2548 67.0714C92.0628 67.0714 91.9028 67.0094 91.7748 66.8854C91.6468 66.7614 91.5828 66.6054 91.5828 66.4174C91.5828 66.2334 91.6468 66.0794 91.7748 65.9554C91.9028 65.8274 92.0608 65.7634 92.2488 65.7634C92.4328 65.7634 92.5888 65.8274 92.7168 65.9554C92.8448 66.0794 92.9088 66.2334 92.9088 66.4174C92.9088 66.6054 92.8448 66.7614 92.7168 66.8854C92.5928 67.0094 92.4388 67.0714 92.2548 67.0714ZM97.7104 69.1894H96.4504L96.4444 73.9414H95.1964L95.2024 69.1894H94.2484V67.9414H95.2024L95.1964 66.0574H96.4444L96.4504 67.9414H97.7104V69.1894ZM104.425 70.1794V73.9414H103.177V70.4854C103.177 70.2174 103.111 69.9734 102.979 69.7534C102.851 69.5334 102.677 69.3594 102.457 69.2314C102.241 69.0994 101.997 69.0334 101.725 69.0334C101.461 69.0334 101.219 69.0994 100.999 69.2314C100.779 69.3594 100.603 69.5334 100.471 69.7534C100.339 69.9734 100.273 70.2174 100.273 70.4854V73.9414H99.0246V64.9414H100.273V68.5774C100.481 68.3294 100.737 68.1334 101.041 67.9894C101.345 67.8454 101.673 67.7734 102.025 67.7734C102.469 67.7734 102.873 67.8814 103.237 68.0974C103.601 68.3134 103.889 68.6034 104.101 68.9674C104.317 69.3314 104.425 69.7354 104.425 70.1794ZM110.419 64.9414H111.667V73.9414H110.419V73.0594C110.223 73.3714 109.967 73.6234 109.651 73.8154C109.335 74.0034 108.965 74.0974 108.541 74.0974C108.105 74.0974 107.697 74.0154 107.317 73.8514C106.937 73.6874 106.601 73.4614 106.309 73.1734C106.021 72.8814 105.795 72.5454 105.631 72.1654C105.467 71.7854 105.385 71.3774 105.385 70.9414C105.385 70.5054 105.467 70.0974 105.631 69.7174C105.795 69.3334 106.021 68.9974 106.309 68.7094C106.601 68.4174 106.937 68.1894 107.317 68.0254C107.697 67.8614 108.105 67.7794 108.541 67.7794C108.965 67.7794 109.335 67.8754 109.651 68.0674C109.967 68.2554 110.223 68.5034 110.419 68.8114V64.9414ZM108.553 72.8914C108.905 72.8914 109.213 72.8054 109.477 72.6334C109.741 72.4574 109.945 72.2214 110.089 71.9254C110.237 71.6294 110.311 71.3014 110.311 70.9414C110.311 70.5774 110.237 70.2474 110.089 69.9514C109.941 69.6554 109.735 69.4214 109.471 69.2494C109.211 69.0734 108.905 68.9854 108.553 68.9854C108.205 68.9854 107.887 69.0734 107.599 69.2494C107.315 69.4254 107.087 69.6614 106.915 69.9574C106.747 70.2534 106.663 70.5814 106.663 70.9414C106.663 71.3054 106.749 71.6354 106.921 71.9314C107.097 72.2234 107.327 72.4574 107.611 72.6334C107.899 72.8054 108.213 72.8914 108.553 72.8914ZM113.344 73.9414V67.9414H114.592V68.5774C114.8 68.3294 115.056 68.1334 115.36 67.9894C115.664 67.8454 115.992 67.7734 116.344 67.7734C116.568 67.7734 116.79 67.8034 117.01 67.8634L116.512 69.1234C116.356 69.0634 116.2 69.0334 116.044 69.0334C115.78 69.0334 115.538 69.0994 115.318 69.2314C115.098 69.3594 114.922 69.5334 114.79 69.7534C114.658 69.9734 114.592 70.2174 114.592 70.4854V73.9414H113.344ZM122.331 67.9414H123.579V73.9414H122.325L122.277 73.0714C122.101 73.3794 121.863 73.6274 121.563 73.8154C121.263 74.0034 120.909 74.0974 120.501 74.0974C120.061 74.0974 119.647 74.0154 119.259 73.8514C118.871 73.6834 118.529 73.4514 118.233 73.1554C117.941 72.8594 117.713 72.5194 117.549 72.1354C117.385 71.7474 117.303 71.3314 117.303 70.8874C117.303 70.4594 117.383 70.0574 117.543 69.6814C117.703 69.3014 117.925 68.9694 118.209 68.6854C118.493 68.4014 118.821 68.1794 119.193 68.0194C119.569 67.8554 119.971 67.7734 120.399 67.7734C120.835 67.7734 121.219 67.8734 121.551 68.0734C121.887 68.2694 122.165 68.5214 122.385 68.8294L122.331 67.9414ZM120.471 72.8914C120.823 72.8914 121.131 72.8054 121.395 72.6334C121.659 72.4574 121.863 72.2214 122.007 71.9254C122.155 71.6294 122.229 71.3014 122.229 70.9414C122.229 70.5774 122.155 70.2474 122.007 69.9514C121.859 69.6554 121.653 69.4214 121.389 69.2494C121.129 69.0734 120.823 68.9854 120.471 68.9854C120.123 68.9854 119.805 69.0734 119.517 69.2494C119.229 69.4254 119.001 69.6614 118.833 69.9574C118.665 70.2534 118.581 70.5814 118.581 70.9414C118.581 71.3054 118.667 71.6354 118.839 71.9314C119.015 72.2234 119.245 72.4574 119.529 72.6334C119.817 72.8054 120.131 72.8914 120.471 72.8914ZM127.685 73.9414H126.443L124.433 67.9414H125.657L127.073 72.1534L128.477 67.9414H129.737L131.141 72.1534L132.551 67.9414H133.775L131.771 73.9414H130.517L129.101 69.6994L127.685 73.9414Z" fill="white"/>
<path fill-rule="evenodd" clip-rule="evenodd" d="M137.697 44.4414C137.697 44.8556 138.033 45.1914 138.447 45.1914L149.085 45.1914L144.927 49.1508C144.629 49.4379 144.62 49.9127 144.907 50.2112C145.194 50.5098 145.669 50.5191 145.967 50.232L151.467 44.982C151.614 44.8406 151.697 44.6454 151.697 44.4414C151.697 44.2374 151.614 44.0422 151.467 43.9008L145.967 38.6508C145.669 38.3637 145.194 38.373 144.907 38.6716C144.62 38.9702 144.629 39.4449 144.927 39.732L149.085 43.6914L138.447 43.6914C138.033 43.6914 137.697 44.0272 137.697 44.4414Z" fill="white"/>
<path d="M246.046 34.9414C246.046 48.7485 234.853 59.9414 221.046 59.9414C207.239 59.9414 196.046 48.7485 196.046 34.9414C196.046 21.1343 207.239 9.94141 221.046 9.94141C234.853 9.94141 246.046 21.1343 246.046 34.9414ZM201.546 34.9414C201.546 45.711 210.276 54.4414 221.046 54.4414C231.815 54.4414 240.546 45.711 240.546 34.9414C240.546 24.1719 231.815 15.4414 221.046 15.4414C210.276 15.4414 201.546 24.1719 201.546 34.9414Z" fill="#F6C4D0"/>
<path d="M246.046 34.9414C246.046 48.7485 234.853 59.9414 221.046 59.9414C207.239 59.9414 196.046 48.7485 196.046 34.9414C196.046 21.1343 207.239 9.94141 221.046 9.94141C234.853 9.94141 246.046 21.1343 246.046 34.9414ZM201.542 34.9414C201.542 45.7133 210.274 54.4457 221.046 54.4457C231.818 54.4457 240.55 45.7133 240.55 34.9414C240.55 24.1695 231.818 15.4371 221.046 15.4371C210.274 15.4371 201.542 24.1695 201.542 34.9414Z" fill="white"/>
<path d="M207.296 38.5714C206.846 38.5714 206.439 38.4631 206.076 38.2464C205.713 38.0264 205.424 37.7347 205.211 37.3714C205.001 37.0081 204.896 36.6097 204.896 36.1764H206.116C206.116 36.3931 206.169 36.5914 206.276 36.7714C206.383 36.9481 206.524 37.0897 206.701 37.1964C206.881 37.2997 207.079 37.3514 207.296 37.3514C207.513 37.3514 207.709 37.2997 207.886 37.1964C208.063 37.0897 208.204 36.9481 208.311 36.7714C208.418 36.5914 208.471 36.3931 208.471 36.1764C208.471 35.9597 208.424 35.7614 208.331 35.5814C208.241 35.3981 208.093 35.2531 207.886 35.1464C207.683 35.0364 207.413 34.9814 207.076 34.9814H205.276L206.016 31.4414H209.456V32.6614H207.006L206.781 33.7614L207.276 33.7664C207.749 33.7831 208.168 33.8981 208.531 34.1114C208.894 34.3247 209.178 34.6114 209.381 34.9714C209.588 35.3281 209.691 35.7297 209.691 36.1764C209.691 36.5031 209.629 36.8114 209.506 37.1014C209.383 37.3914 209.211 37.6464 208.991 37.8664C208.771 38.0864 208.516 38.2597 208.226 38.3864C207.939 38.5097 207.629 38.5714 207.296 38.5714ZM213.21 38.5714C212.804 38.5714 212.434 38.4781 212.1 38.2914C211.767 38.1014 211.479 37.8397 211.235 37.5064C210.995 37.1731 210.81 36.7881 210.68 36.3514C210.55 35.9114 210.485 35.4414 210.485 34.9414C210.485 34.4414 210.55 33.9731 210.68 33.5364C210.81 33.0964 210.995 32.7097 211.235 32.3764C211.479 32.0431 211.767 31.7831 212.1 31.5964C212.434 31.4064 212.804 31.3114 213.21 31.3114C213.617 31.3114 213.987 31.4064 214.32 31.5964C214.654 31.7831 214.939 32.0431 215.175 32.3764C215.415 32.7097 215.6 33.0964 215.73 33.5364C215.864 33.9731 215.93 34.4414 215.93 34.9414C215.93 35.4414 215.864 35.9114 215.73 36.3514C215.6 36.7881 215.415 37.1731 215.175 37.5064C214.939 37.8397 214.654 38.1014 214.32 38.2914C213.987 38.4781 213.617 38.5714 213.21 38.5714ZM213.21 37.3514C213.567 37.3514 213.862 37.2381 214.095 37.0114C214.329 36.7847 214.502 36.4881 214.615 36.1214C214.729 35.7547 214.785 35.3614 214.785 34.9414C214.785 34.4981 214.725 34.0947 214.605 33.7314C214.485 33.3647 214.309 33.0731 214.075 32.8564C213.842 32.6397 213.554 32.5314 213.21 32.5314C212.94 32.5314 212.705 32.5981 212.505 32.7314C212.309 32.8614 212.145 33.0397 212.015 33.2664C211.885 33.4931 211.789 33.7514 211.725 34.0414C211.662 34.3281 211.63 34.6281 211.63 34.9414C211.63 35.3581 211.687 35.7514 211.8 36.1214C211.917 36.4881 212.092 36.7847 212.325 37.0114C212.562 37.2381 212.857 37.3514 213.21 37.3514ZM216.83 39.0014L217.14 37.3114H218.36L217.645 39.0014H216.83ZM222.185 38.5714C221.778 38.5714 221.408 38.4781 221.075 38.2914C220.741 38.1014 220.453 37.8397 220.21 37.5064C219.97 37.1731 219.785 36.7881 219.655 36.3514C219.525 35.9114 219.46 35.4414 219.46 34.9414C219.46 34.4414 219.525 33.9731 219.655 33.5364C219.785 33.0964 219.97 32.7097 220.21 32.3764C220.453 32.0431 220.741 31.7831 221.075 31.5964C221.408 31.4064 221.778 31.3114 222.185 31.3114C222.591 31.3114 222.961 31.4064 223.295 31.5964C223.628 31.7831 223.913 32.0431 224.15 32.3764C224.39 32.7097 224.575 33.0964 224.705 33.5364C224.838 33.9731 224.905 34.4414 224.905 34.9414C224.905 35.4414 224.838 35.9114 224.705 36.3514C224.575 36.7881 224.39 37.1731 224.15 37.5064C223.913 37.8397 223.628 38.1014 223.295 38.2914C222.961 38.4781 222.591 38.5714 222.185 38.5714ZM222.185 37.3514C222.541 37.3514 222.836 37.2381 223.07 37.0114C223.303 36.7847 223.476 36.4881 223.59 36.1214C223.703 35.7547 223.76 35.3614 223.76 34.9414C223.76 34.4981 223.7 34.0947 223.58 33.7314C223.46 33.3647 223.283 33.0731 223.05 32.8564C222.816 32.6397 222.528 32.5314 222.185 32.5314C221.915 32.5314 221.68 32.5981 221.48 32.7314C221.283 32.8614 221.12 33.0397 220.99 33.2664C220.86 33.4931 220.763 33.7514 220.7 34.0414C220.636 34.3281 220.605 34.6281 220.605 34.9414C220.605 35.3581 220.661 35.7514 220.775 36.1214C220.891 36.4881 221.066 36.7847 221.3 37.0114C221.536 37.2381 221.831 37.3514 222.185 37.3514ZM228.205 38.5714C227.798 38.5714 227.428 38.4781 227.095 38.2914C226.762 38.1014 226.473 37.8397 226.23 37.5064C225.99 37.1731 225.805 36.7881 225.675 36.3514C225.545 35.9114 225.48 35.4414 225.48 34.9414C225.48 34.4414 225.545 33.9731 225.675 33.5364C225.805 33.0964 225.99 32.7097 226.23 32.3764C226.473 32.0431 226.762 31.7831 227.095 31.5964C227.428 31.4064 227.798 31.3114 228.205 31.3114C228.612 31.3114 228.982 31.4064 229.315 31.5964C229.648 31.7831 229.933 32.0431 230.17 32.3764C230.41 32.7097 230.595 33.0964 230.725 33.5364C230.858 33.9731 230.925 34.4414 230.925 34.9414C230.925 35.4414 230.858 35.9114 230.725 36.3514C230.595 36.7881 230.41 37.1731 230.17 37.5064C229.933 37.8397 229.648 38.1014 229.315 38.2914C228.982 38.4781 228.612 38.5714 228.205 38.5714ZM228.205 37.3514C228.562 37.3514 228.857 37.2381 229.09 37.0114C229.323 36.7847 229.497 36.4881 229.61 36.1214C229.723 35.7547 229.78 35.3614 229.78 34.9414C229.78 34.4981 229.72 34.0947 229.6 33.7314C229.48 33.3647 229.303 33.0731 229.07 32.8564C228.837 32.6397 228.548 32.5314 228.205 32.5314C227.935 32.5314 227.7 32.5981 227.5 32.7314C227.303 32.8614 227.14 33.0397 227.01 33.2664C226.88 33.4931 226.783 33.7514 226.72 34.0414C226.657 34.3281 226.625 34.6281 226.625 34.9414C226.625 35.3581 226.682 35.7514 226.795 36.1214C226.912 36.4881 227.087 36.7847 227.32 37.0114C227.557 37.2381 227.852 37.3514 228.205 37.3514ZM234.225 38.5714C233.819 38.5714 233.449 38.4781 233.115 38.2914C232.782 38.1014 232.494 37.8397 232.25 37.5064C232.01 37.1731 231.825 36.7881 231.695 36.3514C231.565 35.9114 231.5 35.4414 231.5 34.9414C231.5 34.4414 231.565 33.9731 231.695 33.5364C231.825 33.0964 232.01 32.7097 232.25 32.3764C232.494 32.0431 232.782 31.7831 233.115 31.5964C233.449 31.4064 233.819 31.3114 234.225 31.3114C234.632 31.3114 235.002 31.4064 235.335 31.5964C235.669 31.7831 235.954 32.0431 236.19 32.3764C236.43 32.7097 236.615 33.0964 236.745 33.5364C236.879 33.9731 236.945 34.4414 236.945 34.9414C236.945 35.4414 236.879 35.9114 236.745 36.3514C236.615 36.7881 236.43 37.1731 236.19 37.5064C235.954 37.8397 235.669 38.1014 235.335 38.2914C235.002 38.4781 234.632 38.5714 234.225 38.5714ZM234.225 37.3514C234.582 37.3514 234.877 37.2381 235.11 37.0114C235.344 36.7847 235.517 36.4881 235.63 36.1214C235.744 35.7547 235.8 35.3614 235.8 34.9414C235.8 34.4981 235.74 34.0947 235.62 33.7314C235.5 33.3647 235.324 33.0731 235.09 32.8564C234.857 32.6397 234.569 32.5314 234.225 32.5314C233.955 32.5314 233.72 32.5981 233.52 32.7314C233.324 32.8614 233.16 33.0397 233.03 33.2664C232.9 33.4931 232.804 33.7514 232.74 34.0414C232.677 34.3281 232.645 34.6281 232.645 34.9414C232.645 35.3581 232.702 35.7514 232.815 36.1214C232.932 36.4881 233.107 36.7847 233.34 37.0114C233.577 37.2381 233.872 37.3514 234.225 37.3514Z" fill="white"/>
<path d="M157.955 74.0974C157.423 74.0974 156.941 73.9694 156.509 73.7134C156.081 73.4534 155.741 73.1094 155.489 72.6814C155.241 72.2494 155.117 71.7774 155.117 71.2654H156.365C156.365 71.5574 156.437 71.8234 156.581 72.0634C156.725 72.3034 156.917 72.4954 157.157 72.6394C157.397 72.7794 157.663 72.8494 157.955 72.8494C158.243 72.8494 158.507 72.7794 158.747 72.6394C158.987 72.4954 159.179 72.3034 159.323 72.0634C159.467 71.8234 159.539 71.5574 159.539 71.2654C159.539 70.9734 159.473 70.7074 159.341 70.4674C159.209 70.2234 159.011 70.0294 158.747 69.8854C158.483 69.7374 158.147 69.6634 157.739 69.6634H155.621L156.473 65.5414H160.535V66.7894H157.487L157.157 68.4154L157.883 68.4274C158.455 68.4394 158.957 68.5714 159.389 68.8234C159.825 69.0714 160.167 69.4074 160.415 69.8314C160.663 70.2514 160.787 70.7294 160.787 71.2654C160.787 71.6534 160.713 72.0194 160.565 72.3634C160.417 72.7034 160.213 73.0034 159.953 73.2634C159.697 73.5234 159.397 73.7274 159.053 73.8754C158.713 74.0234 158.347 74.0974 157.955 74.0974ZM165.001 74.0974C164.505 74.0974 164.057 73.9854 163.657 73.7614C163.261 73.5334 162.919 73.2194 162.631 72.8194C162.343 72.4194 162.123 71.9574 161.971 71.4334C161.819 70.9054 161.743 70.3414 161.743 69.7414C161.743 69.1414 161.819 68.5774 161.971 68.0494C162.123 67.5214 162.343 67.0594 162.631 66.6634C162.919 66.2634 163.261 65.9514 163.657 65.7274C164.057 65.4994 164.505 65.3854 165.001 65.3854C165.489 65.3854 165.933 65.4994 166.333 65.7274C166.733 65.9514 167.073 66.2634 167.353 66.6634C167.637 67.0594 167.855 67.5214 168.007 68.0494C168.159 68.5774 168.235 69.1414 168.235 69.7414C168.235 70.3414 168.159 70.9054 168.007 71.4334C167.855 71.9574 167.637 72.4194 167.353 72.8194C167.073 73.2194 166.733 73.5334 166.333 73.7614C165.933 73.9854 165.489 74.0974 165.001 74.0974ZM165.001 72.8494C165.461 72.8494 165.843 72.7054 166.147 72.4174C166.455 72.1254 166.685 71.7434 166.837 71.2714C166.989 70.7994 167.065 70.2894 167.065 69.7414C167.065 69.1654 166.985 68.6434 166.825 68.1754C166.669 67.7034 166.437 67.3294 166.129 67.0534C165.825 66.7734 165.449 66.6334 165.001 66.6334C164.645 66.6334 164.335 66.7174 164.071 66.8854C163.811 67.0534 163.595 67.2834 163.423 67.5754C163.255 67.8674 163.127 68.1994 163.039 68.5714C162.955 68.9434 162.913 69.3334 162.913 69.7414C162.913 70.2894 162.991 70.7994 163.147 71.2714C163.303 71.7434 163.535 72.1254 163.843 72.4174C164.155 72.7054 164.541 72.8494 165.001 72.8494ZM169.31 74.6134L169.682 72.5854H170.93L170.138 74.6134H169.31ZM175.512 74.0974C175.016 74.0974 174.568 73.9854 174.168 73.7614C173.772 73.5334 173.43 73.2194 173.142 72.8194C172.854 72.4194 172.634 71.9574 172.482 71.4334C172.33 70.9054 172.254 70.3414 172.254 69.7414C172.254 69.1414 172.33 68.5774 172.482 68.0494C172.634 67.5214 172.854 67.0594 173.142 66.6634C173.43 66.2634 173.772 65.9514 174.168 65.7274C174.568 65.4994 175.016 65.3854 175.512 65.3854C176 65.3854 176.444 65.4994 176.844 65.7274C177.244 65.9514 177.584 66.2634 177.864 66.6634C178.148 67.0594 178.366 67.5214 178.518 68.0494C178.67 68.5774 178.746 69.1414 178.746 69.7414C178.746 70.3414 178.67 70.9054 178.518 71.4334C178.366 71.9574 178.148 72.4194 177.864 72.8194C177.584 73.2194 177.244 73.5334 176.844 73.7614C176.444 73.9854 176 74.0974 175.512 74.0974ZM175.512 72.8494C175.972 72.8494 176.354 72.7054 176.658 72.4174C176.966 72.1254 177.196 71.7434 177.348 71.2714C177.5 70.7994 177.576 70.2894 177.576 69.7414C177.576 69.1654 177.496 68.6434 177.336 68.1754C177.18 67.7034 176.948 67.3294 176.64 67.0534C176.336 66.7734 175.96 66.6334 175.512 66.6334C175.156 66.6334 174.846 66.7174 174.582 66.8854C174.322 67.0534 174.106 67.2834 173.934 67.5754C173.766 67.8674 173.638 68.1994 173.55 68.5714C173.466 68.9434 173.424 69.3334 173.424 69.7414C173.424 70.2894 173.502 70.7994 173.658 71.2714C173.814 71.7434 174.046 72.1254 174.354 72.4174C174.666 72.7054 175.052 72.8494 175.512 72.8494ZM182.736 74.0974C182.24 74.0974 181.792 73.9854 181.392 73.7614C180.996 73.5334 180.654 73.2194 180.366 72.8194C180.078 72.4194 179.858 71.9574 179.706 71.4334C179.554 70.9054 179.478 70.3414 179.478 69.7414C179.478 69.1414 179.554 68.5774 179.706 68.0494C179.858 67.5214 180.078 67.0594 180.366 66.6634C180.654 66.2634 180.996 65.9514 181.392 65.7274C181.792 65.4994 182.24 65.3854 182.736 65.3854C183.224 65.3854 183.668 65.4994 184.068 65.7274C184.468 65.9514 184.808 66.2634 185.088 66.6634C185.372 67.0594 185.59 67.5214 185.742 68.0494C185.894 68.5774 185.97 69.1414 185.97 69.7414C185.97 70.3414 185.894 70.9054 185.742 71.4334C185.59 71.9574 185.372 72.4194 185.088 72.8194C184.808 73.2194 184.468 73.5334 184.068 73.7614C183.668 73.9854 183.224 74.0974 182.736 74.0974ZM182.736 72.8494C183.196 72.8494 183.578 72.7054 183.882 72.4174C184.19 72.1254 184.42 71.7434 184.572 71.2714C184.724 70.7994 184.8 70.2894 184.8 69.7414C184.8 69.1654 184.72 68.6434 184.56 68.1754C184.404 67.7034 184.172 67.3294 183.864 67.0534C183.56 66.7734 183.184 66.6334 182.736 66.6334C182.38 66.6334 182.07 66.7174 181.806 66.8854C181.546 67.0534 181.33 67.2834 181.158 67.5754C180.99 67.8674 180.862 68.1994 180.774 68.5714C180.69 68.9434 180.648 69.3334 180.648 69.7414C180.648 70.2894 180.726 70.7994 180.882 71.2714C181.038 71.7434 181.27 72.1254 181.578 72.4174C181.89 72.7054 182.276 72.8494 182.736 72.8494ZM189.961 74.0974C189.465 74.0974 189.017 73.9854 188.617 73.7614C188.221 73.5334 187.879 73.2194 187.591 72.8194C187.303 72.4194 187.083 71.9574 186.931 71.4334C186.779 70.9054 186.703 70.3414 186.703 69.7414C186.703 69.1414 186.779 68.5774 186.931 68.0494C187.083 67.5214 187.303 67.0594 187.591 66.6634C187.879 66.2634 188.221 65.9514 188.617 65.7274C189.017 65.4994 189.465 65.3854 189.961 65.3854C190.449 65.3854 190.893 65.4994 191.293 65.7274C191.693 65.9514 192.033 66.2634 192.313 66.6634C192.597 67.0594 192.815 67.5214 192.967 68.0494C193.119 68.5774 193.195 69.1414 193.195 69.7414C193.195 70.3414 193.119 70.9054 192.967 71.4334C192.815 71.9574 192.597 72.4194 192.313 72.8194C192.033 73.2194 191.693 73.5334 191.293 73.7614C190.893 73.9854 190.449 74.0974 189.961 74.0974ZM189.961 72.8494C190.421 72.8494 190.803 72.7054 191.107 72.4174C191.415 72.1254 191.645 71.7434 191.797 71.2714C191.949 70.7994 192.025 70.2894 192.025 69.7414C192.025 69.1654 191.945 68.6434 191.785 68.1754C191.629 67.7034 191.397 67.3294 191.089 67.0534C190.785 66.7734 190.409 66.6334 189.961 66.6334C189.605 66.6334 189.295 66.7174 189.031 66.8854C188.771 67.0534 188.555 67.2834 188.383 67.5754C188.215 67.8674 188.087 68.1994 187.999 68.5714C187.915 68.9434 187.873 69.3334 187.873 69.7414C187.873 70.2894 187.951 70.7994 188.107 71.2714C188.263 71.7434 188.495 72.1254 188.803 72.4174C189.115 72.7054 189.501 72.8494 189.961 72.8494ZM198.88 76.9414H197.632V67.9414H198.88V68.8234C199.08 68.5154 199.336 68.2654 199.648 68.0734C199.96 67.8814 200.328 67.7854 200.752 67.7854C201.188 67.7854 201.596 67.8674 201.976 68.0314C202.36 68.1954 202.696 68.4234 202.984 68.7154C203.272 69.0034 203.498 69.3374 203.662 69.7174C203.826 70.0974 203.908 70.5054 203.908 70.9414C203.908 71.3774 203.826 71.7874 203.662 72.1714C203.498 72.5554 203.272 72.8934 202.984 73.1854C202.696 73.4734 202.36 73.6994 201.976 73.8634C201.596 74.0274 201.188 74.1094 200.752 74.1094C200.328 74.1094 199.96 74.0134 199.648 73.8214C199.336 73.6254 199.08 73.3754 198.88 73.0714V76.9414ZM200.74 68.9914C200.392 68.9914 200.086 69.0794 199.822 69.2554C199.558 69.4314 199.352 69.6674 199.204 69.9634C199.056 70.2554 198.982 70.5814 198.982 70.9414C198.982 71.3014 199.056 71.6294 199.204 71.9254C199.352 72.2214 199.558 72.4574 199.822 72.6334C200.086 72.8094 200.392 72.8974 200.74 72.8974C201.084 72.8974 201.4 72.8114 201.688 72.6394C201.976 72.4634 202.206 72.2274 202.378 71.9314C202.55 71.6354 202.636 71.3054 202.636 70.9414C202.636 70.5854 202.55 70.2594 202.378 69.9634C202.21 69.6674 201.982 69.4314 201.694 69.2554C201.406 69.0794 201.088 68.9914 200.74 68.9914ZM208.259 69.1894H206.999L206.993 73.9414H205.745L205.751 69.1894H204.797V67.9414H205.751L205.745 66.0574H206.993L206.999 67.9414H208.259V69.1894ZM211.291 74.0554C210.975 74.0354 210.667 73.9714 210.367 73.8634C210.067 73.7554 209.803 73.6094 209.575 73.4254C209.351 73.2374 209.183 73.0174 209.071 72.7654L210.133 72.3094C210.185 72.4174 210.275 72.5234 210.403 72.6274C210.535 72.7314 210.689 72.8174 210.865 72.8854C211.041 72.9494 211.225 72.9814 211.417 72.9814C211.605 72.9814 211.779 72.9554 211.939 72.9034C212.103 72.8474 212.237 72.7634 212.341 72.6514C212.445 72.5394 212.497 72.4054 212.497 72.2494C212.497 72.0734 212.437 71.9374 212.317 71.8414C212.201 71.7414 212.055 71.6654 211.879 71.6134C211.703 71.5614 211.527 71.5114 211.351 71.4634C210.959 71.3754 210.599 71.2554 210.271 71.1034C209.947 70.9474 209.689 70.7494 209.497 70.5094C209.305 70.2654 209.209 69.9674 209.209 69.6154C209.209 69.2314 209.313 68.8994 209.521 68.6194C209.729 68.3354 210.001 68.1174 210.337 67.9654C210.677 67.8134 211.039 67.7374 211.423 67.7374C211.903 67.7374 212.343 67.8394 212.743 68.0434C213.143 68.2474 213.449 68.5274 213.661 68.8834L212.671 69.4714C212.611 69.3514 212.521 69.2434 212.401 69.1474C212.281 69.0514 212.145 68.9754 211.993 68.9194C211.841 68.8594 211.683 68.8254 211.519 68.8174C211.315 68.8094 211.125 68.8334 210.949 68.8894C210.777 68.9414 210.639 69.0254 210.535 69.1414C210.431 69.2574 210.379 69.4054 210.379 69.5854C210.379 69.7614 210.441 69.8934 210.565 69.9814C210.689 70.0654 210.845 70.1334 211.033 70.1854C211.225 70.2374 211.421 70.2954 211.621 70.3594C211.977 70.4714 212.311 70.6094 212.623 70.7734C212.935 70.9334 213.187 71.1314 213.379 71.3674C213.571 71.6034 213.663 71.8914 213.655 72.2314C213.655 72.6074 213.541 72.9374 213.313 73.2214C213.089 73.5054 212.797 73.7214 212.437 73.8694C212.077 74.0174 211.695 74.0794 211.291 74.0554ZM221.214 69.1894H219.954L219.948 73.9414H218.7L218.706 69.1894H217.752V67.9414H218.706L218.7 66.0574H219.948L219.954 67.9414H221.214V69.1894ZM225.027 74.0974C224.475 74.0974 223.971 73.9554 223.515 73.6714C223.063 73.3874 222.701 73.0074 222.429 72.5314C222.161 72.0514 222.027 71.5214 222.027 70.9414C222.027 70.5014 222.105 70.0914 222.261 69.7114C222.417 69.3274 222.631 68.9914 222.903 68.7034C223.179 68.4114 223.499 68.1834 223.863 68.0194C224.227 67.8554 224.615 67.7734 225.027 67.7734C225.579 67.7734 226.081 67.9154 226.533 68.1994C226.989 68.4834 227.351 68.8654 227.619 69.3454C227.891 69.8254 228.027 70.3574 228.027 70.9414C228.027 71.3774 227.949 71.7854 227.793 72.1654C227.637 72.5454 227.421 72.8814 227.145 73.1734C226.873 73.4614 226.555 73.6874 226.191 73.8514C225.831 74.0154 225.443 74.0974 225.027 74.0974ZM225.027 72.8494C225.359 72.8494 225.657 72.7614 225.921 72.5854C226.185 72.4094 226.393 72.1774 226.545 71.8894C226.701 71.5974 226.779 71.2814 226.779 70.9414C226.779 70.5934 226.699 70.2734 226.539 69.9814C226.383 69.6894 226.173 69.4574 225.909 69.2854C225.645 69.1094 225.351 69.0214 225.027 69.0214C224.699 69.0214 224.401 69.1094 224.133 69.2854C223.869 69.4614 223.659 69.6954 223.503 69.9874C223.351 70.2794 223.275 70.5974 223.275 70.9414C223.275 71.2974 223.355 71.6194 223.515 71.9074C223.675 72.1954 223.887 72.4254 224.151 72.5974C224.419 72.7654 224.711 72.8494 225.027 72.8494ZM235.357 73.9414H234.115L232.105 67.9414H233.329L234.745 72.1534L236.149 67.9414H237.409L238.813 72.1534L240.223 67.9414H241.447L239.443 73.9414H238.189L236.773 69.6994L235.357 73.9414ZM242.619 67.9414H243.867V73.9414H242.619V67.9414ZM243.255 67.0714C243.063 67.0714 242.903 67.0094 242.775 66.8854C242.647 66.7614 242.583 66.6054 242.583 66.4174C242.583 66.2334 242.647 66.0794 242.775 65.9554C242.903 65.8274 243.061 65.7634 243.249 65.7634C243.433 65.7634 243.589 65.8274 243.717 65.9554C243.845 66.0794 243.909 66.2334 243.909 66.4174C243.909 66.6054 243.845 66.7614 243.717 66.8854C243.593 67.0094 243.439 67.0714 243.255 67.0714ZM248.71 69.1894H247.45L247.444 73.9414H246.196L246.202 69.1894H245.248V67.9414H246.202L246.196 66.0574H247.444L247.45 67.9414H248.71V69.1894ZM255.425 70.1794V73.9414H254.177V70.4854C254.177 70.2174 254.111 69.9734 253.979 69.7534C253.851 69.5334 253.677 69.3594 253.457 69.2314C253.241 69.0994 252.997 69.0334 252.725 69.0334C252.461 69.0334 252.219 69.0994 251.999 69.2314C251.779 69.3594 251.603 69.5334 251.471 69.7534C251.339 69.9734 251.273 70.2174 251.273 70.4854V73.9414H250.025V64.9414H251.273V68.5774C251.481 68.3294 251.737 68.1334 252.041 67.9894C252.345 67.8454 252.673 67.7734 253.025 67.7734C253.469 67.7734 253.873 67.8814 254.237 68.0974C254.601 68.3134 254.889 68.6034 255.101 68.9674C255.317 69.3314 255.425 69.7354 255.425 70.1794ZM261.419 64.9414H262.667V73.9414H261.419V73.0594C261.223 73.3714 260.967 73.6234 260.651 73.8154C260.335 74.0034 259.965 74.0974 259.541 74.0974C259.105 74.0974 258.697 74.0154 258.317 73.8514C257.937 73.6874 257.601 73.4614 257.309 73.1734C257.021 72.8814 256.795 72.5454 256.631 72.1654C256.467 71.7854 256.385 71.3774 256.385 70.9414C256.385 70.5054 256.467 70.0974 256.631 69.7174C256.795 69.3334 257.021 68.9974 257.309 68.7094C257.601 68.4174 257.937 68.1894 258.317 68.0254C258.697 67.8614 259.105 67.7794 259.541 67.7794C259.965 67.7794 260.335 67.8754 260.651 68.0674C260.967 68.2554 261.223 68.5034 261.419 68.8114V64.9414ZM259.553 72.8914C259.905 72.8914 260.213 72.8054 260.477 72.6334C260.741 72.4574 260.945 72.2214 261.089 71.9254C261.237 71.6294 261.311 71.3014 261.311 70.9414C261.311 70.5774 261.237 70.2474 261.089 69.9514C260.941 69.6554 260.735 69.4214 260.471 69.2494C260.211 69.0734 259.905 68.9854 259.553 68.9854C259.205 68.9854 258.887 69.0734 258.599 69.2494C258.315 69.4254 258.087 69.6614 257.915 69.9574C257.747 70.2534 257.663 70.5814 257.663 70.9414C257.663 71.3054 257.749 71.6354 257.921 71.9314C258.097 72.2234 258.327 72.4574 258.611 72.6334C258.899 72.8054 259.213 72.8914 259.553 72.8914ZM264.344 73.9414V67.9414H265.592V68.5774C265.8 68.3294 266.056 68.1334 266.36 67.9894C266.664 67.8454 266.992 67.7734 267.344 67.7734C267.568 67.7734 267.79 67.8034 268.01 67.8634L267.512 69.1234C267.356 69.0634 267.2 69.0334 267.044 69.0334C266.78 69.0334 266.538 69.0994 266.318 69.2314C266.098 69.3594 265.922 69.5334 265.79 69.7534C265.658 69.9734 265.592 70.2174 265.592 70.4854V73.9414H264.344ZM273.331 67.9414H274.579V73.9414H273.325L273.277 73.0714C273.101 73.3794 272.863 73.6274 272.563 73.8154C272.263 74.0034 271.909 74.0974 271.501 74.0974C271.061 74.0974 270.647 74.0154 270.259 73.8514C269.871 73.6834 269.529 73.4514 269.233 73.1554C268.941 72.8594 268.713 72.5194 268.549 72.1354C268.385 71.7474 268.303 71.3314 268.303 70.8874C268.303 70.4594 268.383 70.0574 268.543 69.6814C268.703 69.3014 268.925 68.9694 269.209 68.6854C269.493 68.4014 269.821 68.1794 270.193 68.0194C270.569 67.8554 270.971 67.7734 271.399 67.7734C271.835 67.7734 272.219 67.8734 272.551 68.0734C272.887 68.2694 273.165 68.5214 273.385 68.8294L273.331 67.9414ZM271.471 72.8914C271.823 72.8914 272.131 72.8054 272.395 72.6334C272.659 72.4574 272.863 72.2214 273.007 71.9254C273.155 71.6294 273.229 71.3014 273.229 70.9414C273.229 70.5774 273.155 70.2474 273.007 69.9514C272.859 69.6554 272.653 69.4214 272.389 69.2494C272.129 69.0734 271.823 68.9854 271.471 68.9854C271.123 68.9854 270.805 69.0734 270.517 69.2494C270.229 69.4254 270.001 69.6614 269.833 69.9574C269.665 70.2534 269.581 70.5814 269.581 70.9414C269.581 71.3054 269.667 71.6354 269.839 71.9314C270.015 72.2234 270.245 72.4574 270.529 72.6334C270.817 72.8054 271.131 72.8914 271.471 72.8914ZM278.685 73.9414H277.443L275.433 67.9414H276.657L278.073 72.1534L279.477 67.9414H280.737L282.141 72.1534L283.551 67.9414H284.775L282.771 73.9414H281.517L280.101 69.6994L278.685 73.9414Z" fill="white"/>
<defs>
<linearGradient id="paint0_linear_879_6716" x1="0.197266" y1="0.941406" x2="293.208" y2="76.6182" gradientUnits="userSpaceOnUse">
<stop offset="0.00662476" stop-color="#45308D"/>
<stop offset="1" stop-color="#9B25AD"/>
</linearGradient>
</defs>
</svg>
