<svg width="95" height="94" viewBox="0 0 95 94" fill="none" xmlns="http://www.w3.org/2000/svg">
<path fill-rule="evenodd" clip-rule="evenodd" d="M47.5 89C70.696 89 89.5 70.196 89.5 47C89.5 23.804 70.696 5 47.5 5C24.304 5 5.5 23.804 5.5 47C5.5 70.196 24.304 89 47.5 89ZM47.5 94C73.4574 94 94.5 72.9574 94.5 47C94.5 21.0426 73.4574 0 47.5 0C21.5426 0 0.5 21.0426 0.5 47C0.5 72.9574 21.5426 94 47.5 94Z" fill="#7C56FE"/>
<path d="M35.9963 48.2722L43.7411 56.0641L59.0036 37.9375" stroke="#7C56FE" stroke-width="5" stroke-linecap="round" stroke-linejoin="round"/>
</svg>
