<svg width="21" height="20" viewBox="0 0 21 20" fill="none" xmlns="http://www.w3.org/2000/svg">
<mask id="mask0_204_876" style="mask-type:luminance" maskUnits="userSpaceOnUse" x="0" y="0" width="21" height="20">
<path d="M21.0002 10C21.0002 4.47715 16.4889 0 10.9239 0C5.35895 0 0.847656 4.47715 0.847656 10C0.847656 15.5228 5.35895 20 10.9239 20C16.4889 20 21.0002 15.5228 21.0002 10Z" fill="white"/>
</mask>
<g mask="url(#mask0_204_876)">
<path d="M11.26 4.96582H20.1946V14.752H11.26C8.53701 14.752 6.32959 12.5613 6.32959 9.8589C6.32959 7.15654 8.53701 4.96582 11.26 4.96582Z" stroke="#A81DA6" stroke-width="1.5"/>
<path d="M0.836914 9.91602L21.0275 10.1255" stroke="#A81DA6" stroke-width="1.5"/>
</g>
<path d="M20.1941 10.0003C20.1941 4.91927 16.0437 0.800293 10.924 0.800293C5.8042 0.800293 1.65381 4.91927 1.65381 10.0003C1.65381 15.0813 5.8042 19.2003 10.924 19.2003C16.0437 19.2003 20.1941 15.0813 20.1941 10.0003Z" stroke="#A81DA6" stroke-width="1.5"/>
</svg>
