<svg width="22" height="20" viewBox="0 0 22 20" fill="none" xmlns="http://www.w3.org/2000/svg">
<mask id="mask0_342_1006" style="mask-type:luminance" maskUnits="userSpaceOnUse" x="1" y="1" width="18" height="18">
<path d="M18.6629 9.76462C18.6629 4.92405 14.7089 1 9.83145 1C4.95398 1 1 4.92405 1 9.76462C1 14.6052 4.95398 18.5292 9.83145 18.5292C14.7089 18.5292 18.6629 14.6052 18.6629 9.76462Z" fill="white"/>
</mask>
<g mask="url(#mask0_342_1006)">
<path d="M10.126 5.35254H17.9568V13.9297H10.126C7.73941 13.9297 5.80469 12.0097 5.80469 9.64114C5.80469 7.27262 7.73941 5.35254 10.126 5.35254Z" stroke="white" stroke-width="1.5"/>
<path d="M0.990723 9.69092L18.687 9.87452" stroke="white" stroke-width="1.5"/>
</g>
<path d="M17.9564 9.76511C17.9564 5.31179 14.3188 1.70166 9.83148 1.70166C5.3442 1.70166 1.70654 5.31179 1.70654 9.76511C1.70654 14.2184 5.3442 17.8286 9.83148 17.8286C14.3188 17.8286 17.9564 14.2184 17.9564 9.76511Z" stroke="white" stroke-width="1.5"/>
<path d="M15.8919 10.7249C16.2922 10.2304 17.0462 10.2304 17.4465 10.7249L17.6235 10.9436C17.8367 11.2069 18.1686 11.3444 18.5055 11.309L18.7854 11.2795C19.418 11.2129 19.9512 11.7461 19.8846 12.3787L19.8551 12.6586C19.8197 12.9955 19.9572 13.3274 20.2205 13.5406L20.4392 13.7176C20.9336 14.1178 20.9336 14.8719 20.4392 15.2722L20.2205 15.4492C19.9572 15.6623 19.8197 15.9943 19.8551 16.3312L19.8846 16.6111C19.9512 17.2437 19.418 17.7769 18.7854 17.7103L18.5055 17.6808C18.1686 17.6453 17.8367 17.7828 17.6235 18.0462L17.4465 18.2649C17.0462 18.7593 16.2922 18.7593 15.8919 18.2649L15.7149 18.0462C15.5017 17.7828 15.1698 17.6453 14.8329 17.6808L14.553 17.7103C13.9204 17.7769 13.3872 17.2437 13.4538 16.6111L13.4833 16.3312C13.5188 15.9943 13.3812 15.6623 13.1179 15.4492L12.8992 15.2722C12.4048 14.8719 12.4048 14.1178 12.8992 13.7176L13.1179 13.5406C13.3812 13.3274 13.5188 12.9955 13.4833 12.6586L13.4538 12.3787C13.3872 11.7461 13.9204 11.2129 14.553 11.2795L14.8329 11.309C15.1698 11.3444 15.5017 11.2069 15.7149 10.9436L15.8919 10.7249Z" fill="#2EAE4E"/>
<path fill-rule="evenodd" clip-rule="evenodd" d="M18.2825 13.0882C18.3618 13.1486 18.3771 13.2618 18.3167 13.3411L16.392 15.8672C16.3604 15.9087 16.3125 15.9344 16.2605 15.9379C16.2086 15.9414 16.1577 15.9223 16.1208 15.8855L15.0382 14.8028C14.9677 14.7324 14.9677 14.6181 15.0382 14.5477C15.1087 14.4772 15.2229 14.4772 15.2934 14.5477L16.23 15.4843L18.0296 13.1224C18.09 13.0431 18.2032 13.0278 18.2825 13.0882Z" fill="white" stroke="white" stroke-width="0.5" stroke-linecap="round" stroke-linejoin="round"/>
</svg>
