<svg width="21" height="20" viewBox="0 0 21 20" fill="none" xmlns="http://www.w3.org/2000/svg">
<g clip-path="url(#clip0_1290_21455)">
<path d="M18.6598 15.5863C18.3573 16.2851 17.9993 16.9283 17.5845 17.5196C17.0191 18.3257 16.5562 18.8838 16.1994 19.1936C15.6463 19.7022 15.0537 19.9627 14.4192 19.9775C13.9637 19.9775 13.4143 19.8479 12.7748 19.585C12.1332 19.3232 11.5436 19.1936 11.0045 19.1936C10.4391 19.1936 9.83268 19.3232 9.18406 19.585C8.53445 19.8479 8.01113 19.985 7.61102 19.9985C7.00252 20.0245 6.396 19.7566 5.79059 19.1936C5.40418 18.8566 4.92086 18.2788 4.34187 17.4603C3.72065 16.5863 3.20993 15.5727 2.80982 14.4172C2.38131 13.1691 2.1665 11.9605 2.1665 10.7904C2.1665 9.45009 2.45612 8.29407 3.03623 7.32534C3.49214 6.54721 4.09866 5.9334 4.85778 5.4828C5.61689 5.03219 6.43711 4.80257 7.32041 4.78788C7.80373 4.78788 8.43754 4.93738 9.22517 5.2312C10.0106 5.52601 10.5149 5.67551 10.736 5.67551C10.9013 5.67551 11.4615 5.5007 12.4112 5.15219C13.3094 4.82899 14.0674 4.69517 14.6883 4.74788C16.371 4.88368 17.6351 5.54699 18.4759 6.74202C16.971 7.65384 16.2265 8.93097 16.2414 10.5693C16.2549 11.8454 16.7179 12.9074 17.6277 13.7506C18.0401 14.1419 18.5006 14.4444 19.0129 14.6592C18.9018 14.9814 18.7845 15.29 18.6598 15.5863ZM14.8007 0.400358C14.8007 1.40059 14.4352 2.3345 13.7069 3.19892C12.8279 4.22654 11.7647 4.82035 10.6118 4.72665C10.5971 4.60665 10.5886 4.48036 10.5886 4.34765C10.5886 3.38743 11.0066 2.3598 11.7489 1.51958C12.1195 1.09416 12.5909 0.740434 13.1624 0.458257C13.7328 0.18029 14.2723 0.0265683 14.7797 0.000244141C14.7945 0.133959 14.8007 0.267682 14.8007 0.400345V0.400358Z" fill="white"/>
</g>
<defs>
<clipPath id="clip0_1290_21455">
<rect width="20" height="20" fill="white" transform="translate(0.5)"/>
</clipPath>
</defs>
</svg>
