<svg width="26" height="27" viewBox="0 0 26 27" fill="none" xmlns="http://www.w3.org/2000/svg">
<g filter="url(#filter0_d_504_10620)">
<path d="M22.0857 12.4975C22.0877 12.823 21.9918 13.1411 21.8113 13.408C21.6307 13.675 21.3744 13.8777 21.0776 13.9882L16.0802 15.884L14.2418 21.0336C14.133 21.3386 13.936 21.6018 13.6775 21.7877C13.419 21.9737 13.1115 22.0733 12.7963 22.0733C12.4812 22.0733 12.1736 21.9737 11.9151 21.7877C11.6566 21.6018 11.4597 21.3386 11.3508 21.0336L9.50761 15.89L4.51313 13.9942C4.21738 13.882 3.96214 13.6788 3.78184 13.4123C3.60155 13.1457 3.50488 12.8285 3.50488 12.5035C3.50488 12.1785 3.60155 11.8614 3.78184 11.5948C3.96214 11.3282 4.21738 11.1251 4.51313 11.0128L9.51052 9.11706L11.3489 3.96749C11.4577 3.6625 11.6547 3.39928 11.9132 3.21335C12.1717 3.02742 12.4792 2.92773 12.7944 2.92773C13.1095 2.92773 13.4171 3.02742 13.6756 3.21335C13.9341 3.39928 14.131 3.6625 14.2399 3.96749L16.0782 9.12105L21.0717 11.0168C21.3681 11.1258 21.6246 11.3266 21.8061 11.5916C21.9876 11.8567 22.0853 12.1731 22.0857 12.4975Z" fill="#A166F5"/>
<path d="M20.5377 5.77067H21.3117C21.517 5.77067 21.7139 5.85477 21.859 6.00446C22.0042 6.15416 22.0857 6.35719 22.0857 6.56889C22.0857 6.7806 22.0042 6.98363 21.859 7.13333C21.7139 7.28302 21.517 7.36712 21.3117 7.36712H20.5377V8.16535C20.5377 8.37705 20.4561 8.58008 20.311 8.72978C20.1658 8.87948 19.9689 8.96358 19.7636 8.96358C19.5583 8.96358 19.3615 8.87948 19.2163 8.72978C19.0711 8.58008 18.9896 8.37705 18.9896 8.16535V7.36712H18.2155C18.0103 7.36712 17.8134 7.28302 17.6682 7.13333C17.5231 6.98363 17.4415 6.7806 17.4415 6.56889C17.4415 6.35719 17.5231 6.15416 17.6682 6.00446C17.8134 5.85477 18.0103 5.77067 18.2155 5.77067H18.9896V4.97244C18.9896 4.76074 19.0711 4.5577 19.2163 4.40801C19.3615 4.25831 19.5583 4.17421 19.7636 4.17421C19.9689 4.17421 20.1658 4.25831 20.311 4.40801C20.4561 4.5577 20.5377 4.76074 20.5377 4.97244V5.77067Z" fill="#A166F5"/>
</g>
<path fill-rule="evenodd" clip-rule="evenodd" d="M15.5724 10.9566C15.7073 11.0915 15.7073 11.3102 15.5724 11.445L12.349 14.6684C12.2141 14.8033 11.9954 14.8033 11.8606 14.6684L10.0186 12.8265C9.88376 12.6916 9.88376 12.4729 10.0186 12.3381C10.1535 12.2032 10.3722 12.2032 10.5071 12.3381L12.1048 13.9358L15.084 10.9566C15.2188 10.8218 15.4375 10.8218 15.5724 10.9566Z" fill="white" stroke="white" stroke-width="0.5" stroke-linecap="round" stroke-linejoin="round"/>
<defs>
<filter id="filter0_d_504_10620" x="0.504883" y="0.927734" width="24.5811" height="25.1455" filterUnits="userSpaceOnUse" color-interpolation-filters="sRGB">
<feFlood flood-opacity="0" result="BackgroundImageFix"/>
<feColorMatrix in="SourceAlpha" type="matrix" values="0 0 0 0 0 0 0 0 0 0 0 0 0 0 0 0 0 0 127 0" result="hardAlpha"/>
<feOffset dy="1"/>
<feGaussianBlur stdDeviation="1.5"/>
<feComposite in2="hardAlpha" operator="out"/>
<feColorMatrix type="matrix" values="0 0 0 0 0.94902 0 0 0 0 0.788235 0 0 0 0 0.0705882 0 0 0 0.15 0"/>
<feBlend mode="normal" in2="BackgroundImageFix" result="effect1_dropShadow_504_10620"/>
<feBlend mode="normal" in="SourceGraphic" in2="effect1_dropShadow_504_10620" result="shape"/>
</filter>
</defs>
</svg>
