<svg width="20" height="20" viewBox="0 0 20 20" fill="none" xmlns="http://www.w3.org/2000/svg">
<path d="M18.3334 6.29195C18.3334 6.84195 17.8834 7.29195 17.3334 7.29195H2.66675C2.11675 7.29195 1.66675 6.84195 1.66675 6.29195V6.28362C1.66675 4.37528 3.20841 2.83362 5.11675 2.83362H14.8751C16.7834 2.83362 18.3334 4.38362 18.3334 6.29195Z" fill="url(#paint0_linear_1520_11415)"/>
<path d="M1.66675 9.54163V13.7166C1.66675 15.625 3.20841 17.1666 5.11675 17.1666H14.8751C16.7834 17.1666 18.3334 15.6166 18.3334 13.7083V9.54163C18.3334 8.99163 17.8834 8.54163 17.3334 8.54163H2.66675C2.11675 8.54163 1.66675 8.99163 1.66675 9.54163ZM6.66675 14.375H5.00008C4.65841 14.375 4.37508 14.0916 4.37508 13.75C4.37508 13.4083 4.65841 13.125 5.00008 13.125H6.66675C7.00841 13.125 7.29175 13.4083 7.29175 13.75C7.29175 14.0916 7.00841 14.375 6.66675 14.375ZM12.0834 14.375H8.75008C8.40841 14.375 8.12508 14.0916 8.12508 13.75C8.12508 13.4083 8.40841 13.125 8.75008 13.125H12.0834C12.4251 13.125 12.7084 13.4083 12.7084 13.75C12.7084 14.0916 12.4251 14.375 12.0834 14.375Z" fill="url(#paint1_linear_1520_11415)"/>
<defs>
<linearGradient id="paint0_linear_1520_11415" x1="10.0001" y1="3.49988" x2="10.0001" y2="17.1666" gradientUnits="userSpaceOnUse">
<stop stop-color="#FBF1FF"/>
<stop offset="1" stop-color="#C44FEF"/>
</linearGradient>
<linearGradient id="paint1_linear_1520_11415" x1="10.0001" y1="3.49988" x2="10.0001" y2="17.1666" gradientUnits="userSpaceOnUse">
<stop stop-color="#FBF1FF"/>
<stop offset="1" stop-color="#C44FEF"/>
</linearGradient>
</defs>
</svg>
