<svg width="24" height="24" viewBox="0 0 24 24" fill="none" xmlns="http://www.w3.org/2000/svg">
<path d="M7.42253 20.7916C7.10659 20.8915 6.9315 21.2287 7.03145 21.5446C7.1314 21.8605 7.46855 22.0356 7.78448 21.9357L7.42253 20.7916ZM14.0691 21.7727L14.0174 21.175L14.0691 21.7727ZM17.9484 20.9545L18.2006 21.499L17.9484 20.9545ZM21.6552 17.7542L21.1988 17.3647V17.3647L21.6552 17.7542ZM19.12 15.7517L19.533 16.1869V16.1869L19.12 15.7517ZM17.4128 17.372L17.8259 17.8072L17.4128 17.372ZM12.776 17.4909C12.4446 17.4909 12.176 17.7595 12.176 18.0909C12.176 18.4223 12.4446 18.6909 12.776 18.6909V17.4909ZM21.2611 15.5505L20.9403 16.0576V16.0576L21.2611 15.5505ZM8.91558 15.0137L9.13128 15.5736L9.15238 15.5655L9.17281 15.5558L8.91558 15.0137ZM13.5556 14.6109L13.4053 15.1918V15.1918L13.5556 14.6109ZM15.3677 15.0799L15.518 14.4991L15.3677 15.0799ZM15.9418 17.1318L15.5287 16.6966V16.6966L15.9418 17.1318ZM14.5181 17.6557C14.2778 17.8838 14.2679 18.2636 14.496 18.5039C14.7241 18.7443 15.1039 18.7542 15.3442 18.5261L14.5181 17.6557ZM7.78448 21.9357C7.99591 21.8688 8.33332 21.8472 8.8157 21.8798C9.28616 21.9116 9.82837 21.9892 10.4246 22.0781C11.5835 22.2509 12.9569 22.4711 14.1208 22.3705L14.0174 21.175C13.0261 21.2607 11.8132 21.0718 10.6015 20.8912C10.0123 20.8034 9.42305 20.7182 8.89673 20.6825C8.38233 20.6477 7.85767 20.6539 7.42253 20.7916L7.78448 21.9357ZM14.1208 22.3705C15.8085 22.2246 16.5454 22.2656 18.2006 21.499L17.6963 20.4101C16.266 21.0726 15.7488 21.0253 14.0174 21.175L14.1208 22.3705ZM18.2006 21.499C19.6752 20.816 21.1793 19.2362 22.1116 18.1437L21.1988 17.3647C20.2631 18.4613 18.9076 19.8491 17.6963 20.4101L18.2006 21.499ZM18.707 15.3165L16.9998 16.9368L17.8259 17.8072L19.533 16.1869L18.707 15.3165ZM15.5841 17.4909H12.776V18.6909H15.5841V17.4909ZM16.9998 16.9368C16.6294 17.2883 16.1207 17.4909 15.5841 17.4909V18.6909C16.4193 18.6909 17.2262 18.3763 17.8259 17.8072L16.9998 16.9368ZM21.5819 15.0435C20.68 14.4728 19.4811 14.5819 18.707 15.3165L19.533 16.1869C19.9028 15.836 20.4962 15.7765 20.9403 16.0576L21.5819 15.0435ZM22.1116 18.1437C22.9697 17.1382 22.6418 15.7141 21.5819 15.0435L20.9403 16.0576C21.4531 16.382 21.5303 16.9763 21.1988 17.3647L22.1116 18.1437ZM2.86208 14.6H6.31039V13.4H2.86208V14.6ZM6.57247 14.8182V22.1818H7.77247V14.8182H6.57247ZM6.31039 22.4H2.86208V23.6H6.31039V22.4ZM2.6 22.1818V14.8182H1.4V22.1818H2.6ZM2.86208 22.4C2.6874 22.4 2.6 22.2732 2.6 22.1818H1.4C1.4 22.9942 2.08453 23.6 2.86208 23.6V22.4ZM6.57247 22.1818C6.57247 22.2732 6.48507 22.4 6.31039 22.4V23.6C7.08794 23.6 7.77247 22.9942 7.77247 22.1818H6.57247ZM6.31039 14.6C6.48506 14.6 6.57247 14.7268 6.57247 14.8182H7.77247C7.77247 14.0058 7.08794 13.4 6.31039 13.4V14.6ZM2.86208 13.4C2.08453 13.4 1.4 14.0058 1.4 14.8182H2.6C2.6 14.7268 2.6874 14.6 2.86208 14.6V13.4ZM7.2157 16.3116L9.13128 15.5736L8.69987 14.4539L6.7843 15.1919L7.2157 16.3116ZM11.6143 15.0091H11.9678V13.8091H11.6143V15.0091ZM13.4053 15.1918L15.2173 15.6608L15.518 14.4991L13.706 14.03L13.4053 15.1918ZM15.5287 16.6966L14.5181 17.6557L15.3442 18.5261L16.3548 17.567L15.5287 16.6966ZM15.2173 15.6608C15.7509 15.7989 15.8655 16.377 15.5287 16.6966L16.3548 17.567C17.4222 16.5539 16.9002 14.8568 15.518 14.4991L15.2173 15.6608ZM11.9678 15.0091C12.4537 15.0091 12.9371 15.0706 13.4053 15.1918L13.706 14.03C13.1392 13.8833 12.5548 13.8091 11.9678 13.8091V15.0091ZM9.17281 15.5558C9.92952 15.1967 10.7655 15.0091 11.6143 15.0091V13.8091C10.5894 13.8091 9.57749 14.0355 8.65834 14.4717L9.17281 15.5558Z" fill="white"/>
<path d="M14 7.37176C14 7.88509 14.4 8.30509 14.8867 8.30509H15.8867C16.3133 8.30509 16.66 7.93842 16.66 7.49176C16.66 7.0051 16.4467 6.83176 16.1333 6.71843L14.5333 6.15843C14.2133 6.0451 14 5.87177 14 5.38511C14 4.93844 14.3467 4.57178 14.7733 4.57178H15.7733C16.2667 4.57844 16.6667 4.99178 16.6667 5.50511" stroke="white" stroke-width="0.5" stroke-linecap="round" stroke-linejoin="round"/>
<path d="M15.3335 8.33838V8.83171" stroke="white" stroke-width="0.5" stroke-linecap="round" stroke-linejoin="round"/>
<path d="M15.3335 4.04517V4.56516" stroke="white" stroke-width="0.5" stroke-linecap="round" stroke-linejoin="round"/>
<path d="M15.3266 11.7587C18.2685 11.7587 20.6533 9.37392 20.6533 6.4321C20.6533 3.49028 18.2685 1.10547 15.3266 1.10547C12.3848 1.10547 10 3.49028 10 6.4321C10 9.37392 12.3848 11.7587 15.3266 11.7587Z" stroke="white" stroke-linecap="round" stroke-linejoin="round"/>
</svg>
