<svg width="24" height="24" viewBox="0 0 24 24" fill="none" xmlns="http://www.w3.org/2000/svg">
<path d="M16 7.37176C16 7.88509 16.4 8.30509 16.8867 8.30509H17.8867C18.3133 8.30509 18.66 7.93842 18.66 7.49176C18.66 7.0051 18.4467 6.83176 18.1333 6.71843L16.5333 6.15843C16.2133 6.0451 16 5.87177 16 5.38511C16 4.93844 16.3467 4.57178 16.7733 4.57178H17.7733C18.2667 4.57844 18.6667 4.99178 18.6667 5.50511" stroke="white" stroke-width="0.5" stroke-linecap="round" stroke-linejoin="round"/>
<path d="M17.3335 8.33838V8.83171" stroke="white" stroke-width="0.5" stroke-linecap="round" stroke-linejoin="round"/>
<path d="M17.3335 4.04517V4.56516" stroke="white" stroke-width="0.5" stroke-linecap="round" stroke-linejoin="round"/>
<path d="M17.3266 11.7587C20.2685 11.7587 22.6533 9.37392 22.6533 6.4321C22.6533 3.49028 20.2685 1.10547 17.3266 1.10547C14.3848 1.10547 12 3.49028 12 6.4321C12 9.37392 14.3848 11.7587 17.3266 11.7587Z" stroke="white" stroke-linecap="round" stroke-linejoin="round"/>
<path d="M6 18.3718C6 18.8851 6.4 19.3051 6.88666 19.3051H7.88666C8.31332 19.3051 8.65998 18.9384 8.65998 18.4918C8.65998 18.0051 8.44665 17.8318 8.13332 17.7184L6.53333 17.1584C6.21333 17.0451 6 16.8718 6 16.3851C6 15.9384 6.34666 15.5718 6.77333 15.5718H7.77332C8.26665 15.5784 8.66665 15.9918 8.66665 16.5051" stroke="white" stroke-width="0.5" stroke-linecap="round" stroke-linejoin="round"/>
<path d="M7.3335 19.3384V19.8317" stroke="white" stroke-width="0.5" stroke-linecap="round" stroke-linejoin="round"/>
<path d="M7.3335 15.0452V15.5652" stroke="white" stroke-width="0.5" stroke-linecap="round" stroke-linejoin="round"/>
<path d="M7.32663 22.7587C10.2685 22.7587 12.6533 20.3739 12.6533 17.4321C12.6533 14.4903 10.2685 12.1055 7.32663 12.1055C4.38482 12.1055 2 14.4903 2 17.4321C2 20.3739 4.38482 22.7587 7.32663 22.7587Z" stroke="white" stroke-linecap="round" stroke-linejoin="round"/>
<path d="M22 15C22 18.87 18.87 22 15 22L16.05 20.25" stroke="white" stroke-width="1.5" stroke-linecap="round" stroke-linejoin="round"/>
<path d="M2 9C2 5.13 5.13 2 9 2L7.95001 3.75" stroke="white" stroke-width="1.5" stroke-linecap="round" stroke-linejoin="round"/>
</svg>
