<svg width="24" height="24" viewBox="0 0 24 24" fill="none" xmlns="http://www.w3.org/2000/svg">
<path d="M3 12.65H21V11.35H3V12.65ZM12 20.35C7.38842 20.35 3.65 16.6116 3.65 12H2.35C2.35 17.3295 6.67045 21.65 12 21.65V20.35ZM3.65 12C3.65 7.38842 7.38842 3.65 12 3.65V2.35C6.67045 2.35 2.35 6.67045 2.35 12H3.65ZM12 3.65C16.6116 3.65 20.35 7.38842 20.35 12H21.65C21.65 6.67045 17.3295 2.35 12 2.35V3.65ZM20.35 12C20.35 16.6116 16.6116 20.35 12 20.35V21.65C17.3295 21.65 21.65 17.3295 21.65 12H20.35ZM12 20.35C11.6592 20.35 11.2856 20.1973 10.8911 19.8219C10.4933 19.4433 10.1054 18.8647 9.76555 18.1C9.08655 16.5722 8.65 14.4161 8.65 12H7.35C7.35 14.5545 7.80888 16.8983 8.5776 18.628C8.96159 19.4919 9.43566 20.2314 9.99492 20.7636C10.5575 21.299 11.2362 21.65 12 21.65V20.35ZM8.65 12C8.65 9.58389 9.08655 7.42778 9.76555 5.90003C10.1054 5.13534 10.4933 4.55674 10.8911 4.17812C11.2856 3.80269 11.6592 3.65 12 3.65V2.35C11.2362 2.35 10.5575 2.70099 9.99492 3.23641C9.43566 3.76864 8.96159 4.50806 8.5776 5.37205C7.80888 7.10166 7.35 9.44554 7.35 12H8.65ZM12 3.65C12.3408 3.65 12.7144 3.80269 13.1089 4.17812C13.5067 4.55674 13.8946 5.13534 14.2344 5.90003C14.9134 7.42778 15.35 9.58389 15.35 12H16.65C16.65 9.44554 16.1911 7.10166 15.4224 5.37205C15.0384 4.50806 14.5643 3.76864 14.0051 3.23641C13.4425 2.70099 12.7638 2.35 12 2.35V3.65ZM15.35 12C15.35 14.4161 14.9134 16.5722 14.2344 18.1C13.8946 18.8647 13.5067 19.4433 13.1089 19.8219C12.7144 20.1973 12.3408 20.35 12 20.35V21.65C12.7638 21.65 13.4425 21.299 14.0051 20.7636C14.5643 20.2314 15.0384 19.4919 15.4224 18.628C16.1911 16.8983 16.65 14.5545 16.65 12H15.35Z" fill="white"/>
</svg>
