<svg width="21" height="20" viewBox="0 0 21 20" fill="none" xmlns="http://www.w3.org/2000/svg">
<g clip-path="url(#clip0_1290_21461)">
<path d="M16.1016 11.5492H11.2002V8.69836H19.7042C19.7726 9.20414 19.8052 9.71765 19.8052 10.2303C19.8052 13.0737 18.818 15.4538 17.1268 17.0866H14.6027V15.3478C15.6494 14.5715 16.3616 13.4238 16.5937 12.138L16.7 11.5492H16.1016Z" fill="#4285F4" stroke="#4285F4"/>
<path d="M10.6994 20.0006C13.3965 20.0006 15.671 19.1151 17.3281 17.5865L14.1056 15.0879C13.2091 15.6979 12.0516 16.0433 10.7031 16.0433C8.09425 16.0433 5.88224 14.2832 5.08856 11.9169H1.76318V14.4927C3.46078 17.8695 6.91843 20.0006 10.6994 20.0006Z" fill="#34A853"/>
<path d="M5.08564 11.9169C4.66676 10.6749 4.66676 9.33008 5.08564 8.08811V5.51233H1.76395C0.345611 8.33798 0.345611 11.667 1.76395 14.4927L5.08564 11.9169Z" fill="#FBBC04"/>
<path d="M10.6994 3.95805C12.1251 3.936 13.503 4.47247 14.5356 5.45722L17.3906 2.60218C15.5828 0.904587 13.1834 -0.0287217 10.6994 0.000673888C6.91843 0.000673888 3.46078 2.13185 1.76318 5.51234L5.08488 8.08813C5.87489 5.71811 8.09058 3.95805 10.6994 3.95805Z" fill="#EA4335"/>
</g>
<defs>
<clipPath id="clip0_1290_21461">
<rect width="20" height="20" fill="white" transform="translate(0.5)"/>
</clipPath>
</defs>
</svg>
