<svg width="24" height="24" viewBox="0 0 24 24" fill="none" xmlns="http://www.w3.org/2000/svg">
<g clip-path="url(#clip0_1891_13939)">
<path d="M12.8238 3H13.9896L14.7513 3.01554L15.3731 3.03109L15.6995 3.04663C16.6632 3.09326 17.3161 3.2487 17.8756 3.46632C18.4663 3.69948 18.9637 4.01036 19.4767 4.50777C19.9741 5.00518 20.285 5.51813 20.5181 6.10881C20.7202 6.62176 20.8601 7.19689 20.9223 7.98964L20.9689 8.84456L20.9845 9.65285L21 11.1917V14.0829L20.9845 14.9845L20.9534 15.7306C20.9067 16.6943 20.7513 17.3471 20.5337 17.9223C20.3005 18.513 19.9896 19.0104 19.4922 19.5233C18.9948 20.0207 18.4974 20.3316 17.8912 20.5648C17.3782 20.7668 16.8031 20.9067 16.0104 20.9689L15.0466 21.0155L14.1917 21.0311L12.8083 21.0466H9.9171L9.01554 21.0311L8.26943 21C7.3057 20.9534 6.65285 20.7979 6.09326 20.5803C5.50259 20.3471 5.00518 20.0363 4.49223 19.5389C3.99482 19.0415 3.68394 18.5285 3.45078 17.9378C3.2487 17.4249 3.10881 16.8497 3.04663 16.057L3.01554 15.4197L3 14.7979L3 13.9896V12.5596V9.99482L3.01554 9.23316L3.03109 8.6114L3.04663 8.28497C3.09326 7.33679 3.2487 6.68394 3.46632 6.10881C3.69948 5.51813 4.01036 5.02073 4.50777 4.50777C5.00518 4.01036 5.51813 3.69948 6.10881 3.46632C6.62176 3.26425 7.19689 3.12435 7.98964 3.06218L8.62694 3.03109L9.2487 3.01554L9.99482 3H11.1606C11.1762 3 12.8238 3 12.8238 3ZM13.9585 4.63212H10.0259L9.34197 4.64767L8.34715 4.67876C8.09845 4.6943 7.84974 4.70984 7.60104 4.74093L7.46114 4.75648C7.36788 4.77202 7.25907 4.78756 7.1658 4.81865L7.05699 4.84974C7.02591 4.86528 6.99482 4.86528 6.96373 4.88083L6.76166 4.94301L6.66839 4.97409C6.2487 5.14508 5.95337 5.33161 5.62694 5.64249C5.31606 5.95337 5.11399 6.26425 4.95855 6.68394L4.91192 6.88601L4.88083 6.97927C4.80311 7.24352 4.72539 7.61658 4.67876 8.12953L4.66321 8.51813L4.63212 9.32642L4.61658 10.7098V13.9119L4.63212 14.9067L4.66321 15.6373C4.67876 15.9016 4.6943 16.1658 4.74093 16.4301L4.75648 16.5544C4.75648 16.5699 4.75648 16.601 4.77202 16.6166L4.80311 16.7254L4.8342 16.8342C4.8342 16.8497 4.84974 16.8653 4.84974 16.8808L4.88083 16.9741L4.91192 17.0674L4.92746 17.114L4.98964 17.3005C5.14508 17.7202 5.34715 18.0155 5.65803 18.342C5.96891 18.6528 6.27979 18.8549 6.69948 19.0104L6.88601 19.0725L6.96373 19.1036L7.01036 19.1192L7.10363 19.1503C7.11917 19.1503 7.13472 19.1658 7.15026 19.1658L7.25907 19.1969L7.36788 19.228L7.49223 19.2435C7.72539 19.2902 8.00518 19.3212 8.34715 19.3368L9.45078 19.3834L10.9119 19.399H14.0829L14.8912 19.3834L15.6218 19.3523C15.9637 19.3368 16.2435 19.3057 16.4767 19.2591L16.601 19.2435L16.7098 19.2124L16.8342 19.1658L16.8808 19.1503L16.9741 19.1192L17.0674 19.0881L17.114 19.0725L17.3005 19.0104C17.7202 18.8549 18.0155 18.6528 18.342 18.342C18.6528 18.0311 18.8549 17.7202 19.0104 17.3005L19.0725 17.114C19.1658 16.8342 19.2591 16.4456 19.3057 15.8549L19.3523 14.9067L19.3679 13.943V12.5596V10.057L19.3523 9.09326L19.3212 8.36269C19.3057 8.14508 19.2902 7.91192 19.2591 7.6943L19.2435 7.5544C19.228 7.49223 19.228 7.43005 19.2124 7.36788L19.1813 7.25907C19.1658 7.22798 19.1658 7.18135 19.1503 7.15026L19.1192 7.05699L19.1036 7.01036L19.0259 6.76166L19.0104 6.71503C18.8394 6.29534 18.6528 6 18.342 5.67358C18.0311 5.34715 17.7202 5.16062 17.3005 5.00518L17.2073 4.97409L17.0052 4.91192L16.9585 4.86528L16.8342 4.8342C16.5855 4.77202 16.2746 4.70984 15.8549 4.67876L15.1865 4.64767L14.6425 4.63212H13.9585Z" fill="white"/>
<path d="M11.9994 7.3837C14.5486 7.3837 16.616 9.45106 16.616 12.0003C16.616 14.5495 14.5486 16.6169 11.9994 16.6169C9.45017 16.6169 7.38281 14.5495 7.38281 12.0003C7.38281 9.45106 9.45017 7.3837 11.9994 7.3837ZM11.9994 9.00028C10.3362 9.00028 8.99939 10.3371 8.99939 12.0003C8.99939 13.6635 10.3362 15.0003 11.9994 15.0003C13.6626 15.0003 14.9994 13.6635 14.9994 12.0003C14.9994 10.3371 13.6471 9.00028 11.9994 9.00028ZM17.875 7.19717C17.8906 7.78785 17.4243 8.28525 16.8336 8.3008C16.2429 8.31634 15.7455 7.85002 15.73 7.25935C15.73 7.2438 15.73 7.21272 15.73 7.19717C15.7455 6.6065 16.2429 6.12463 16.8336 6.15572C17.4087 6.15572 17.8595 6.62204 17.875 7.19717Z" fill="white"/>
</g>
<defs>
<clipPath id="clip0_1891_13939">
<rect width="18" height="18" fill="white" transform="translate(3 3)"/>
</clipPath>
</defs>
</svg>
