<svg width="25" height="25" viewBox="0 0 25 25" fill="none" xmlns="http://www.w3.org/2000/svg">
<path d="M18.7273 19.0898H16.0012V14.7885C16.0012 13.7629 15.983 12.4425 14.5833 12.4425C13.1837 12.4425 12.946 13.5599 12.946 14.7138V19.0895H10.2199V10.2444H12.8372V11.453H12.874C13.4076 10.5337 14.4001 9.98475 15.4564 10.0242C18.2195 10.0242 18.7288 11.8553 18.7288 14.2374L18.7273 19.0898ZM7.14377 9.03539C6.27012 9.03539 5.56148 8.32207 5.56148 7.4419C5.56148 6.56173 6.26952 5.8478 7.14317 5.8478C8.01682 5.8478 8.72546 6.56112 8.72546 7.44129C8.72546 8.32146 8.01742 9.03539 7.14377 9.03539ZM8.50697 19.0898H5.77784V10.2444H8.50697V19.0898ZM20.0865 3.29699H4.40796C3.6668 3.28842 3.05935 3.88663 3.05023 4.63301V20.4941C3.05904 21.2411 3.66649 21.8396 4.40796 21.8317H20.0865C20.8295 21.8412 21.4394 21.2426 21.4498 20.4941V4.6321C21.4391 3.88418 20.8292 3.2872 20.0865 3.29699Z" fill="#0A66C2"/>
</svg>
