<svg width="20" height="29" viewBox="0 0 20 29" fill="none" xmlns="http://www.w3.org/2000/svg">
<path d="M10.1972 14.0133C10.1972 15.2775 10.1963 18.842 10.1963 20.049C10.1963 22.0355 12.9943 23.1831 14.978 24.3686C16.4002 25.2186 15.5681 26.5014 13.9113 26.5014H6.09834C4.44149 26.5014 3.60767 25.2176 5.02863 24.3655C7.0124 23.176 9.81285 22.0243 9.81285 20.0349C9.81285 18.9037 9.81244 15.2775 9.81244 14.0133C9.81244 12.7474 8.64093 11.8658 7.40052 10.9325C6.48105 10.2406 5.43872 9.45673 4.76905 8.43248C4.00023 7.25669 3.63105 6.44658 3.40681 5.44293C3.28242 4.88478 3.68778 4.35896 4.25756 4.31029C6.12862 4.15046 8.03703 4.32639 10.0048 5.03689C11.077 5.37116 12.19 5.55121 13.3353 5.6093C14.9255 5.68997 16.1118 7.0997 15.2406 8.43248C14.5707 9.45673 13.529 10.2406 12.6093 10.9325C11.3691 11.8658 10.1972 12.7474 10.1972 14.0133ZM13.4378 11.6475C14.4276 10.903 15.5494 10.059 16.315 8.8886C17 7.8403 17.5149 6.88244 17.7978 5.61622C18.0383 4.54021 18.1158 3.2554 18.1366 1.59946C18.1404 1.29664 18.386 1.05192 18.6889 1.05192C19.0497 1.05192 19.3418 0.816529 19.3418 0.526123C19.3418 0.235388 19.0497 0 18.6889 0H1.31091C0.950317 0 0.658203 0.235388 0.658203 0.526123C0.658203 0.816529 0.950317 1.05192 1.31091 1.05192C1.61929 1.05192 1.86943 1.30117 1.87335 1.60952C1.8943 3.26061 1.97197 4.54239 2.21178 5.61622C2.4949 6.88244 3.00942 7.8403 3.69503 8.8886C4.45997 10.059 5.58202 10.903 6.57181 11.6475C7.70388 12.4995 8.59841 13.1724 8.59841 14.0133C8.59841 14.8499 7.65563 15.5528 6.56425 16.3667C5.56812 17.1096 4.4383 17.952 3.69381 19.1151C2.9902 20.2144 2.49756 21.1492 2.21668 22.4117C1.97671 23.4896 1.90099 24.7645 1.88465 26.4006C1.88151 26.7158 1.62612 26.9712 1.31091 26.9712C0.950317 26.9712 0.658203 27.2069 0.658203 27.4973C0.658203 27.7877 0.950317 28.0234 1.31091 28.0234H18.6889C19.0497 28.0234 19.3418 27.7877 19.3418 27.4973C19.3418 27.2069 19.0497 26.9712 18.6889 26.9712C18.3789 26.9712 18.1277 26.7201 18.1247 26.4101C18.1088 24.7694 18.0336 23.4917 17.7931 22.4117C17.5121 21.1492 17.0198 20.2144 16.316 19.1151C15.5713 17.952 14.4419 17.1096 13.4456 16.3667C12.3538 15.5528 11.4112 14.8499 11.4112 14.0133C11.4112 13.1724 12.3055 12.4995 13.4378 11.6475Z" fill="white"/>
</svg>
