<svg width="12" height="23" viewBox="0 0 12 23" fill="none" xmlns="http://www.w3.org/2000/svg">
<path d="M5.49252 9.00667C7.98399 9.00667 10.0037 6.99046 10.0037 4.50333C10.0037 2.01621 7.98399 0 5.49252 0C3.12879 0 1.18966 1.81481 0.99707 4.12481H6.95981V4.88189H0.99707C1.18966 7.19186 3.12879 9.00667 5.49252 9.00667Z" fill="#1577EA"/>
<path d="M9.50334 13.9922H2.24641C2.09626 13.9922 1.94612 14.0452 1.84603 14.2042L1.09531 15.2641C0.845069 15.6351 1.09531 16.1121 1.49569 16.1121H8.75262C8.90277 16.1121 9.05291 16.0591 9.15301 15.9001L9.90372 14.8401C10.154 14.4692 9.90372 13.9922 9.50334 13.9922Z" fill="white"/>
<path d="M1.49569 17.4375H8.75262C8.90277 17.4375 9.05291 17.4905 9.15301 17.6495L9.90372 18.7094C10.154 19.0804 9.90372 19.5574 9.50334 19.5574H2.24641C2.09626 19.5574 1.94612 19.5044 1.84603 19.3454L1.09531 18.2855C0.845069 17.9145 1.09531 17.4375 1.49569 17.4375Z" fill="white"/>
<path d="M9.50334 20.8809H2.24641C2.09626 20.8809 1.94612 20.9339 1.84603 21.0928L1.09531 22.1528C0.845069 22.5238 1.09531 23.0007 1.49569 23.0007H8.75262C8.90277 23.0007 9.05291 22.9477 9.15301 22.7888L9.90372 21.7288C10.154 21.3578 9.90372 20.8809 9.50334 20.8809Z" fill="white"/>
</svg>
