<svg width="19" height="19" viewBox="0 0 19 19" fill="none" xmlns="http://www.w3.org/2000/svg">
<rect x="0.5" y="0.838501" width="18" height="18" rx="9" fill="#E81509"/>
<path d="M6.366 13.1027C5.82 13.1027 5.343 12.9977 4.935 12.7877C4.533 12.5777 4.218 12.2657 3.99 11.8517C3.768 11.4377 3.657 10.9397 3.657 10.3577C3.657 9.81773 3.729 9.31973 3.873 8.86373C4.023 8.40773 4.239 8.00873 4.521 7.66673C4.803 7.32473 5.145 7.06073 5.547 6.87473C5.949 6.68873 6.408 6.59573 6.924 6.59573C7.476 6.59573 7.953 6.70073 8.355 6.91073C8.763 7.12073 9.078 7.43273 9.3 7.84673C9.522 8.25473 9.633 8.74973 9.633 9.33173C9.633 9.87773 9.558 10.3787 9.408 10.8347C9.264 11.2907 9.051 11.6897 8.769 12.0317C8.487 12.3737 8.145 12.6377 7.743 12.8237C7.341 13.0097 6.882 13.1027 6.366 13.1027ZM6.384 12.2927C6.876 12.2927 7.29 12.1667 7.626 11.9147C7.962 11.6567 8.217 11.3057 8.391 10.8617C8.565 10.4177 8.652 9.91373 8.652 9.34973C8.652 8.68973 8.496 8.20073 8.184 7.88273C7.878 7.56473 7.449 7.40573 6.897 7.40573C6.411 7.40573 6 7.53173 5.664 7.78373C5.328 8.03573 5.073 8.38373 4.899 8.82773C4.725 9.27173 4.638 9.77573 4.638 10.3397C4.638 11.0057 4.794 11.4977 5.106 11.8157C5.418 12.1337 5.844 12.2927 6.384 12.2927ZM10.8515 13.0847C10.7015 13.0847 10.5905 13.0367 10.5185 12.9407C10.4525 12.8447 10.4285 12.7127 10.4465 12.5447L11.3105 7.13573C11.3345 6.97973 11.3915 6.86573 11.4815 6.79373C11.5715 6.71573 11.6915 6.67673 11.8415 6.67673H13.7495C14.4215 6.67673 14.9375 6.82373 15.2975 7.11773C15.6575 7.41173 15.8375 7.84373 15.8375 8.41373C15.8375 9.07373 15.6305 9.59573 15.2165 9.97973C14.8025 10.3637 14.1995 10.5557 13.4075 10.5557H11.6885L11.3645 12.6257C11.3405 12.7817 11.2865 12.8987 11.2025 12.9767C11.1185 13.0487 11.0015 13.0847 10.8515 13.0847ZM11.8145 9.80873H13.4615C13.9415 9.80873 14.3045 9.69473 14.5505 9.46673C14.8025 9.23873 14.9285 8.90873 14.9285 8.47673C14.9285 8.11673 14.8205 7.85273 14.6045 7.68473C14.3945 7.51073 14.0765 7.42373 13.6505 7.42373H12.1925L11.8145 9.80873Z" fill="white"/>
</svg>
