<svg width="19" height="19" viewBox="0 0 19 19" fill="none" xmlns="http://www.w3.org/2000/svg">
<path fill-rule="evenodd" clip-rule="evenodd" d="M8.39268 0.480958C7.93468 0.956976 7.89846 1.36881 8.23494 2.27209C8.31662 2.491 8.15381 2.64816 7.62066 2.86594C6.93193 3.14696 6.88974 3.14395 6.78579 2.80345C6.68582 2.47613 6.47973 2.44488 4.4248 2.44488H2.17319V4.79768C2.17319 7.0654 2.18695 7.15047 2.55495 7.15047C2.88056 7.15047 2.91878 7.2267 2.81392 7.66809C2.63988 8.3999 2.48178 8.50907 1.91838 8.28659C0.941535 7.90054 0 8.54822 0 9.60641C0 10.5712 1.351 11.2709 2.17228 10.7312C2.37928 10.5953 2.51601 10.6955 2.75325 11.1578C3.16706 11.9637 3.15855 12.0097 2.58066 12.0789L2.08264 12.1384V14.3971V16.6558H4.43693C6.71806 16.6558 6.79303 16.643 6.84736 16.2454C6.90296 15.84 6.9131 15.8389 7.71157 16.1464C8.31318 16.3781 8.48866 16.531 8.39938 16.745C8.06797 17.5382 8.11868 18.0526 8.57505 18.5269C9.12468 19.0982 9.92315 19.1586 10.5005 18.6728C10.9181 18.3212 11.0163 17.7386 10.7944 16.9264C10.6843 16.5234 10.7403 16.4077 11.1351 16.2206C11.8214 15.8957 12.1336 15.9452 12.1336 16.3791C12.1336 16.7457 12.2264 16.7591 14.4427 16.7085L16.7517 16.6558L16.8026 14.35L16.8535 12.0443H16.3951C15.8607 12.0443 15.8589 12.0375 16.1888 11.2169C16.4349 10.6048 16.4621 10.592 17.3397 10.6797C18.1083 10.7563 18.295 10.7066 18.627 10.3362C19.0891 9.82061 19.1217 9.2742 18.7255 8.68619C18.3079 8.06656 17.6153 7.83674 16.9842 8.10834C16.3875 8.36527 16.3696 8.3551 16.2035 7.66771C16.1061 7.26416 16.1426 7.15047 16.3699 7.15047C16.622 7.15047 16.6611 6.83407 16.6611 4.79768V2.44488H14.3974C12.506 2.44488 12.1336 2.49137 12.1336 2.72722C12.1336 3.06903 11.8982 3.08146 11.1005 2.7818C10.6705 2.62012 10.5257 2.46954 10.6023 2.26419C10.9357 1.36937 10.8984 0.955658 10.4416 0.480958C9.82463 -0.160319 9.00969 -0.160319 8.39268 0.480958ZM9.08448 0.916131C8.95119 1.00403 8.8697 1.2779 8.90338 1.52503C8.9492 1.86177 9.07778 1.97432 9.41716 1.97432C9.75654 1.97432 9.88512 1.86177 9.93094 1.52503C10.0133 0.919707 9.56657 0.598598 9.08448 0.916131ZM8.05892 3.51418C7.46129 3.77374 6.94298 4.01561 6.9073 4.05156C6.87163 4.0877 6.83088 4.77848 6.81675 5.58671L6.79122 7.05636L5.65935 7.11245C4.75313 7.15725 4.52748 7.11245 4.52748 6.8879C4.52748 6.69252 4.76092 6.58994 5.29715 6.54947L6.06682 6.49169V4.89179V3.29189H4.43693H2.80704L2.75361 4.7798C2.72083 5.69532 2.7777 6.34695 2.90157 6.47381C3.22266 6.80226 3.62198 6.06555 3.62198 5.14476C3.62198 4.12798 4.11258 3.74814 4.81126 4.22397C5.36887 4.60362 5.37412 5.13817 4.82466 5.58201C4.39673 5.9274 3.07869 8.95911 3.07869 9.59757C3.07869 9.78391 3.28025 10.3896 3.52654 10.9434L3.97458 11.9502L5.38281 12.0443L6.79122 12.1384L6.84591 13.2363C6.89445 14.2089 6.86348 14.3271 6.57426 14.27C6.34228 14.2243 6.23162 14.0022 6.19178 13.5015C6.16081 13.1141 6.07932 12.7876 6.01068 12.7759C5.48658 12.6863 3.03595 12.7083 2.88708 12.804C2.77643 12.8751 2.72192 13.5314 2.75361 14.4135L2.80704 15.9029L4.32954 15.958C6.08584 16.0216 6.57082 15.7809 5.56572 15.3444C5.20497 15.1878 4.78935 15.1076 4.64212 15.1663C4.20277 15.3416 3.60279 14.5787 3.78153 14.0722C4.00392 13.4424 4.92517 13.3852 5.29896 13.9781C5.49093 14.2825 6.21877 14.6807 7.57484 15.2232L9.56838 16.0205L10.8058 15.4863L12.0431 14.9523L12.096 13.4983L12.1489 12.0443H13.3128C14.2728 12.0443 14.4582 12.0938 14.3724 12.3266C14.315 12.4819 14.175 12.6172 14.0611 12.6276C13.9472 12.6378 13.6504 12.6588 13.4013 12.6746C12.9591 12.7023 12.9473 12.7417 12.8961 14.3576L12.8437 16.0119L14.4354 15.9575L16.0273 15.9029L16.0798 14.35C16.1233 13.0686 16.0849 12.7972 15.8599 12.7972C15.4862 12.7972 15.2123 13.3908 15.2123 14.2006C15.2123 14.7378 15.12 14.9194 14.7603 15.0897C14.3869 15.2667 14.2453 15.2445 13.9454 14.9625C13.4486 14.4951 13.4899 14.0948 14.0919 13.545C14.4121 13.2523 14.8599 12.3997 15.2982 11.2477L15.9954 9.41574L15.5501 8.33026L15.1049 7.24458L13.6194 7.19L12.1336 7.13523V5.8186C12.1336 4.57332 12.1527 4.51271 12.4855 4.69773C12.7316 4.83476 12.8541 5.13347 12.893 5.69268L12.9486 6.49169H14.4879H16.0273V4.89179V3.29189L14.4427 3.23749C12.7237 3.17858 12.4111 3.37584 13.6277 3.75191C15.1786 4.2315 15.2399 4.27837 15.1785 4.94016C15.1265 5.5005 15.07 5.55057 14.4903 5.55057C13.9861 5.55057 13.8126 5.45025 13.6292 5.05216C13.4475 4.65839 12.9966 4.39149 11.4826 3.78165C10.4282 3.35701 9.47131 3.01689 9.35559 3.02593C9.24004 3.03496 8.65654 3.25462 8.05892 3.51418ZM4.07111 4.70959C4.00084 4.82779 4.02855 5.01319 4.13268 5.12142C4.37608 5.37439 4.94347 5.1538 4.8444 4.84455C4.74371 4.53002 4.2312 4.44043 4.07111 4.70959ZM14.0316 4.70959C13.9613 4.82779 13.989 5.01319 14.0931 5.12142C14.3365 5.37439 14.9039 5.1538 14.8049 4.84455C14.7042 4.53002 14.1917 4.44043 14.0316 4.70959ZM8.14946 6.77402V8.27981H6.61012H5.07078V9.50327V10.7267H6.61012H8.14946V12.3266V13.9265H9.41716H10.6849V12.3266V10.7267H12.2242H13.7635V9.50327V8.27981H12.2242H10.6849V6.77402V5.26824H9.41716H8.14946V6.77402ZM17.0938 9.11364C16.9134 9.60208 17.166 10.0056 17.6112 9.93995C17.9103 9.89571 18.0194 9.75417 18.0194 9.40915C18.0194 9.06414 17.9103 8.9226 17.6112 8.87836C17.3661 8.84223 17.1591 8.93634 17.0938 9.11364ZM0.834867 9.32878C0.677673 9.75455 1.05744 10.1933 1.52341 10.124C1.79161 10.0843 1.90154 9.9311 1.90154 9.59738C1.90154 9.22959 1.79777 9.1144 1.4267 9.0696C1.11285 9.03177 0.912197 9.11967 0.834867 9.32878ZM4.28608 14.0521C4.0367 14.3111 4.1785 14.6794 4.52748 14.6794C4.76889 14.6794 4.88968 14.5539 4.88968 14.303C4.88968 13.9403 4.53527 13.7929 4.28608 14.0521ZM14.0705 14.1812C13.9439 14.5238 14.0881 14.6794 14.5314 14.6794C14.7619 14.6794 14.8565 14.5706 14.8161 14.3521C14.7397 13.9397 14.2049 13.817 14.0705 14.1812ZM9.06166 17.3016C8.9204 17.5758 8.94431 17.7373 9.15873 17.9603C9.49992 18.315 9.63792 18.3274 9.92424 18.0298C10.231 17.7109 10.1941 17.1875 9.85506 17.0524C9.39959 16.8707 9.26105 16.9142 9.06166 17.3016Z" fill="#DFCBFB"/>
</svg>
