<svg width="116" height="112" viewBox="0 0 116 112" fill="none" xmlns="http://www.w3.org/2000/svg">
<path fill-rule="evenodd" clip-rule="evenodd" d="M51.239 2.93342C48.4833 5.71516 48.2654 8.12182 50.2899 13.4004C50.7814 14.6796 49.8018 15.5981 46.5939 16.8707C42.45 18.5129 42.1961 18.4953 41.5707 16.5055C40.9692 14.5927 39.7292 14.4102 27.3652 14.4102H13.8178V28.1594C13.8178 41.4114 13.9006 41.9086 16.1147 41.9086C18.0739 41.9086 18.3038 42.3541 17.6729 44.9334C16.6258 49.21 15.6745 49.8479 12.2847 48.5478C6.40718 46.2918 0.742188 50.0767 0.742188 56.2606C0.742188 61.8988 8.87084 65.9873 13.8123 62.8338C15.0578 62.0396 15.8804 62.6248 17.3079 65.3262C19.7977 70.0362 19.7465 70.3045 16.2694 70.7093L13.273 71.0569V84.2561V97.4554H27.4382C41.1632 97.4554 41.6143 97.3806 41.9412 95.0575C42.2757 92.6883 42.3367 92.6817 47.1409 94.479C50.7607 95.833 51.8165 96.7261 51.2793 97.9768C49.2853 102.612 49.5904 105.618 52.3363 108.39C55.6433 111.728 60.4475 112.081 63.9212 109.242C66.4339 107.188 67.0245 103.783 65.6897 99.0371C65.0272 96.6821 65.3639 96.0057 67.7393 94.9123C71.869 93.0138 73.7475 93.3031 73.7475 95.8385C73.7475 97.9812 74.3054 98.0592 87.6403 97.7634L101.533 97.4554L101.839 83.9812L102.146 70.5069H99.3876C96.1721 70.5069 96.1613 70.4673 98.1466 65.6716C99.6274 62.0946 99.7908 62.0198 105.071 62.5324C109.696 62.9801 110.819 62.6897 112.816 60.525C115.597 57.5123 115.793 54.3192 113.409 50.883C110.896 47.262 106.73 45.9189 102.932 47.5062C99.3419 49.0076 99.234 48.9482 98.2348 44.9312C97.6486 42.5729 97.8687 41.9086 99.2362 41.9086C100.753 41.9086 100.988 40.0596 100.988 28.1594V14.4102H87.3679C75.9878 14.4102 73.7475 14.6818 73.7475 16.0601C73.7475 18.0575 72.331 18.1301 67.5312 16.379C64.9444 15.4342 64.0727 14.5542 64.5336 13.3542C66.5396 8.12512 66.3151 5.70746 63.5671 2.93342C59.8547 -0.814068 54.9514 -0.814068 51.239 2.93342ZM55.4014 5.47647C54.5994 5.99014 54.1091 7.59055 54.3118 9.03477C54.5874 11.0026 55.3611 11.6603 57.403 11.6603C59.445 11.6603 60.2187 11.0026 60.4943 9.03477C60.9901 5.49737 58.302 3.62088 55.4014 5.47647ZM49.2308 20.6589C45.635 22.1757 42.5165 23.5891 42.3018 23.7992C42.0872 24.0104 41.842 28.0472 41.757 32.7703L41.6034 41.3586L34.7932 41.6864C29.3407 41.9482 27.983 41.6864 27.983 40.3742C27.983 39.2324 29.3875 38.633 32.6139 38.3965L37.2449 38.0588V28.7093V19.3599H27.4382H17.6315L17.31 28.0549C17.1128 33.405 17.455 37.2129 18.2003 37.9543C20.1322 39.8737 22.5348 35.5685 22.5348 30.1877C22.5348 24.2458 25.4866 22.0261 29.6904 24.8068C33.0454 27.0253 33.077 30.1492 29.7711 32.7428C27.1963 34.7612 19.2659 52.4779 19.2659 56.2089C19.2659 57.2978 20.4787 60.8374 21.9606 64.0734L24.6563 69.957L33.1293 70.5069L41.6034 71.0569L41.9324 77.4728C42.2245 83.1562 42.0381 83.847 40.298 83.5137C38.9022 83.2464 38.2364 81.9485 37.9967 79.0226C37.8104 76.759 37.32 74.8506 36.9071 74.7824C33.7537 74.2588 19.0088 74.3875 18.1131 74.9463C17.4473 75.3621 17.1194 79.1975 17.31 84.3518L17.6315 93.0556L26.792 93.3779C37.3593 93.7497 40.2773 92.3429 34.2298 89.7921C32.0593 88.877 29.5586 88.4084 28.6727 88.7516C26.0293 89.7756 22.4193 85.3176 23.4948 82.3577C24.8329 78.6773 30.3758 78.3429 32.6248 81.8077C33.7798 83.5863 38.1591 85.9137 46.3182 89.0838L58.3129 93.7431L65.7583 90.6215L73.2027 87.501L73.5209 79.0039L73.8391 70.5069H80.8421C86.6183 70.5069 87.734 70.7962 87.2176 72.1568C86.8721 73.0643 86.0299 73.8551 85.3445 73.9156C84.6591 73.975 82.8732 74.0982 81.3749 74.1906C78.7141 74.3523 78.6432 74.5822 78.3349 84.0252L78.02 93.6925L87.5967 93.3746L97.1746 93.0556L97.4906 83.9812C97.7521 76.4928 97.5211 74.9067 96.1678 74.9067C93.9188 74.9067 92.2713 78.3759 92.2713 83.1078C92.2713 86.247 91.7156 87.3085 89.5515 88.3039C87.3047 89.3379 86.4526 89.2081 84.6482 87.5604C81.6593 84.8292 81.9078 82.4896 85.5297 79.2767C87.4562 77.5663 90.1508 72.5836 92.7878 65.852L96.9828 55.1463L94.3034 48.803L91.6251 42.4585L82.6869 42.1396L73.7475 41.8195V34.1254C73.7475 26.8482 73.8619 26.4941 75.8647 27.5753C77.3455 28.3761 78.0821 30.1217 78.3164 33.3896L78.6509 38.0588H87.9127H97.1746V28.7093V19.3599L87.6403 19.042C77.2975 18.6977 75.4168 19.8504 82.737 22.0481C92.0686 24.8508 92.4369 25.1246 92.0675 28.992C91.7548 32.2665 91.4148 32.5591 87.9269 32.5591C84.8934 32.5591 83.8495 31.9728 82.7457 29.6465C81.6528 27.3454 78.9396 25.7857 69.8303 22.2219C63.4865 19.7404 57.7288 17.7529 57.0326 17.8057C56.3374 17.8585 52.8266 19.1421 49.2308 20.6589ZM25.2371 27.6446C24.8143 28.3354 24.981 29.4188 25.6076 30.0513C27.0721 31.5296 30.4859 30.2404 29.8898 28.4333C29.284 26.5953 26.2003 26.0717 25.2371 27.6446ZM85.1669 27.6446C84.7441 28.3354 84.9108 29.4188 85.5373 30.0513C87.0018 31.5296 90.4156 30.2404 89.8196 28.4333C89.2138 26.5953 86.1301 26.0717 85.1669 27.6446ZM49.7756 39.7087V48.5082H40.5138H31.2519V55.6578V62.8074H40.5138H49.7756V72.1568V81.5063H57.403H65.0305V72.1568V62.8074H74.2923H83.5542V55.6578V48.5082H74.2923H65.0305V39.7087V30.9092H57.403H49.7756V39.7087ZM103.591 53.3809C102.506 56.2353 104.026 58.5935 106.705 58.2096C108.505 57.9512 109.161 57.124 109.161 55.1078C109.161 53.0916 108.505 52.2645 106.705 52.006C105.23 51.7948 103.985 52.3448 103.591 53.3809ZM5.76539 54.6381C4.81959 57.1262 7.10455 59.6902 9.90817 59.2854C11.5219 59.0533 12.1833 58.1579 12.1833 56.2078C12.1833 54.0585 11.559 53.3853 9.32631 53.1235C7.43798 52.9024 6.23066 53.4161 5.76539 54.6381ZM26.5305 82.24C25.0301 83.7535 25.8833 85.9061 27.983 85.9061C29.4355 85.9061 30.1622 85.1724 30.1622 83.7062C30.1622 81.5866 28.0298 80.7253 26.5305 82.24ZM85.4011 82.9945C84.6395 84.9964 85.5068 85.9061 88.1742 85.9061C89.5613 85.9061 90.1301 85.2703 89.8872 83.9933C89.4273 81.5833 86.2096 80.8661 85.4011 82.9945ZM55.2641 101.229C54.4142 102.832 54.558 103.776 55.8481 105.079C57.901 107.151 58.7313 107.224 60.454 105.485C62.2999 103.622 62.0776 100.563 60.0378 99.773C57.2974 98.7115 56.4638 98.9656 55.2641 101.229Z" fill="url(#paint0_linear_889_10367)"/>
<defs>
<linearGradient id="paint0_linear_889_10367" x1="23.6523" y1="20.8434" x2="102.534" y2="93.2288" gradientUnits="userSpaceOnUse">
<stop stop-color="#714EE4"/>
<stop offset="1" stop-color="#A81DA6"/>
</linearGradient>
</defs>
</svg>
