<svg width="20" height="20" viewBox="0 0 20 20" fill="none" xmlns="http://www.w3.org/2000/svg">
<path d="M13.5417 18.75C14.3472 18.75 15.0001 18.097 15.0001 17.2916C15.0001 16.4862 14.3472 15.8333 13.5417 15.8333C12.7363 15.8333 12.0834 16.4862 12.0834 17.2916C12.0834 18.097 12.7363 18.75 13.5417 18.75Z" fill="url(#paint0_linear_1520_11422)"/>
<path d="M6.87508 18.75C7.6805 18.75 8.33341 18.097 8.33341 17.2916C8.33341 16.4862 7.6805 15.8333 6.87508 15.8333C6.06967 15.8333 5.41675 16.4862 5.41675 17.2916C5.41675 18.097 6.06967 18.75 6.87508 18.75Z" fill="url(#paint1_linear_1520_11422)"/>
<path d="M4.03342 3.28329L3.86675 5.32496C3.83341 5.71663 4.14175 6.04163 4.53341 6.04163H17.2917C17.6417 6.04163 17.9334 5.77496 17.9584 5.42496C18.0667 3.94996 16.9417 2.74996 15.4667 2.74996H5.22508C5.14175 2.38329 4.97508 2.03329 4.71675 1.74163C4.30008 1.29996 3.71675 1.04163 3.11675 1.04163H1.66675C1.32508 1.04163 1.04175 1.32496 1.04175 1.66663C1.04175 2.00829 1.32508 2.29163 1.66675 2.29163H3.11675C3.37508 2.29163 3.61675 2.39996 3.79175 2.58329C3.96675 2.77496 4.05008 3.02496 4.03342 3.28329Z" fill="url(#paint2_linear_1520_11422)"/>
<path d="M17.0917 7.29163H4.30841C3.95841 7.29163 3.67508 7.55829 3.64175 7.89996L3.34175 11.525C3.22508 12.95 4.34175 14.1666 5.76675 14.1666H15.0334C16.2834 14.1666 17.3834 13.1416 17.4751 11.8916L17.7501 7.99996C17.7834 7.61663 17.4834 7.29163 17.0917 7.29163Z" fill="url(#paint3_linear_1520_11422)"/>
<defs>
<linearGradient id="paint0_linear_1520_11422" x1="9.50369" y1="3.49988" x2="9.50369" y2="18.75" gradientUnits="userSpaceOnUse">
<stop stop-color="white"/>
<stop offset="1" stop-color="#D56D13"/>
</linearGradient>
<linearGradient id="paint1_linear_1520_11422" x1="9.50369" y1="3.49988" x2="9.50369" y2="18.75" gradientUnits="userSpaceOnUse">
<stop stop-color="white"/>
<stop offset="1" stop-color="#D56D13"/>
</linearGradient>
<linearGradient id="paint2_linear_1520_11422" x1="9.50369" y1="3.49988" x2="9.50369" y2="18.75" gradientUnits="userSpaceOnUse">
<stop stop-color="white"/>
<stop offset="1" stop-color="#D56D13"/>
</linearGradient>
<linearGradient id="paint3_linear_1520_11422" x1="9.50369" y1="3.49988" x2="9.50369" y2="18.75" gradientUnits="userSpaceOnUse">
<stop stop-color="white"/>
<stop offset="1" stop-color="#D56D13"/>
</linearGradient>
</defs>
</svg>
