<svg width="13" height="13" viewBox="0 0 13 13" fill="none" xmlns="http://www.w3.org/2000/svg">
<path d="M11.8943 0.552734H1.74928C1.53938 0.552734 1.32949 0.6227 1.18955 0.832598L0.140065 2.23192C-0.209764 2.72168 0.140065 3.35137 0.699793 3.35137H10.8449C11.0547 3.35137 11.2646 3.2814 11.4046 3.07151L12.4541 1.67219C12.8039 1.18243 12.4541 0.552734 11.8943 0.552734Z" fill="white"/>
<path d="M0.699793 5.09961H10.8449C11.0547 5.09961 11.2646 5.16958 11.4046 5.37947L12.4541 6.77879C12.8039 7.26855 12.4541 7.89825 11.8943 7.89825H1.74928C1.53938 7.89825 1.32949 7.82828 1.18955 7.61838L0.140065 6.21906C-0.209764 5.7293 0.140065 5.09961 0.699793 5.09961Z" fill="white"/>
<path d="M11.8943 9.64844H1.74928C1.53938 9.64844 1.32949 9.7184 1.18955 9.9283L0.140065 11.3276C-0.209764 11.8174 0.140065 12.4471 0.699793 12.4471H10.8449C11.0547 12.4471 11.2646 12.3771 11.4046 12.1672L12.4541 10.7679C12.8039 10.2781 12.4541 9.64844 11.8943 9.64844Z" fill="white"/>
</svg>
