<svg width="22" height="20" viewBox="0 0 22 20" fill="none" xmlns="http://www.w3.org/2000/svg">
<mask id="mask0_1282_12332" style="mask-type:luminance" maskUnits="userSpaceOnUse" x="0" y="0" width="22" height="20">
<path d="M21.0763 10C21.0763 4.47715 16.565 0 11.0001 0C5.43512 0 0.923828 4.47715 0.923828 10C0.923828 15.5228 5.43512 20 11.0001 20C16.565 20 21.0763 15.5228 21.0763 10Z" fill="white"/>
</mask>
<g mask="url(#mask0_1282_12332)">
<path d="M11.3362 4.96606H20.2708V14.7522H11.3362C8.61319 14.7522 6.40576 12.5615 6.40576 9.85914C6.40576 7.15678 8.61319 4.96606 11.3362 4.96606Z" stroke="#080808" stroke-width="1.5"/>
<path d="M0.913086 9.91602L21.1037 10.1255" stroke="#080808" stroke-width="1.5"/>
</g>
<path d="M20.2703 10C20.2703 4.91903 16.1199 0.800049 11.0001 0.800049C5.88037 0.800049 1.72998 4.91903 1.72998 10C1.72998 15.0811 5.88037 19.2 11.0001 19.2C16.1199 19.2 20.2703 15.0811 20.2703 10Z" stroke="#080808" stroke-width="1.5"/>
</svg>
