<svg width="21" height="21" viewBox="0 0 21 21" fill="none" xmlns="http://www.w3.org/2000/svg">
<mask id="mask0_2_753" style="mask-type:luminance" maskUnits="userSpaceOnUse" x="0" y="0" width="21" height="21">
<path d="M20.5763 10.6777C20.5763 5.15489 16.065 0.677734 10.5001 0.677734C4.93512 0.677734 0.423828 5.15489 0.423828 10.6777C0.423828 16.2006 4.93512 20.6777 10.5001 20.6777C16.065 20.6777 20.5763 16.2006 20.5763 10.6777Z" fill="white"/>
</mask>
<g mask="url(#mask0_2_753)">
<path d="M10.8362 5.6438H19.7708V15.43H10.8362C8.11319 15.43 5.90576 13.2392 5.90576 10.5369C5.90576 7.83452 8.11319 5.6438 10.8362 5.6438Z" stroke="white" stroke-width="1.5"/>
<path d="M0.413086 10.5938L20.6037 10.8032" stroke="white" stroke-width="1.5"/>
</g>
<path d="M19.7703 10.6778C19.7703 5.59676 15.6199 1.47778 10.5001 1.47778C5.38037 1.47778 1.22998 5.59676 1.22998 10.6778C1.22998 15.7588 5.38037 19.8778 10.5001 19.8778C15.6199 19.8778 19.7703 15.7588 19.7703 10.6778Z" stroke="white" stroke-width="1.5"/>
</svg>
