<svg width="70" height="66" viewBox="0 0 70 66" fill="none" xmlns="http://www.w3.org/2000/svg">
<path d="M42.0801 46.229C42.0801 46.229 42.6643 47.8914 42.4778 49.401L43.3165 49.5456C44.5126 48.1182 43.5499 46.3495 43.5499 46.3495C43.2399 46.9438 42.0801 46.2285 42.0801 46.2285V46.229Z" fill="#FFCBA2"/>
<path d="M44.0137 35.7412C44.0137 35.7412 44.6558 39.8048 44.2707 43.3125L45.3917 43.8629C47.1317 40.7968 45.988 36.3924 45.988 36.3924C45.5167 37.7161 44.0137 35.7412 44.0137 35.7412Z" fill="#FFCBA2"/>
<path d="M48.0176 46.6189C48.0176 46.6189 48.7217 46.638 49.259 46.9238L49.4329 46.631C49.0705 45.9802 48.2726 46.0871 48.2726 46.0871C48.4505 46.2877 48.0176 46.6189 48.0176 46.6189Z" fill="#FFCBA2"/>
<path d="M47.8892 33.7899C47.8892 33.7899 48.6961 34.309 49.1195 35.0197L49.5283 34.8015C49.5646 33.7888 48.5606 33.3508 48.5606 33.3508C48.6261 33.7097 47.8887 33.7899 47.8887 33.7899H47.8892Z" fill="#FFCBA2"/>
<path d="M41.0847 45.4655C41.0847 45.4655 42.0076 43.9055 40.6492 42.1489L39.4863 42.5935C40.5448 44.0678 39.5468 45.3486 39.5468 45.3486C40.0604 44.8728 41.0847 45.466 41.0847 45.466V45.4655Z" fill="#FF9450"/>
<path d="M13.373 30.5502C13.373 30.5502 14.7561 31.4403 15.4825 32.6581L16.1836 32.2841C16.2456 30.5481 14.5248 29.7971 14.5248 29.7971C14.6372 30.4126 13.373 30.5497 13.373 30.5497V30.5502Z" fill="#9EDEFF"/>
<path d="M62.983 38.6482C62.983 38.6482 57.9597 40.6266 52.7832 45.6105L54.3931 46.0798C58.7546 41.9925 62.9301 40.6422 62.9301 40.6422C61.3474 40.9809 62.983 38.6482 62.983 38.6482Z" fill="#FF9450"/>
<path d="M24.1061 28.0357C24.0966 28.0034 24.0971 27.9677 24.1107 27.9334C24.1424 27.8527 24.2337 27.8129 24.3143 27.8447L27.3265 29.0307C27.4071 29.0624 27.4469 29.1537 27.4152 29.2343C27.3834 29.315 27.2922 29.3548 27.2116 29.323L24.1994 28.137C24.1525 28.1184 24.1197 28.0806 24.1061 28.0357Z" fill="#AE4747"/>
<path d="M23.7018 22.9329C23.6856 22.8784 23.6998 22.8164 23.7436 22.7746C23.8061 22.7146 23.9054 22.7166 23.9654 22.7796L28.7951 27.8276C28.8556 27.8901 28.8531 27.9894 28.7901 28.0494C28.7276 28.1094 28.6278 28.1074 28.5683 28.0444L23.7386 22.9964C23.7209 22.9777 23.7083 22.956 23.7018 22.9329Z" fill="#AE4747"/>
<path d="M34.5358 27.3265C34.5267 27.2953 34.5267 27.261 34.5388 27.2282L35.6472 24.1868C35.6769 24.1052 35.7671 24.0633 35.8483 24.0931C35.93 24.1228 35.9718 24.213 35.942 24.2942L34.8337 27.3356C34.8039 27.4172 34.7137 27.4591 34.6325 27.4293C34.5842 27.4117 34.5494 27.3724 34.5358 27.3265Z" fill="#AE4747"/>
<path d="M32.3015 26.7091C32.2945 26.6859 32.293 26.6607 32.2975 26.6355L33.5803 19.7679C33.5964 19.6827 33.6781 19.6263 33.7633 19.6424C33.8484 19.658 33.9049 19.7402 33.8888 19.8254L32.606 26.693C32.5898 26.7781 32.5082 26.8346 32.423 26.8185C32.363 26.8074 32.3177 26.7635 32.3015 26.7086V26.7091Z" fill="#AE4747"/>
<path d="M30.3383 26.7817L28.7858 21.5659C28.7611 21.4827 28.8085 21.3955 28.8917 21.3703C28.9749 21.3456 29.0621 21.393 29.0868 21.4762L30.6392 26.692C30.6639 26.7752 30.6165 26.8624 30.5334 26.8876C30.4502 26.9123 30.363 26.8649 30.3383 26.7817Z" fill="#AE4747"/>
<path d="M38.5923 38.6565L38.3015 39.5139L38.8428 40.2397L37.9375 40.2281L37.4148 40.9671L37.1457 40.1031L36.2812 39.834L37.0207 39.3108L37.0091 38.406L37.7344 38.9479L38.5923 38.6565Z" fill="#FFC55E"/>
<path d="M34.112 32.0355L33.4885 32.1166L33.2017 32.6766L32.932 32.1086L32.3105 32.0093L32.7672 31.5768L32.6699 30.9558L33.2224 31.2562L33.7834 30.9714L33.6679 31.5899L34.112 32.0355Z" fill="#FFC55E"/>
<path d="M53.72 28.8045L53.2946 30.0595L54.0875 31.1215L52.7618 31.1044L51.9967 32.1871L51.603 30.9214L50.3379 30.5278L51.4196 29.7626L51.4029 28.437L52.465 29.2299L53.72 28.8045Z" fill="#FFC55E"/>
<path d="M46.3261 22.815L44.1264 24.493L44.262 27.2571L41.9868 25.684L39.3995 26.6659L40.1924 24.0161L38.459 21.8598L41.2247 21.7953L42.7393 19.4792L43.6562 22.0907L46.3261 22.815Z" fill="#FFC55E"/>
<path d="M69.4605 30.0124L68.8572 31.2614L69.5447 32.4661L68.1707 32.2791L67.2367 33.3048L66.9907 31.9399L65.7266 31.3693L66.9484 30.713L67.1001 29.3345L68.1021 30.2937L69.4605 30.0124Z" fill="#FFC55E"/>
<path d="M29.0462 33.2178L27.8103 35.2032L28.7453 37.3474L26.4751 36.7849L24.724 38.3374L24.5572 36.0042L22.541 34.8192L24.7079 33.9401L25.2114 31.6553L26.718 33.4446L29.0462 33.2178Z" fill="#FFC55E"/>
<path d="M65.0872 44.7294L64.2051 45.0848L63.9985 46.0137L63.3871 45.2844L62.4395 45.3741L62.9445 44.5676L62.566 43.6946L63.4889 43.926L64.2021 43.2954L64.2686 44.2455L65.0872 44.7294Z" fill="#FFC55E"/>
<path d="M56.1895 35.0401L55.6638 35.2523L55.5403 35.8063L55.1759 35.3713L54.6113 35.4247L54.9122 34.9439L54.6869 34.4237L55.2368 34.5613L55.6623 34.1858L55.7011 34.7518L56.1895 35.0401Z" fill="#FFC55E"/>
<path d="M20.523 28.2353L19.971 28.4576L19.842 29.0383L19.4599 28.5821L18.8672 28.6386L19.1827 28.134L18.9463 27.5881L19.524 27.7323L19.9695 27.3386L20.0109 27.9324L20.523 28.2353Z" fill="#FFC55E"/>
<path d="M56.1632 28.436C55.5584 28.436 55.0664 27.9441 55.0664 27.3392C55.0664 26.7344 55.5584 26.2424 56.1632 26.2424C56.7681 26.2424 57.26 26.7344 57.26 27.3392C57.26 27.9441 56.7681 28.436 56.1632 28.436ZM56.1632 26.7238C55.824 26.7238 55.5478 27 55.5478 27.3392C55.5478 27.6785 55.824 27.9547 56.1632 27.9547C56.5024 27.9547 56.7791 27.6785 56.7791 27.3392C56.7791 27 56.5029 26.7238 56.1632 26.7238Z" fill="#AE4747"/>
<path d="M18.8121 36.9764C18.1997 36.9764 17.7012 36.4785 17.7012 35.8655C17.7012 35.2526 18.1997 34.7551 18.8121 34.7551C19.4245 34.7551 19.923 35.2531 19.923 35.8655C19.923 36.4779 19.4245 36.9764 18.8121 36.9764ZM18.8121 35.2365C18.4648 35.2365 18.1825 35.5188 18.1825 35.866C18.1825 36.2133 18.4653 36.4956 18.8121 36.4956C19.1589 36.4956 19.4416 36.2133 19.4416 35.866C19.4416 35.5188 19.1589 35.2365 18.8121 35.2365Z" fill="#AE4747"/>
<path d="M40.6718 35.3202C39.7262 35.3202 38.957 34.551 38.957 33.6054C38.957 32.6598 39.7262 31.8901 40.6718 31.8901C41.6174 31.8901 42.3865 32.6598 42.3865 33.6054C42.3865 34.551 41.6174 35.3202 40.6718 35.3202ZM40.6718 32.3715C39.9918 32.3715 39.4379 32.9249 39.4379 33.6054C39.4379 34.2859 39.9913 34.8388 40.6718 34.8388C41.3522 34.8388 41.9052 34.2854 41.9052 33.6054C41.9052 32.9254 41.3517 32.3715 40.6718 32.3715Z" fill="#AE4747"/>
<path d="M32.3065 38.6459C31.87 38.6459 31.5156 38.2911 31.5156 37.8551C31.5156 37.4191 31.8705 37.0642 32.3065 37.0642C32.7425 37.0642 33.0973 37.4191 33.0973 37.8551C33.0973 38.2911 32.7425 38.6459 32.3065 38.6459ZM32.3065 37.5451C32.1356 37.5451 31.9965 37.6842 31.9965 37.8551C31.9965 38.0259 32.1356 38.165 32.3065 38.165C32.4773 38.165 32.616 38.0259 32.616 37.8551C32.616 37.6842 32.4768 37.5451 32.3065 37.5451Z" fill="#AE4747"/>
<path d="M67.7558 38.2748C67.1968 38.2748 66.7422 37.8197 66.7422 37.2607C66.7422 36.7017 67.1973 36.2471 67.7558 36.2471C68.3143 36.2471 68.77 36.7022 68.77 37.2607C68.77 37.8192 68.3148 38.2748 67.7558 38.2748ZM67.7558 36.7279C67.4625 36.7279 67.2235 36.9668 67.2235 37.2602C67.2235 37.5536 67.4625 37.793 67.7558 37.793C68.0492 37.793 68.2886 37.5541 68.2886 37.2602C68.2886 36.9663 68.0497 36.7279 67.7558 36.7279Z" fill="#AE4747"/>
<path d="M52.7794 40.6441C52.3898 40.6441 52.0723 40.327 52.0723 39.9374C52.0723 39.5478 52.3898 39.2302 52.7794 39.2302C53.1691 39.2302 53.4861 39.5473 53.4861 39.9374C53.4861 40.3275 53.1691 40.6441 52.7794 40.6441ZM52.7794 39.7116C52.6549 39.7116 52.5536 39.8129 52.5536 39.9374C52.5536 40.0619 52.6549 40.1627 52.7794 40.1627C52.9039 40.1627 53.0047 40.0614 53.0047 39.9374C53.0047 39.8134 52.9034 39.7116 52.7794 39.7116Z" fill="#AE4747"/>
<path d="M58.1643 18.4999C58.1898 18.4779 58.2226 18.4636 58.2594 18.4619C58.346 18.4577 58.4198 18.5245 58.424 18.6111L58.5813 21.8445C58.5855 21.9311 58.5187 22.0049 58.4321 22.0091C58.3456 22.0133 58.2717 21.9465 58.2675 21.86L58.1103 18.6265C58.108 18.5761 58.129 18.5307 58.1643 18.4999Z" fill="#C91414"/>
<path d="M62.6448 16.0403C62.6878 16.0032 62.7501 15.9906 62.8062 16.0134C62.8866 16.0457 62.9256 16.137 62.8928 16.2176L60.2769 22.6957C60.2448 22.7765 60.1532 22.8151 60.0727 22.7823C59.9923 22.75 59.9531 22.6582 59.9861 22.5781L62.602 16.1C62.6118 16.0762 62.6263 16.0558 62.6448 16.0403Z" fill="#C91414"/>
<path d="M63.0894 27.7167C63.1141 27.6955 63.1454 27.6814 63.1802 27.679L66.4084 27.439C66.495 27.4325 66.5703 27.4975 66.5765 27.5837C66.583 27.6704 66.5179 27.7456 66.4317 27.7519L63.2036 27.9919C63.1169 27.9984 63.0417 27.9334 63.0354 27.8472C63.0316 27.7958 63.0532 27.7479 63.0894 27.7167Z" fill="#C91414"/>
<path d="M62.7518 25.4296C62.77 25.4137 62.7923 25.4019 62.8172 25.3957L69.6049 23.7415C69.6892 23.7212 69.7742 23.7724 69.7945 23.8567C69.8153 23.9408 69.7636 24.026 69.6793 24.0464L62.8916 25.7005C62.8073 25.7208 62.7223 25.6696 62.702 25.5853C62.6874 25.5261 62.7088 25.4667 62.7522 25.4294L62.7518 25.4296Z" fill="#C91414"/>
<path d="M61.874 23.6797L65.9903 20.1201C66.056 20.0634 66.155 20.0707 66.2121 20.1362C66.2688 20.2018 66.2615 20.3008 66.1958 20.3575L62.0795 23.9171C62.0138 23.9738 61.9148 23.9664 61.8577 23.901C61.801 23.8353 61.8083 23.7364 61.874 23.6797Z" fill="#C91414"/>
<path d="M51.0679 18.759C51.2337 18.5271 51.3426 18.2479 51.3698 17.9404C51.4494 17.0513 50.8219 16.269 49.969 16.1924C49.4111 16.1425 48.8949 16.4066 48.5819 16.8431C48.3516 16.3577 47.8904 16.0059 47.3329 15.956C46.4795 15.8794 45.7235 16.5377 45.6438 17.4268C45.601 17.9026 45.7537 18.4379 46.043 18.761C46.4014 19.2454 47.724 20.7394 48.2502 20.7863C48.776 20.8331 50.5986 19.3109 50.8451 19.0423L50.8425 19.0715L50.8451 19.0418C50.9282 18.9576 51.0048 18.8633 51.0729 18.7605L51.0684 18.759H51.0679Z" fill="#EE3737"/>
<path d="M64.8842 18.8898C64.9396 18.7008 64.9472 18.4936 64.8953 18.2865C64.745 17.6877 64.1573 17.3197 63.5827 17.4639C63.2072 17.5581 62.93 17.848 62.8251 18.2048C62.5641 17.9402 62.183 17.8157 61.8075 17.91C61.2329 18.0541 60.8886 18.6565 61.0393 19.2553C61.12 19.5758 61.3412 19.8904 61.6033 20.0355C61.9476 20.2704 63.1513 20.9448 63.5056 20.8556C63.8599 20.7664 64.7032 19.3576 64.803 19.1257L64.8081 19.1454L64.803 19.1252C64.8383 19.0511 64.8665 18.9725 64.8877 18.8898H64.8842Z" fill="#EE3737"/>
<path d="M25.3152 22.1995C25.4281 21.8139 25.4432 21.3915 25.3373 20.9691C25.0309 19.7483 23.8323 18.9978 22.6609 19.2922C21.8947 19.4847 21.3302 20.076 21.116 20.8023C20.5842 20.263 19.807 20.0089 19.0408 20.201C17.8689 20.4953 17.1678 21.7227 17.4743 22.9435C17.6381 23.5967 18.0897 24.2384 18.6245 24.5342C19.3266 25.0131 21.7813 26.3881 22.5031 26.2066C23.2249 26.0252 24.9452 23.1521 25.1488 22.6799L25.1594 22.7202L25.1488 22.6793C25.2209 22.5286 25.2784 22.3678 25.3212 22.199H25.3147L25.3152 22.1995Z" fill="#EE3737"/>
<path d="M45.9308 10.7336C46.5251 10.2865 47.015 9.67511 47.3245 8.93064C48.2192 6.77837 47.2691 4.3383 45.2035 3.47991C43.8532 2.91841 42.3607 3.17244 41.2392 4.0152C41.0456 2.62606 40.1721 1.38863 38.8223 0.827633C36.7562 -0.0312579 34.3575 1.01665 33.4628 3.16891C32.984 4.32065 32.9452 5.7728 33.4124 6.80408C33.9255 8.29151 36.0511 13.0482 37.3243 13.5769C38.597 14.1062 44.329 11.7407 45.1536 11.2639L45.1249 11.3354L45.1551 11.2628C45.4288 11.1182 45.6924 10.9433 45.9424 10.7397L45.9323 10.7326L45.9308 10.7336Z" fill="#EE3737"/>
<path d="M22.9597 33.0183L48.8261 34.0742L28.3734 46.3317L7.46355 34.8716L22.9597 33.0183Z" fill="#A78EFE"/>
<g style="mix-blend-mode:multiply">
<path d="M26.9424 33.4749L45.5888 34.8458L30.6626 45.3107L15.7363 34.8458L26.9424 33.4749Z" fill="#F7D079"/>
</g>
<path d="M32.1511 65.5388L7.81055 62.1404V34.8257L32.1511 37.3345V65.5388Z" fill="url(#paint0_linear_950_16988)"/>
<path d="M48.9265 60.856L32.1484 65.5385V37.2491L48.9265 34.0618V60.856Z" fill="#FCC840"/>
<g style="mix-blend-mode:multiply">
<path d="M48.9265 60.856L32.1484 65.5385V37.2491L48.9265 34.0618V60.856Z" fill="url(#paint1_linear_950_16988)"/>
</g>
<path d="M21.6883 64.0781L15.3066 63.187V35.5981L21.6883 36.35V64.0781Z" fill="#A81DA6"/>
<path d="M39.2949 63.5592L43.9303 62.2986L43.8034 35.0369L39.2949 35.9526V63.5592Z" fill="#7C56FE"/>
<g style="mix-blend-mode:multiply">
<path d="M39.2949 63.5592L43.9303 62.2986L43.8034 35.0369L39.2949 35.9526V63.5592Z" fill="#F4A97F"/>
</g>
<path d="M36.737 24.1492C33.0597 27.0056 31.6273 29.8314 31.6273 29.8314C31.6273 29.8314 36.3213 29.77 38.3224 28.1942C40.3238 26.6181 41.1533 23.318 41.1533 23.318C41.1533 23.318 38.7445 22.5895 36.737 24.1492Z" fill="#7C56FE"/>
<path d="M32.8256 29.0247C34.0676 28.0665 38.3007 27.2021 39.5409 25.7709C40.7812 24.339 41.1317 23.3009 41.1317 23.3009C41.1317 23.3009 41.7208 25.4723 42.5773 26.7006C43.4338 27.9289 43.4933 29.9829 40.8623 30.9612C38.2312 31.9396 36.4352 31.1618 35.2476 31.899C34.0601 32.6362 32.8251 29.0251 32.8251 29.0251L32.8256 29.0247Z" fill="#7C56FE"/>
<g style="mix-blend-mode:multiply">
<path d="M32.8256 29.0247C34.0676 28.0665 38.3007 27.2021 39.5409 25.7709C40.7812 24.339 41.1317 23.3009 41.1317 23.3009C41.1317 23.3009 41.7208 25.4723 42.5773 26.7006C43.4338 27.9289 43.4933 29.9829 40.8623 30.9612C38.2312 31.9396 36.4352 31.1618 35.2476 31.899C34.0601 32.6362 32.8251 29.0251 32.8251 29.0251L32.8256 29.0247Z" fill="#7C56FE"/>
</g>
<path d="M18.8425 24.4618C21.6023 27.3665 22.5228 29.9583 22.5228 29.9583C22.5228 29.9583 18.0661 29.6957 16.5695 28.0944C15.0733 26.4927 15.1692 23.2696 15.1692 23.2696C15.1692 23.2696 17.335 22.8754 18.8422 24.4614L18.8425 24.4618Z" fill="#7C56FE"/>
<g style="mix-blend-mode:multiply">
<path d="M18.8425 24.4618C21.6023 27.3665 22.5228 29.9583 22.5228 29.9583C22.5228 29.9583 18.0661 29.6957 16.5695 28.0944C15.0733 26.4927 15.1692 23.2696 15.1692 23.2696C15.1692 23.2696 17.335 22.8754 18.8422 24.4614L18.8425 24.4618Z" fill="#7C56FE"/>
</g>
<path d="M22.2177 29.6523C20.9012 27.0505 17.7304 26.4412 16.4396 25.3064C15.3035 24.3084 15.164 23.2696 15.164 23.2696C15.164 23.2696 14.6029 24.8522 13.6671 25.7027C12.6041 26.6689 13.406 28.6116 14.3781 29.6835C16.149 31.6349 18.1423 30.473 19.0299 31.2856C19.9172 32.0977 22.2177 29.6523 22.2177 29.6523Z" fill="#7C56FE"/>
<path d="M30.2718 19.4813C27.8935 26.3311 27.7954 30.9561 27.7954 30.9561C27.7954 30.9561 33.5319 26.2811 34.8101 22.5295C36.0883 18.7778 34.5815 14.2221 34.5815 14.2221C34.5815 14.2221 31.5696 15.7421 30.2714 19.4816L30.2718 19.4813Z" fill="#7C56FE"/>
<path d="M27.9139 21.3563C29.2858 28.6687 28.2777 33.1107 28.2777 33.1107C28.2777 33.1107 23.2992 27.1134 22.5716 23.1139C21.8442 19.1147 23.9255 14.9938 23.9255 14.9938C23.9255 14.9938 27.1648 17.3639 27.9139 21.3563Z" fill="#7C56FE"/>
<g style="mix-blend-mode:multiply">
<path d="M27.9139 21.3563C29.2858 28.6687 28.2777 33.1107 28.2777 33.1107C28.2777 33.1107 23.2992 27.1134 22.5716 23.1139C21.8442 19.1147 23.9255 14.9938 23.9255 14.9938C23.9255 14.9938 27.1648 17.3639 27.9139 21.3563Z" fill="#7C56FE"/>
</g>
<path d="M27.7231 30.846C27.2544 28.3823 23.4921 22.2205 23.4512 19.3188C23.4099 16.4168 23.9692 15.0071 23.9692 15.0071C23.9692 15.0071 21.3829 16.2826 19.3582 16.3414C17.3334 16.4001 15.4204 18.2362 17.3613 22.4768C19.302 26.7169 21.9286 28.2665 22.538 30.4552C23.1475 32.6438 27.7235 30.8464 27.7235 30.8464L27.7231 30.846Z" fill="#7C56FE"/>
<path d="M28.0572 30.2265C28.6705 25.2052 32.5713 21.2701 33.7797 18.3895C34.8429 15.8553 34.5819 14.2224 34.5819 14.2224C34.5819 14.2224 35.9959 15.9636 37.5879 16.2883C39.3973 16.6568 39.1773 20.2317 38.3601 22.7145C36.8721 27.2359 33.7578 27.4819 32.9411 29.5088C32.1244 31.5358 28.0579 30.2266 28.0579 30.2266L28.0572 30.2265Z" fill="#7C56FE"/>
<g style="mix-blend-mode:multiply">
<path d="M28.0572 30.2265C28.6705 25.2052 32.5713 21.2701 33.7797 18.3895C34.8429 15.8553 34.5819 14.2224 34.5819 14.2224C34.5819 14.2224 35.9959 15.9636 37.5879 16.2883C39.3973 16.6568 39.1773 20.2317 38.3601 22.7145C36.8721 27.2359 33.7578 27.4819 32.9411 29.5088C32.1244 31.5358 28.0579 30.2266 28.0579 30.2266L28.0572 30.2265Z" fill="#7C56FE"/>
</g>
<g style="mix-blend-mode:multiply">
<path d="M32.03 29.7383L7.15986 31.9124L7.2505 38.3113L32.1633 39.162L49.3069 37.6838L49.2082 30.6901L32.03 29.7383Z" fill="#E3A20A"/>
</g>
<path d="M32.2411 37.7519L6.75123 38.2484L6.64805 30.9425L32.114 28.7507L32.2411 37.7519Z" fill="url(#paint2_linear_950_16988)"/>
<path d="M49.8055 36.9654L32.2408 37.7515L32.1137 28.7503L49.7026 29.6904L49.8055 36.9654Z" fill="#FCC840"/>
<g style="mix-blend-mode:multiply">
<path d="M49.8055 36.9654L32.2408 37.7515L32.1137 28.7503L49.7026 29.6904L49.8055 36.9654Z" fill="#F7D079"/>
</g>
<path d="M21.4487 37.8795L14.922 38.0013L14.8086 29.953L21.3328 29.6782L21.4487 37.8795Z" fill="#7C56FE"/>
<path d="M28.9858 26.305C28.9858 26.305 30.8804 25.2754 32.707 24.9945L32.7552 24.1895C30.877 23.5311 28.9133 24.9338 28.9133 24.9338C29.6672 25.0363 28.9858 26.305 28.9858 26.305Z" fill="#FBC900"/>
<g style="mix-blend-mode:multiply">
<path d="M43.6711 36.649L39.9395 36.8205L39.8383 29.6497L43.4579 29.6115L43.6711 36.649Z" fill="#7C56FE"/>
<path d="M43.6711 36.649L39.9395 36.8205L39.8383 29.6497L43.4579 29.6115L43.6711 36.649Z" stroke="#9678FE"/>
</g>
<defs>
<linearGradient id="paint0_linear_950_16988" x1="19.9808" y1="34.8257" x2="19.9808" y2="65.5388" gradientUnits="userSpaceOnUse">
<stop stop-color="#FCC840"/>
<stop offset="1" stop-color="#7C56FE"/>
</linearGradient>
<linearGradient id="paint1_linear_950_16988" x1="40.5375" y1="34.0618" x2="40.5375" y2="65.5385" gradientUnits="userSpaceOnUse">
<stop stop-color="#8B64E9"/>
<stop offset="1" stop-color="#918F99"/>
</linearGradient>
<linearGradient id="paint2_linear_950_16988" x1="13.6506" y1="25.7307" x2="6.0527" y2="40.1766" gradientUnits="userSpaceOnUse">
<stop stop-color="#FCC840"/>
<stop offset="1" stop-color="#7C56FE"/>
</linearGradient>
</defs>
</svg>
