<svg width="57" height="49" viewBox="0 0 57 49" fill="none" xmlns="http://www.w3.org/2000/svg">
<path d="M29.0605 45.4773C29.0605 45.4773 29.645 47.0977 29.4584 48.5693L30.2976 48.7103C31.4943 47.3188 30.5311 45.5947 30.5311 45.5947C30.2209 46.174 29.0605 45.4768 29.0605 45.4768V45.4773Z" fill="#FFCBA2"/>
<path d="M30.998 35.2544C30.998 35.2544 31.6405 39.2156 31.2552 42.6348L32.3768 43.1713C34.1176 40.1825 32.9734 35.8892 32.9734 35.8892C32.5018 37.1795 30.998 35.2544 30.998 35.2544Z" fill="#FFCBA2"/>
<path d="M35.002 45.8575C35.002 45.8575 35.7065 45.8762 36.244 46.1547L36.418 45.8693C36.0554 45.235 35.2571 45.3391 35.2571 45.3391C35.4351 45.5347 35.002 45.8575 35.002 45.8575Z" fill="#FFCBA2"/>
<path d="M34.8736 33.352C34.8736 33.352 35.6809 33.8581 36.1045 34.5509L36.5135 34.3381C36.5498 33.351 35.5453 32.9241 35.5453 32.9241C35.6108 33.2739 34.873 33.352 34.873 33.352H34.8736Z" fill="#FFCBA2"/>
<path d="M28.0679 44.7332C28.0679 44.7332 28.9912 43.2126 27.6322 41.5002L26.4688 41.9336C27.5278 43.3708 26.5293 44.6193 26.5293 44.6193C27.0431 44.1554 28.0679 44.7337 28.0679 44.7337V44.7332Z" fill="#FF9450"/>
<path d="M0.341797 30.1935C0.341797 30.1935 1.72558 31.0612 2.45227 32.2483L3.15374 31.8837C3.21577 30.1916 1.49411 29.4595 1.49411 29.4595C1.60657 30.0594 0.341797 30.193 0.341797 30.193V30.1935Z" fill="#9EDEFF"/>
<path d="M49.9783 38.0874C49.9783 38.0874 44.9525 40.0159 39.7734 44.8742L41.3842 45.3317C45.7478 41.3474 49.9254 40.0311 49.9254 40.0311C48.3419 40.3613 49.9783 38.0874 49.9783 38.0874Z" fill="#FF9450"/>
<path d="M11.0768 27.7428C11.0673 27.7113 11.0678 27.6764 11.0814 27.643C11.1132 27.5644 11.2044 27.5256 11.2851 27.5566L14.2988 28.7127C14.3795 28.7436 14.4193 28.8326 14.3875 28.9112C14.3558 28.9898 14.2645 29.0286 14.1838 28.9976L11.1701 27.8415C11.1232 27.8233 11.0905 27.7865 11.0768 27.7428Z" fill="#AE4747"/>
<path d="M10.6764 22.7686C10.6602 22.7155 10.6744 22.6551 10.7182 22.6143C10.7808 22.5558 10.8801 22.5578 10.9401 22.6192L15.7723 27.54C15.8328 27.6009 15.8303 27.6977 15.7672 27.7562C15.7047 27.8146 15.6049 27.8127 15.5454 27.7512L10.7132 22.8305C10.6956 22.8123 10.6829 22.7912 10.6764 22.7686Z" fill="#AE4747"/>
<path d="M21.5182 27.0516C21.5091 27.0212 21.5091 26.9878 21.5212 26.9558L22.6302 23.9911C22.6599 23.9115 22.7502 23.8707 22.8314 23.8997C22.9131 23.9287 22.9549 24.0167 22.9252 24.0958L21.8162 27.0605C21.7865 27.1401 21.6962 27.1809 21.615 27.1519C21.5666 27.1347 21.5318 27.0964 21.5182 27.0516Z" fill="#AE4747"/>
<path d="M19.2801 26.4491C19.273 26.4265 19.2715 26.4019 19.276 26.3774L20.5594 19.6829C20.5756 19.5999 20.6573 19.5448 20.7425 19.5605C20.8277 19.5758 20.8842 19.6559 20.8681 19.7389L19.5846 26.4334C19.5685 26.5164 19.4868 26.5714 19.4016 26.5557C19.3416 26.5449 19.2962 26.5022 19.2801 26.4486V26.4491Z" fill="#AE4747"/>
<path d="M17.3156 26.5206L15.7624 21.4363C15.7377 21.3552 15.7851 21.2702 15.8683 21.2456C15.9515 21.2216 16.0388 21.2677 16.0635 21.3488L17.6167 26.4332C17.6414 26.5142 17.594 26.5992 17.5108 26.6238C17.4276 26.6479 17.3403 26.6017 17.3156 26.5206Z" fill="#AE4747"/>
<path d="M25.5759 38.0958L25.2849 38.9315L25.8265 39.639L24.9208 39.6277L24.3978 40.348L24.1285 39.5059L23.2637 39.2435L24.0035 38.7335L23.9919 37.8516L24.7176 38.3798L25.5759 38.0958Z" fill="#FFC55E"/>
<path d="M21.0914 31.6413L20.4676 31.7204L20.1807 32.2663L19.9109 31.7126L19.2891 31.6158L19.746 31.1942L19.6486 30.5889L20.2013 30.8817L20.7626 30.6041L20.6471 31.207L21.0914 31.6413Z" fill="#FFC55E"/>
<path d="M40.708 28.4922L40.2824 29.7156L41.0757 30.7509L39.7494 30.7342L38.9838 31.7896L38.59 30.5558L37.3242 30.1721L38.4064 29.4262L38.3898 28.134L39.4523 28.9069L40.708 28.4922Z" fill="#FFC55E"/>
<path d="M33.3144 22.6535L31.1136 24.2892L31.2493 26.9837L28.9729 25.4502L26.3844 26.4073L27.1776 23.8244L25.4434 21.7224L28.2104 21.6596L29.7258 19.4019L30.6431 21.9475L33.3144 22.6535Z" fill="#FFC55E"/>
<path d="M56.4604 29.6692L55.8568 30.8867L56.5446 32.061L55.1699 31.8787L54.2355 32.8786L53.9894 31.548L52.7246 30.9918L53.947 30.3521L54.0988 29.0083L55.1013 29.9433L56.4604 29.6692Z" fill="#FFC55E"/>
<path d="M16.024 32.7939L14.7875 34.7293L15.723 36.8194L13.4516 36.2711L11.6997 37.7844L11.5328 35.51L9.51562 34.3549L11.6836 33.498L12.1874 31.2708L13.6947 33.015L16.024 32.7939Z" fill="#FFC55E"/>
<path d="M52.0807 44.0153L51.1982 44.3617L50.9914 45.2672L50.3797 44.5562L49.4316 44.6437L49.9369 43.8576L49.5582 43.0066L50.4816 43.2321L51.1952 42.6174L51.2617 43.5436L52.0807 44.0153Z" fill="#FFC55E"/>
<path d="M43.1766 34.5706L42.6506 34.7775L42.5271 35.3174L42.1625 34.8934L41.5977 34.9455L41.8987 34.4768L41.6733 33.9697L42.2235 34.1038L42.6491 33.7378L42.6879 34.2896L43.1766 34.5706Z" fill="#FFC55E"/>
<path d="M7.49645 27.9376L6.94425 28.1542L6.81515 28.7203L6.43289 28.2756L5.83984 28.3306L6.15553 27.8388L5.91902 27.3067L6.49694 27.4472L6.94274 27.0635L6.98409 27.6423L7.49645 27.9376Z" fill="#FFC55E"/>
<path d="M43.152 28.1332C42.5469 28.1332 42.0547 27.6536 42.0547 27.064C42.0547 26.4744 42.5469 25.9949 43.152 25.9949C43.7572 25.9949 44.2494 26.4744 44.2494 27.064C44.2494 27.6536 43.7572 28.1332 43.152 28.1332ZM43.152 26.4641C42.8126 26.4641 42.5363 26.7334 42.5363 27.064C42.5363 27.3947 42.8126 27.6639 43.152 27.6639C43.4914 27.6639 43.7683 27.3947 43.7683 27.064C43.7683 26.7334 43.4919 26.4641 43.152 26.4641Z" fill="#AE4747"/>
<path d="M5.78334 36.4583C5.17062 36.4583 4.67188 35.9728 4.67188 35.3754C4.67188 34.7779 5.17062 34.293 5.78334 34.293C6.39606 34.293 6.89481 34.7784 6.89481 35.3754C6.89481 35.9724 6.39606 36.4583 5.78334 36.4583ZM5.78334 34.7622C5.43588 34.7622 5.15348 35.0373 5.15348 35.3759C5.15348 35.7144 5.43638 35.9896 5.78334 35.9896C6.13029 35.9896 6.41321 35.7144 6.41321 35.3759C6.41321 35.0373 6.13029 34.7622 5.78334 34.7622Z" fill="#AE4747"/>
<path d="M27.657 34.8433C26.711 34.8433 25.9414 34.0935 25.9414 33.1718C25.9414 32.25 26.711 31.4998 27.657 31.4998C28.6031 31.4998 29.3726 32.25 29.3726 33.1718C29.3726 34.0935 28.6031 34.8433 27.657 34.8433ZM27.657 31.969C26.9767 31.969 26.4225 32.5085 26.4225 33.1718C26.4225 33.8351 26.9762 34.3741 27.657 34.3741C28.3378 34.3741 28.891 33.8346 28.891 33.1718C28.891 32.509 28.3373 31.969 27.657 31.969Z" fill="#AE4747"/>
<path d="M19.2815 38.085C18.8448 38.085 18.4902 37.7391 18.4902 37.3141C18.4902 36.8891 18.8453 36.5432 19.2815 36.5432C19.7177 36.5432 20.0727 36.8891 20.0727 37.3141C20.0727 37.7391 19.7177 38.085 19.2815 38.085ZM19.2815 37.0119C19.1105 37.0119 18.9713 37.1476 18.9713 37.3141C18.9713 37.4807 19.1105 37.6163 19.2815 37.6163C19.4524 37.6163 19.5911 37.4807 19.5911 37.3141C19.5911 37.1476 19.4519 37.0119 19.2815 37.0119Z" fill="#AE4747"/>
<path d="M54.7485 37.7235C54.1892 37.7235 53.7344 37.2798 53.7344 36.7349C53.7344 36.19 54.1898 35.7468 54.7485 35.7468C55.3073 35.7468 55.7632 36.1905 55.7632 36.7349C55.7632 37.2793 55.3078 37.7235 54.7485 37.7235ZM54.7485 36.2156C54.455 36.2156 54.216 36.4485 54.216 36.7344C54.216 37.0204 54.455 37.2538 54.7485 37.2538C55.042 37.2538 55.2815 37.0209 55.2815 36.7344C55.2815 36.448 55.0425 36.2156 54.7485 36.2156Z" fill="#AE4747"/>
<path d="M39.77 40.033C39.3802 40.033 39.0625 39.7239 39.0625 39.3441C39.0625 38.9643 39.3802 38.6548 39.77 38.6548C40.1598 38.6548 40.477 38.9638 40.477 39.3441C40.477 39.7244 40.1598 40.033 39.77 40.033ZM39.77 39.124C39.6455 39.124 39.5441 39.2228 39.5441 39.3441C39.5441 39.4655 39.6455 39.5638 39.77 39.5638C39.8946 39.5638 39.9954 39.465 39.9954 39.3441C39.9954 39.2233 39.8941 39.124 39.77 39.124Z" fill="#AE4747"/>
<path d="M45.1486 18.4476C45.1741 18.4261 45.2069 18.4122 45.2438 18.4106C45.3304 18.4065 45.4042 18.4716 45.4084 18.556L45.5658 21.7079C45.57 21.7923 45.5032 21.8643 45.4165 21.8684C45.3299 21.8725 45.2561 21.8073 45.2519 21.723L45.0945 18.571C45.0923 18.5219 45.1133 18.4777 45.1486 18.4476Z" fill="#C91414"/>
<path d="M49.6349 16.0498C49.6779 16.0136 49.7403 16.0013 49.7965 16.0235C49.8769 16.055 49.9159 16.1441 49.8831 16.2226L47.2659 22.5374C47.2337 22.6162 47.1421 22.6538 47.0615 22.6218C46.9811 22.5903 46.9419 22.5008 46.9749 22.4227L49.5921 16.1079C49.6019 16.0848 49.6165 16.0649 49.6349 16.0498Z" fill="#C91414"/>
<path d="M50.0801 27.4319C50.1049 27.4113 50.1361 27.3976 50.171 27.3952L53.4008 27.1612C53.4875 27.1549 53.5627 27.2183 53.569 27.3024C53.5754 27.3868 53.5104 27.4602 53.4241 27.4663L50.1944 27.7003C50.1077 27.7066 50.0324 27.6432 50.0261 27.5591C50.0223 27.5091 50.0439 27.4624 50.0801 27.4319Z" fill="#C91414"/>
<path d="M49.7388 25.2024C49.757 25.1868 49.7794 25.1754 49.8042 25.1693L56.5953 23.5569C56.6797 23.537 56.7647 23.587 56.7851 23.6691C56.8059 23.7511 56.7541 23.8342 56.6698 23.854L49.8787 25.4665C49.7944 25.4863 49.7093 25.4363 49.689 25.3542C49.6744 25.2964 49.6958 25.2385 49.7392 25.2022L49.7388 25.2024Z" fill="#C91414"/>
<path d="M48.864 23.4964L52.9824 20.0265C53.0481 19.9712 53.1471 19.9784 53.2043 20.0422C53.2611 20.1062 53.2537 20.2027 53.188 20.2579L49.0696 23.7278C49.0039 23.7831 48.9049 23.7759 48.8477 23.7121C48.791 23.6481 48.7983 23.5517 48.864 23.4964Z" fill="#C91414"/>
<path d="M38.0569 18.6997C38.2228 18.4736 38.3317 18.2014 38.359 17.9017C38.4386 17.035 37.8108 16.2725 36.9575 16.1978C36.3993 16.1491 35.8829 16.4066 35.5697 16.8321C35.3392 16.3589 34.8778 16.016 34.3201 15.9673C33.4663 15.8927 32.7098 16.5343 32.6302 17.4011C32.5873 17.8649 32.7401 18.3867 33.0296 18.7016C33.3881 19.1738 34.7114 20.6301 35.2379 20.6758C35.7639 20.7215 37.5874 19.2377 37.834 18.9758L37.8315 19.0043L37.834 18.9753C37.9172 18.8933 37.9938 18.8014 38.0619 18.7011L38.0574 18.6997H38.0569Z" fill="#EE3737"/>
<path d="M51.8763 18.8272C51.9318 18.643 51.9394 18.441 51.8874 18.2391C51.7371 17.6554 51.1491 17.2967 50.5742 17.4372C50.1985 17.5291 49.9212 17.8116 49.8163 18.1595C49.5551 17.9015 49.1738 17.7802 48.7981 17.8721C48.2232 18.0126 47.8788 18.5997 48.0296 19.1834C48.1103 19.4959 48.3316 19.8025 48.5939 19.944C48.9383 20.173 50.1426 20.8304 50.4971 20.7434C50.8516 20.6565 51.6953 19.2832 51.7951 19.0572L51.8002 19.0763L51.7951 19.0567C51.8304 18.9844 51.8587 18.9078 51.8799 18.8272H51.8763Z" fill="#EE3737"/>
<path d="M12.2898 22.0536C12.4028 21.6777 12.4179 21.2659 12.312 20.8542C12.0054 19.6642 10.8062 18.9326 9.63419 19.2195C8.86767 19.4072 8.30286 19.9835 8.08853 20.6916C7.5565 20.1658 6.77888 19.9182 6.01235 20.1054C4.83987 20.3923 4.13839 21.5887 4.445 22.7788C4.6089 23.4155 5.06075 24.041 5.5958 24.3294C6.29829 24.7962 8.7542 26.1366 9.47635 25.9597C10.1985 25.7828 11.9197 22.9822 12.1234 22.5218L12.134 22.5611L12.1234 22.5213C12.1955 22.3744 12.253 22.2177 12.2959 22.0531H12.2893L12.2898 22.0536Z" fill="#EE3737"/>
<path d="M32.9118 10.8767C33.5064 10.4409 33.9966 9.84491 34.3062 9.1192C35.2013 7.02119 34.2507 4.64262 32.1841 3.80588C30.8331 3.25853 29.3399 3.50616 28.2179 4.32768C28.0242 2.97355 27.1503 1.76732 25.7998 1.22046C23.7327 0.38322 21.3327 1.40471 20.4376 3.50272C19.9585 4.62543 19.9197 6.04097 20.3872 7.04625C20.9005 8.49619 23.0272 13.1329 24.301 13.6483C25.5743 14.1643 31.3092 11.8584 32.1342 11.3936L32.1055 11.4634L32.1357 11.3926C32.4096 11.2516 32.6733 11.0811 32.9234 10.8826L32.9133 10.8757L32.9118 10.8767Z" fill="#EE3737"/>
</svg>
