<svg width="77" height="78" viewBox="0 0 77 78" fill="none" xmlns="http://www.w3.org/2000/svg">
<path d="M34.6989 1.55047C36.9981 0.00770879 40.0019 0.00770891 42.3011 1.55047C43.8971 2.62131 45.8707 2.9693 47.7366 2.50889C50.4249 1.84557 53.2474 2.8729 54.8804 5.10902C56.0138 6.66112 57.7494 7.66313 59.6603 7.86868C62.4133 8.1648 64.7142 10.0955 65.4839 12.7553C66.0182 14.6015 67.3063 16.1367 69.0317 16.9834C71.5174 18.2032 73.0192 20.8045 72.8328 23.5671C72.7034 25.4847 73.3888 27.3678 74.7205 28.7536C76.6391 30.75 77.1607 33.7081 76.0406 36.2403C75.2632 37.998 75.2632 40.002 76.0406 41.7597C77.1607 44.2919 76.6391 47.25 74.7205 49.2464C73.3888 50.6322 72.7034 52.5153 72.8328 54.4329C73.0192 57.1955 71.5174 59.7968 69.0317 61.0166C67.3063 61.8633 66.0182 63.3985 65.4839 65.2447C64.7142 67.9044 62.4133 69.8352 59.6603 70.1313C57.7494 70.3369 56.0138 71.3389 54.8804 72.891C53.2474 75.1271 50.4249 76.1544 47.7366 75.4911C45.8707 75.0307 43.8971 75.3787 42.3011 76.4495C40.0019 77.9923 36.9981 77.9923 34.6989 76.4495C33.1029 75.3787 31.1293 75.0307 29.2634 75.4911C26.5751 76.1544 23.7526 75.1271 22.1196 72.891C20.9862 71.3389 19.2506 70.3369 17.3397 70.1313C14.5867 69.8352 12.2858 67.9044 11.5161 65.2447C10.9818 63.3985 9.69366 61.8633 7.96832 61.0166C5.48261 59.7968 3.98076 57.1955 4.16719 54.4329C4.29659 52.5153 3.61117 50.6322 2.27947 49.2464C0.360884 47.25 -0.160706 44.2919 0.959353 41.7597C1.73679 40.002 1.73679 37.998 0.959354 36.2403C-0.160705 33.7081 0.360884 30.75 2.27947 28.7536C3.61117 27.3678 4.29659 25.4847 4.16719 23.5671C3.98076 20.8045 5.48261 18.2032 7.96832 16.9834C9.69366 16.1367 10.9818 14.6015 11.5161 12.7553C12.2858 10.0955 14.5867 8.1648 17.3397 7.86868C19.2506 7.66313 20.9862 6.66112 22.1196 5.10902C23.7526 2.8729 26.5751 1.84557 29.2634 2.50889C31.1293 2.9693 33.1029 2.62131 34.6989 1.55047Z" fill="#7C56FE"/>
</svg>
